PrimaryLines.ufo
<glyph name="exclam" format="1">
  <advance width="764"/>
  <unicode hex="0021"/>
  <outline>
    <contour>
      <point x="0" y="949" type="line"/>
      <point x="764" y="949" type="line"/>
      <point x="764" y="933" type="line"/>
      <point x="0" y="933" type="line"/>
    </contour>
    <contour>
      <point x="0" y="1470" type="line"/>
      <point x="764" y="1470" type="line"/>
      <point x="764" y="1441" type="line"/>
      <point x="0" y="1441" type="line"/>
    </contour>
    <contour>
      <point x="0" y="19" type="line"/>
      <point x="764" y="19" type="line"/>
      <point x="764" y="-10" type="line"/>
      <point x="0" y="-10" type="line"/>
    </contour>
    <contour>
      <point x="0" y="-454" type="line"/>
      <point x="764" y="-454" type="line"/>
      <point x="764" y="-483" type="line"/>
      <point x="0" y="-483" type="line"/>
    </contour>
    <contour>
      <point x="225" y="110" type="qcurve" smooth="yes"/>
      <point x="225" y="138"/>
      <point x="246" y="187"/>
      <point x="283" y="224"/>
      <point x="332" y="245"/>
      <point x="360" y="245" type="qcurve" smooth="yes"/>
      <point x="388" y="245"/>
      <point x="437" y="224"/>
      <point x="474" y="187"/>
      <point x="495" y="138"/>
      <point x="495" y="110" type="qcurve" smooth="yes"/>
      <point x="495" y="82"/>
      <point x="474" y="33"/>
      <point x="437" y="-4"/>
      <point x="388" y="-25"/>
      <point x="360" y="-25" type="qcurve" smooth="yes"/>
      <point x="332" y="-25"/>
      <point x="283" y="-4"/>
      <point x="246" y="33"/>
      <point x="225" y="82"/>
    </contour>
    <contour>
      <point x="275" y="440" type="line"/>
      <point x="272" y="549"/>
      <point x="270" y="788"/>
      <point x="263" y="1054"/>
      <point x="249" y="1347"/>
      <point x="235" y="1510" type="qcurve"/>
      <point x="490" y="1510" type="line"/>
      <point x="475" y="1347"/>
      <point x="461" y="1054"/>
      <point x="454" y="788"/>
      <point x="452" y="549"/>
      <point x="450" y="440" type="qcurve"/>
    </contour>
  </outline>
</glyph>
<glyph name="quotedbl" format="1">
  <advance width="1025"/>
  <unicode hex="0022"/>
  <outline>
    <contour>
      <point x="0" y="949" type="line"/>
      <point x="1025" y="949" type="line"/>
      <point x="1025" y="933" type="line"/>
      <point x="0" y="933" type="line"/>
    </contour>
    <contour>
      <point x="0" y="1470" type="line"/>
      <point x="1025" y="1470" type="line"/>
      <point x="1025" y="1441" type="line"/>
      <point x="0" y="1441" type="line"/>
    </contour>
    <contour>
      <point x="0" y="19" type="line"/>
      <point x="1025" y="19" type="line"/>
      <point x="1025" y="-10" type="line"/>
      <point x="0" y="-10" type="line"/>
    </contour>
    <contour>
      <point x="0" y="-454" type="line"/>
      <point x="1025" y="-454" type="line"/>
      <point x="1025" y="-483" type="line"/>
      <point x="0" y="-483" type="line"/>
    </contour>
    <contour>
      <point x="620" y="1045" type="line"/>
      <point x="618" y="1098"/>
      <point x="614" y="1211"/>
      <point x="606" y="1341"/>
      <point x="592" y="1493"/>
      <point x="580" y="1585" type="qcurve"/>
      <point x="785" y="1585" type="line"/>
      <point x="774" y="1493"/>
      <point x="760" y="1341"/>
      <point x="752" y="1211"/>
      <point x="747" y="1098"/>
      <point x="745" y="1045" type="qcurve"/>
    </contour>
    <contour>
      <point x="280" y="1045" type="line"/>
      <point x="278" y="1098"/>
      <point x="274" y="1211"/>
      <point x="266" y="1341"/>
      <point x="252" y="1493"/>
      <point x="240" y="1585" type="qcurve"/>
      <point x="445" y="1585" type="line"/>
      <point x="434" y="1493"/>
      <point x="420" y="1341"/>
      <point x="412" y="1211"/>
      <point x="407" y="1098"/>
      <point x="405" y="1045" type="qcurve"/>
    </contour>
  </outline>
</glyph>
<glyph name="numbersign" format="1">
  <advance width="1200"/>
  <unicode hex="0023"/>
  <outline>
    <contour>
      <point x="537" y="1000" type="move" name="Anchor-4"/>
    </contour>
    <contour>
      <point x="319" y="0" type="move" name="Anchor-3"/>
    </contour>
    <contour>
      <point x="268" y="0" type="move" name="Anchor-2"/>
    </contour>
    <contour>
      <point x="268" y="-100" type="move" name="Anchor-1"/>
    </contour>
    <contour>
      <point x="268" y="1530" type="move" name="Anchor-0"/>
    </contour>
    <contour>
      <point x="427" y="725" type="line"/>
      <point x="702" y="725" type="line"/>
      <point x="769" y="960" type="line"/>
      <point x="494" y="960" type="line"/>
    </contour>
    <contour>
      <point x="84" y="1110" type="line"/>
      <point x="387" y="1110" type="line"/>
      <point x="487" y="1460" type="line"/>
      <point x="637" y="1460" type="line"/>
      <point x="537" y="1110" type="line"/>
      <point x="812" y="1110" type="line"/>
      <point x="912" y="1460" type="line"/>
      <point x="1062" y="1460" type="line"/>
      <point x="962" y="1110" type="line"/>
      <point x="1175" y="1110" type="line"/>
      <point x="1175" y="960" type="line"/>
      <point x="919" y="960" type="line"/>
      <point x="852" y="725" type="line"/>
      <point x="1116" y="725" type="line"/>
      <point x="1116" y="575" type="line"/>
      <point x="809" y="575" type="line"/>
      <point x="702" y="200" type="line"/>
      <point x="552" y="200" type="line"/>
      <point x="659" y="575" type="line"/>
      <point x="384" y="575" type="line"/>
      <point x="277" y="200" type="line"/>
      <point x="127" y="200" type="line"/>
      <point x="234" y="575" type="line"/>
      <point x="25" y="575" type="line"/>
      <point x="25" y="725" type="line"/>
      <point x="277" y="725" type="line"/>
      <point x="344" y="960" type="line"/>
      <point x="84" y="960" type="line"/>
    </contour>
    <contour>
      <point x="0" y="949" type="line"/>
      <point x="1200" y="949" type="line"/>
      <point x="1200" y="933" type="line"/>
      <point x="0" y="933" type="line"/>
    </contour>
    <contour>
      <point x="0" y="1470" type="line"/>
      <point x="1200" y="1470" type="line"/>
      <point x="1200" y="1441" type="line"/>
      <point x="0" y="1441" type="line"/>
    </contour>
    <contour>
      <point x="0" y="19" type="line"/>
      <point x="1200" y="19" type="line"/>
      <point x="1200" y="-10" type="line"/>
      <point x="0" y="-10" type="line"/>
    </contour>
    <contour>
      <point x="0" y="-454" type="line"/>
      <point x="1200" y="-454" type="line"/>
      <point x="1200" y="-483" type="line"/>
      <point x="0" y="-483" type="line"/>
    </contour>
  </outline>
</glyph>
<glyph name="dollar" format="1">
  <advance width="1200"/>
  <unicode hex="0024"/>
  <outline>
    <contour>
      <point x="365" y="1030" type="qcurve" smooth="yes"/>
      <point x="365" y="998"/>
      <point x="379" y="946"/>
      <point x="419" y="899"/>
      <point x="493" y="856"/>
      <point x="553" y="834" type="qcurve"/>
      <point x="553" y="1222" type="line"/>
      <point x="510" y="1214"/>
      <point x="441" y="1176"/>
      <point x="392" y="1125"/>
      <point x="365" y="1063"/>
    </contour>
    <contour>
      <point x="871" y="396" type="qcurve" smooth="yes"/>
      <point x="871" y="425"/>
      <point x="857" y="478"/>
      <point x="816" y="529"/>
      <point x="743" y="578"/>
      <point x="683" y="603" type="qcurve"/>
      <point x="683" y="174" type="line"/>
      <point x="723" y="185"/>
      <point x="791" y="224"/>
      <point x="842" y="280"/>
      <point x="871" y="352"/>
    </contour>
    <contour>
      <point x="949" y="1127" type="line"/>
      <point x="871" y="1170"/>
      <point x="747" y="1216"/>
      <point x="683" y="1224" type="qcurve"/>
      <point x="683" y="791" type="line"/>
      <point x="771" y="764"/>
      <point x="906" y="695"/>
      <point x="998" y="603"/>
      <point x="1046" y="487"/>
      <point x="1046" y="414" type="qcurve" smooth="yes"/>
      <point x="1046" y="333"/>
      <point x="990" y="197"/>
      <point x="893" y="92"/>
      <point x="760" y="22"/>
      <point x="683" y="8" type="qcurve"/>
      <point x="683" y="-220" type="line"/>
      <point x="553" y="-220" type="line"/>
      <point x="553" y="0" type="line"/>
      <point x="491" y="2"/>
      <point x="375" y="22"/>
      <point x="273" y="55"/>
      <point x="186" y="98"/>
      <point x="153" y="124" type="qcurve"/>
      <point x="195" y="313" type="line"/>
      <point x="279" y="239"/>
      <point x="459" y="167"/>
      <point x="553" y="162" type="qcurve"/>
      <point x="553" y="649" type="line"/>
      <point x="545" y="651"/>
      <point x="540" y="653" type="qcurve" smooth="yes"/>
      <point x="432" y="685"/>
      <point x="296" y="763"/>
      <point x="219" y="854"/>
      <point x="190" y="958"/>
      <point x="190" y="1017" type="qcurve" smooth="yes"/>
      <point x="190" y="1071"/>
      <point x="231" y="1191"/>
      <point x="320" y="1296"/>
      <point x="457" y="1374"/>
      <point x="553" y="1385" type="qcurve"/>
      <point x="553" y="1600" type="line"/>
      <point x="683" y="1600" type="line"/>
      <point x="683" y="1387" type="line"/>
      <point x="766" y="1382"/>
      <point x="909" y="1343"/>
      <point x="986" y="1306" type="qcurve"/>
    </contour>
    <contour>
      <point x="0" y="949" type="line"/>
      <point x="1200" y="949" type="line"/>
      <point x="1200" y="933" type="line"/>
      <point x="0" y="933" type="line"/>
    </contour>
    <contour>
      <point x="0" y="1470" type="line"/>
      <point x="1200" y="1470" type="line"/>
      <point x="1200" y="1441" type="line"/>
      <point x="0" y="1441" type="line"/>
    </contour>
    <contour>
      <point x="0" y="19" type="line"/>
      <point x="1200" y="19" type="line"/>
      <point x="1200" y="-10" type="line"/>
      <point x="0" y="-10" type="line"/>
    </contour>
    <contour>
      <point x="0" y="-454" type="line"/>
      <point x="1200" y="-454" type="line"/>
      <point x="1200" y="-483" type="line"/>
      <point x="0" y="-483" type="line"/>
    </contour>
  </outline>
</glyph>
<glyph name="ampersand" format="1">
  <advance width="1222"/>
  <unicode hex="0026"/>
  <outline>
    <contour>
      <point x="315" y="1200" type="qcurve" smooth="yes"/>
      <point x="315" y="1146"/>
      <point x="393" y="1017"/>
      <point x="453" y="939" type="qcurve"/>
      <point x="537" y="1023"/>
      <point x="630" y="1152"/>
      <point x="630" y="1205" type="qcurve" smooth="yes"/>
      <point x="630" y="1238"/>
      <point x="604" y="1292"/>
      <point x="561" y="1330"/>
      <point x="505" y="1350"/>
      <point x="475" y="1350" type="qcurve" smooth="yes"/>
      <point x="446" y="1350"/>
      <point x="389" y="1329"/>
      <point x="343" y="1290"/>
      <point x="315" y="1234"/>
    </contour>
    <contour>
      <point x="535" y="570" type="qcurve" smooth="yes"/>
      <point x="509" y="605"/>
      <point x="458" y="673"/>
      <point x="432" y="706" type="qcurve"/>
      <point x="377" y="656"/>
      <point x="300" y="570"/>
      <point x="252" y="492"/>
      <point x="230" y="418"/>
      <point x="230" y="380" type="qcurve" smooth="yes"/>
      <point x="230" y="338"/>
      <point x="260" y="255"/>
      <point x="317" y="190"/>
      <point x="401" y="150"/>
      <point x="455" y="150" type="qcurve" smooth="yes"/>
      <point x="486" y="150"/>
      <point x="556" y="170"/>
      <point x="630" y="206"/>
      <point x="705" y="255"/>
      <point x="741" y="284" type="qcurve"/>
      <point x="695" y="346"/>
      <point x="592" y="489"/>
    </contour>
    <contour>
      <point x="490" y="1485" type="qcurve" smooth="yes"/>
      <point x="547" y="1485"/>
      <point x="655" y="1447"/>
      <point x="739" y="1374"/>
      <point x="790" y="1268"/>
      <point x="790" y="1200" type="qcurve" smooth="yes"/>
      <point x="790" y="1158"/>
      <point x="755" y="1065"/>
      <point x="691" y="967"/>
      <point x="603" y="865"/>
      <point x="551" y="814" type="qcurve"/>
      <point x="576" y="782"/>
      <point x="625" y="715"/>
      <point x="650" y="680" type="qcurve" smooth="yes"/>
      <point x="708" y="595"/>
      <point x="811" y="453"/>
      <point x="857" y="393" type="qcurve"/>
      <point x="898" y="438"/>
      <point x="959" y="529"/>
      <point x="975" y="570" type="qcurve"/>
      <point x="1080" y="435" type="line"/>
      <point x="1062" y="399"/>
      <point x="1001" y="311"/>
      <point x="959" y="265" type="qcurve"/>
      <point x="1031" y="181"/>
      <point x="1137" y="86"/>
      <point x="1175" y="70" type="qcurve"/>
      <point x="1161" y="58"/>
      <point x="1121" y="25"/>
      <point x="1078" y="-4"/>
      <point x="1038" y="-25"/>
      <point x="1025" y="-25" type="qcurve" smooth="yes"/>
      <point x="1004" y="-25"/>
      <point x="912" y="67"/>
      <point x="843" y="153" type="qcurve"/>
      <point x="799" y="116"/>
      <point x="701" y="51"/>
      <point x="598" y="3"/>
      <point x="492" y="-25"/>
      <point x="440" y="-25" type="qcurve" smooth="yes"/>
      <point x="356" y="-25"/>
      <point x="215" y="37"/>
      <point x="113" y="145"/>
      <point x="55" y="291"/>
      <point x="55" y="375" type="qcurve" smooth="yes"/>
      <point x="55" y="431"/>
      <point x="88" y="535"/>
      <point x="157" y="643"/>
      <point x="264" y="759"/>
      <point x="337" y="828" type="qcurve"/>
      <point x="299" y="877"/>
      <point x="232" y="971"/>
      <point x="183" y="1061"/>
      <point x="155" y="1148"/>
      <point x="155" y="1190" type="qcurve" smooth="yes"/>
      <point x="155" y="1273"/>
      <point x="215" y="1386"/>
      <point x="311" y="1455"/>
      <point x="430" y="1485"/>
    </contour>
    <contour>
      <point x="0" y="949" type="line"/>
      <point x="1222" y="949" type="line"/>
      <point x="1222" y="933" type="line"/>
      <point x="0" y="933" type="line"/>
    </contour>
    <contour>
      <point x="0" y="1470" type="line"/>
      <point x="1222" y="1470" type="line"/>
      <point x="1222" y="1441" type="line"/>
      <point x="0" y="1441" type="line"/>
    </contour>
    <contour>
      <point x="0" y="19" type="line"/>
      <point x="1222" y="19" type="line"/>
      <point x="1222" y="-10" type="line"/>
      <point x="0" y="-10" type="line"/>
    </contour>
    <contour>
      <point x="0" y="-454" type="line"/>
      <point x="1222" y="-454" type="line"/>
      <point x="1222" y="-483" type="line"/>
      <point x="0" y="-483" type="line"/>
    </contour>
  </outline>
</glyph>
<glyph name="quotesingle" format="1">
  <advance width="605"/>
  <unicode hex="0027"/>
  <outline>
    <contour>
      <point x="240" y="1045" type="line"/>
      <point x="238" y="1098"/>
      <point x="234" y="1211"/>
      <point x="226" y="1341"/>
      <point x="212" y="1493"/>
      <point x="200" y="1585" type="qcurve"/>
      <point x="405" y="1585" type="line"/>
      <point x="394" y="1493"/>
      <point x="380" y="1341"/>
      <point x="372" y="1211"/>
      <point x="367" y="1098"/>
      <point x="365" y="1045" type="qcurve"/>
    </contour>
    <contour>
      <point x="0" y="949" type="line"/>
      <point x="605" y="949" type="line"/>
      <point x="605" y="933" type="line"/>
      <point x="0" y="933" type="line"/>
    </contour>
    <contour>
      <point x="0" y="1470" type="line"/>
      <point x="605" y="1470" type="line"/>
      <point x="605" y="1441" type="line"/>
      <point x="0" y="1441" type="line"/>
    </contour>
    <contour>
      <point x="0" y="19" type="line"/>
      <point x="605" y="19" type="line"/>
      <point x="605" y="-10" type="line"/>
      <point x="0" y="-10" type="line"/>
    </contour>
    <contour>
      <point x="0" y="-454" type="line"/>
      <point x="605" y="-454" type="line"/>
      <point x="605" y="-483" type="line"/>
      <point x="0" y="-483" type="line"/>
    </contour>
  </outline>
</glyph>
<glyph name="parenleft" format="1">
  <advance width="795"/>
  <unicode hex="0028"/>
  <outline>
    <contour>
      <point x="115" y="625" type="qcurve" smooth="yes"/>
      <point x="115" y="789"/>
      <point x="178" y="1092"/>
      <point x="293" y="1354"/>
      <point x="456" y="1566"/>
      <point x="555" y="1640" type="qcurve"/>
      <point x="630" y="1485" type="line"/>
      <point x="542" y="1408"/>
      <point x="418" y="1221"/>
      <point x="340" y="1003"/>
      <point x="305" y="759"/>
      <point x="305" y="625" type="qcurve" smooth="yes"/>
      <point x="305" y="495"/>
      <point x="340" y="256"/>
      <point x="418" y="36"/>
      <point x="542" y="-169"/>
      <point x="630" y="-265" type="qcurve"/>
      <point x="535" y="-410" type="line"/>
      <point x="329" y="-196"/>
      <point x="115" y="320"/>
    </contour>
    <contour>
      <point x="0" y="949" type="line"/>
      <point x="795" y="949" type="line"/>
      <point x="795" y="933" type="line"/>
      <point x="0" y="933" type="line"/>
    </contour>
    <contour>
      <point x="0" y="1470" type="line"/>
      <point x="795" y="1470" type="line"/>
      <point x="795" y="1441" type="line"/>
      <point x="0" y="1441" type="line"/>
    </contour>
    <contour>
      <point x="0" y="19" type="line"/>
      <point x="795" y="19" type="line"/>
      <point x="795" y="-10" type="line"/>
      <point x="0" y="-10" type="line"/>
    </contour>
    <contour>
      <point x="0" y="-454" type="line"/>
      <point x="795" y="-454" type="line"/>
      <point x="795" y="-483" type="line"/>
      <point x="0" y="-483" type="line"/>
    </contour>
  </outline>
</glyph>
<glyph name="parenright" format="1">
  <advance width="795"/>
  <unicode hex="0029"/>
  <outline>
    <contour>
      <point x="680" y="625" type="qcurve" smooth="yes"/>
      <point x="680" y="320"/>
      <point x="466" y="-196"/>
      <point x="260" y="-410" type="qcurve"/>
      <point x="165" y="-265" type="line"/>
      <point x="249" y="-169"/>
      <point x="372" y="36"/>
      <point x="452" y="256"/>
      <point x="490" y="495"/>
      <point x="490" y="625" type="qcurve" smooth="yes"/>
      <point x="490" y="751"/>
      <point x="452" y="994"/>
      <point x="372" y="1215"/>
      <point x="249" y="1408"/>
      <point x="165" y="1485" type="qcurve"/>
      <point x="240" y="1640" type="line"/>
      <point x="339" y="1566"/>
      <point x="502" y="1354"/>
      <point x="617" y="1092"/>
      <point x="680" y="789"/>
    </contour>
    <contour>
      <point x="0" y="949" type="line"/>
      <point x="795" y="949" type="line"/>
      <point x="795" y="933" type="line"/>
      <point x="0" y="933" type="line"/>
    </contour>
    <contour>
      <point x="0" y="1470" type="line"/>
      <point x="795" y="1470" type="line"/>
      <point x="795" y="1441" type="line"/>
      <point x="0" y="1441" type="line"/>
    </contour>
    <contour>
      <point x="0" y="19" type="line"/>
      <point x="795" y="19" type="line"/>
      <point x="795" y="-10" type="line"/>
      <point x="0" y="-10" type="line"/>
    </contour>
    <contour>
      <point x="0" y="-454" type="line"/>
      <point x="795" y="-454" type="line"/>
      <point x="795" y="-483" type="line"/>
      <point x="0" y="-483" type="line"/>
    </contour>
  </outline>
</glyph>
<glyph name="asterisk" format="1">
  <advance width="1028"/>
  <unicode hex="002A"/>
  <outline>
    <contour>
      <point x="560" y="1600" type="line"/>
      <point x="555" y="1550"/>
      <point x="548" y="1468"/>
      <point x="543" y="1397"/>
      <point x="540" y="1333"/>
      <point x="540" y="1300" type="qcurve"/>
      <point x="568" y="1318"/>
      <point x="622" y="1355"/>
      <point x="680" y="1398"/>
      <point x="746" y="1448"/>
      <point x="785" y="1480" type="qcurve"/>
      <point x="855" y="1355" type="line"/>
      <point x="809" y="1334"/>
      <point x="735" y="1298"/>
      <point x="671" y="1266"/>
      <point x="613" y="1235"/>
      <point x="585" y="1220" type="qcurve"/>
      <point x="614" y="1205"/>
      <point x="674" y="1177"/>
      <point x="740" y="1149"/>
      <point x="818" y="1118"/>
      <point x="865" y="1100" type="qcurve"/>
      <point x="790" y="975" type="line"/>
      <point x="749" y="1004"/>
      <point x="682" y="1050"/>
      <point x="622" y="1089"/>
      <point x="568" y="1123"/>
      <point x="540" y="1140" type="qcurve"/>
      <point x="541" y="1107"/>
      <point x="546" y="1042"/>
      <point x="552" y="971"/>
      <point x="562" y="890"/>
      <point x="570" y="840" type="qcurve"/>
      <point x="430" y="840" type="line"/>
      <point x="434" y="890"/>
      <point x="441" y="972"/>
      <point x="446" y="1044"/>
      <point x="449" y="1108"/>
      <point x="450" y="1140" type="qcurve"/>
      <point x="423" y="1123"/>
      <point x="369" y="1085"/>
      <point x="310" y="1042"/>
      <point x="244" y="991"/>
      <point x="205" y="960" type="qcurve"/>
      <point x="135" y="1085" type="line"/>
      <point x="217" y="1123" type="line" smooth="yes"/>
      <point x="255" y="1141"/>
      <point x="319" y="1173"/>
      <point x="376" y="1204"/>
      <point x="405" y="1220" type="qcurve"/>
      <point x="376" y="1235"/>
      <point x="316" y="1263"/>
      <point x="249" y="1291"/>
      <point x="172" y="1321"/>
      <point x="125" y="1340" type="qcurve"/>
      <point x="200" y="1465" type="line"/>
      <point x="241" y="1436"/>
      <point x="308" y="1389"/>
      <point x="368" y="1350"/>
      <point x="422" y="1316"/>
      <point x="450" y="1300" type="qcurve"/>
      <point x="449" y="1333"/>
      <point x="443" y="1397"/>
      <point x="434" y="1468"/>
      <point x="422" y="1550"/>
      <point x="415" y="1600" type="qcurve"/>
    </contour>
    <contour>
      <point x="0" y="949" type="line"/>
      <point x="1028" y="949" type="line"/>
      <point x="1028" y="933" type="line"/>
      <point x="0" y="933" type="line"/>
    </contour>
    <contour>
      <point x="0" y="1470" type="line"/>
      <point x="1028" y="1470" type="line"/>
      <point x="1028" y="1441" type="line"/>
      <point x="0" y="1441" type="line"/>
    </contour>
    <contour>
      <point x="0" y="19" type="line"/>
      <point x="1028" y="19" type="line"/>
      <point x="1028" y="-10" type="line"/>
      <point x="0" y="-10" type="line"/>
    </contour>
    <contour>
      <point x="0" y="-454" type="line"/>
      <point x="1028" y="-454" type="line"/>
      <point x="1028" y="-483" type="line"/>
      <point x="0" y="-483" type="line"/>
    </contour>
  </outline>
</glyph>
<glyph name="plus" format="1">
  <advance width="1200"/>
  <unicode hex="002B"/>
  <outline>
    <contour>
      <point x="155" y="810" type="line"/>
      <point x="525" y="810" type="line"/>
      <point x="525" y="1180" type="line"/>
      <point x="675" y="1180" type="line"/>
      <point x="675" y="810" type="line"/>
      <point x="1045" y="810" type="line"/>
      <point x="1045" y="660" type="line"/>
      <point x="675" y="660" type="line"/>
      <point x="675" y="285" type="line"/>
      <point x="525" y="285" type="line"/>
      <point x="525" y="660" type="line"/>
      <point x="155" y="660" type="line"/>
    </contour>
    <contour>
      <point x="0" y="949" type="line"/>
      <point x="1200" y="949" type="line"/>
      <point x="1200" y="933" type="line"/>
      <point x="0" y="933" type="line"/>
    </contour>
    <contour>
      <point x="0" y="1470" type="line"/>
      <point x="1200" y="1470" type="line"/>
      <point x="1200" y="1441" type="line"/>
      <point x="0" y="1441" type="line"/>
    </contour>
    <contour>
      <point x="0" y="19" type="line"/>
      <point x="1200" y="19" type="line"/>
      <point x="1200" y="-10" type="line"/>
      <point x="0" y="-10" type="line"/>
    </contour>
    <contour>
      <point x="0" y="-454" type="line"/>
      <point x="1200" y="-454" type="line"/>
      <point x="1200" y="-483" type="line"/>
      <point x="0" y="-483" type="line"/>
    </contour>
  </outline>
</glyph>
<glyph name="comma" format="1">
  <advance width="650"/>
  <unicode hex="002C"/>
  <outline>
    <contour>
      <point x="185" y="150" type="line"/>
      <point x="190" y="174"/>
      <point x="217" y="211"/>
      <point x="255" y="236"/>
      <point x="299" y="250"/>
      <point x="320" y="250" type="qcurve" smooth="yes"/>
      <point x="350" y="250"/>
      <point x="403" y="227"/>
      <point x="442" y="184"/>
      <point x="465" y="123"/>
      <point x="465" y="85" type="qcurve" smooth="yes"/>
      <point x="465" y="-7"/>
      <point x="378" y="-187"/>
      <point x="290" y="-270" type="qcurve"/>
      <point x="190" y="-230" type="line"/>
      <point x="212" y="-208"/>
      <point x="259" y="-144"/>
      <point x="299" y="-69"/>
      <point x="325" y="12"/>
      <point x="325" y="50" type="qcurve"/>
      <point x="185" y="50" type="line"/>
    </contour>
    <contour>
      <point x="0" y="949" type="line"/>
      <point x="650" y="949" type="line"/>
      <point x="650" y="933" type="line"/>
      <point x="0" y="933" type="line"/>
    </contour>
    <contour>
      <point x="0" y="1470" type="line"/>
      <point x="650" y="1470" type="line"/>
      <point x="650" y="1441" type="line"/>
      <point x="0" y="1441" type="line"/>
    </contour>
    <contour>
      <point x="0" y="19" type="line"/>
      <point x="650" y="19" type="line"/>
      <point x="650" y="-10" type="line"/>
      <point x="0" y="-10" type="line"/>
    </contour>
    <contour>
      <point x="0" y="-454" type="line"/>
      <point x="650" y="-454" type="line"/>
      <point x="650" y="-483" type="line"/>
      <point x="0" y="-483" type="line"/>
    </contour>
  </outline>
</glyph>
<glyph name="hyphen" format="1">
  <advance width="860"/>
  <unicode hex="002D"/>
  <outline>
    <contour>
      <point x="80" y="705" type="line"/>
      <point x="780" y="705" type="line"/>
      <point x="780" y="555" type="line"/>
      <point x="80" y="555" type="line"/>
    </contour>
    <contour>
      <point x="0" y="949" type="line"/>
      <point x="860" y="949" type="line"/>
      <point x="860" y="933" type="line"/>
      <point x="0" y="933" type="line"/>
    </contour>
    <contour>
      <point x="0" y="1470" type="line"/>
      <point x="860" y="1470" type="line"/>
      <point x="860" y="1441" type="line"/>
      <point x="0" y="1441" type="line"/>
    </contour>
    <contour>
      <point x="0" y="19" type="line"/>
      <point x="860" y="19" type="line"/>
      <point x="860" y="-10" type="line"/>
      <point x="0" y="-10" type="line"/>
    </contour>
    <contour>
      <point x="0" y="-454" type="line"/>
      <point x="860" y="-454" type="line"/>
      <point x="860" y="-483" type="line"/>
      <point x="0" y="-483" type="line"/>
    </contour>
  </outline>
</glyph>
<glyph name="period" format="1">
  <advance width="640"/>
  <unicode hex="002E"/>
  <outline>
    <contour>
      <point x="185" y="110" type="qcurve" smooth="yes"/>
      <point x="185" y="138"/>
      <point x="206" y="187"/>
      <point x="243" y="224"/>
      <point x="292" y="245"/>
      <point x="320" y="245" type="qcurve" smooth="yes"/>
      <point x="348" y="245"/>
      <point x="397" y="224"/>
      <point x="434" y="187"/>
      <point x="455" y="138"/>
      <point x="455" y="110" type="qcurve" smooth="yes"/>
      <point x="455" y="82"/>
      <point x="434" y="33"/>
      <point x="397" y="-4"/>
      <point x="348" y="-25"/>
      <point x="320" y="-25" type="qcurve" smooth="yes"/>
      <point x="292" y="-25"/>
      <point x="243" y="-4"/>
      <point x="206" y="33"/>
      <point x="185" y="82"/>
    </contour>
    <contour>
      <point x="0" y="949" type="line"/>
      <point x="640" y="949" type="line"/>
      <point x="640" y="933" type="line"/>
      <point x="0" y="933" type="line"/>
    </contour>
    <contour>
      <point x="0" y="1470" type="line"/>
      <point x="640" y="1470" type="line"/>
      <point x="640" y="1441" type="line"/>
      <point x="0" y="1441" type="line"/>
    </contour>
    <contour>
      <point x="0" y="19" type="line"/>
      <point x="640" y="19" type="line"/>
      <point x="640" y="-10" type="line"/>
      <point x="0" y="-10" type="line"/>
    </contour>
    <contour>
      <point x="0" y="-454" type="line"/>
      <point x="640" y="-454" type="line"/>
      <point x="640" y="-483" type="line"/>
      <point x="0" y="-483" type="line"/>
    </contour>
  </outline>
</glyph>
<glyph name="slash" format="1">
  <advance width="1000"/>
  <unicode hex="002F"/>
  <outline>
    <contour>
      <point x="990" y="1600" type="line"/>
      <point x="160" y="-245" type="line"/>
      <point x="10" y="-245" type="line"/>
      <point x="840" y="1600" type="line"/>
    </contour>
    <contour>
      <point x="0" y="949" type="line"/>
      <point x="1000" y="949" type="line"/>
      <point x="1000" y="933" type="line"/>
      <point x="0" y="933" type="line"/>
    </contour>
    <contour>
      <point x="0" y="1470" type="line"/>
      <point x="1000" y="1470" type="line"/>
      <point x="1000" y="1441" type="line"/>
      <point x="0" y="1441" type="line"/>
    </contour>
    <contour>
      <point x="0" y="19" type="line"/>
      <point x="1000" y="19" type="line"/>
      <point x="1000" y="-10" type="line"/>
      <point x="0" y="-10" type="line"/>
    </contour>
    <contour>
      <point x="0" y="-454" type="line"/>
      <point x="1000" y="-454" type="line"/>
      <point x="1000" y="-483" type="line"/>
      <point x="0" y="-483" type="line"/>
    </contour>
  </outline>
</glyph>
<glyph name="zero" format="1">
  <advance width="1200"/>
  <unicode hex="0030"/>
  <outline>
    <contour>
      <point x="1200" y="1077" type="move" name="Anchor-4"/>
    </contour>
    <contour>
      <point x="605" y="-100" type="move" name="Anchor-3"/>
    </contour>
    <contour>
      <point x="605" y="-100" type="move" name="Anchor-2"/>
    </contour>
    <contour>
      <point x="605" y="-100" type="move" name="Anchor-1"/>
    </contour>
    <contour>
      <point x="605" y="1530" type="move" name="Anchor-0"/>
    </contour>
    <contour>
      <point x="1110" y="740" type="qcurve" smooth="yes"/>
      <point x="1110" y="519"/>
      <point x="1029" y="225"/>
      <point x="889" y="48"/>
      <point x="699" y="-25"/>
      <point x="590" y="-25" type="qcurve" smooth="yes"/>
      <point x="482" y="-25"/>
      <point x="298" y="49"/>
      <point x="165" y="222"/>
      <point x="90" y="508"/>
      <point x="90" y="720" type="qcurve" smooth="yes"/>
      <point x="90" y="931"/>
      <point x="171" y="1223"/>
      <point x="312" y="1404"/>
      <point x="502" y="1485"/>
      <point x="610" y="1485" type="qcurve" smooth="yes"/>
      <point x="719" y="1485"/>
      <point x="902" y="1406"/>
      <point x="1035" y="1229"/>
      <point x="1110" y="945"/>
    </contour>
    <contour>
      <point x="910" y="715" type="qcurve" smooth="yes"/>
      <point x="910" y="880"/>
      <point x="870" y="1109"/>
      <point x="792" y="1252"/>
      <point x="676" y="1315"/>
      <point x="600" y="1315" type="qcurve" smooth="yes"/>
      <point x="528" y="1315"/>
      <point x="413" y="1252"/>
      <point x="333" y="1114"/>
      <point x="290" y="898"/>
      <point x="290" y="745" type="qcurve" smooth="yes"/>
      <point x="290" y="580"/>
      <point x="331" y="351"/>
      <point x="410" y="209"/>
      <point x="526" y="145"/>
      <point x="600" y="145" type="qcurve" smooth="yes"/>
      <point x="672" y="145"/>
      <point x="787" y="209"/>
      <point x="867" y="346"/>
      <point x="910" y="562"/>
    </contour>
    <contour>
      <point x="0" y="949" type="line"/>
      <point x="1200" y="949" type="line"/>
      <point x="1200" y="933" type="line"/>
      <point x="0" y="933" type="line"/>
    </contour>
    <contour>
      <point x="0" y="1470" type="line"/>
      <point x="1200" y="1470" type="line"/>
      <point x="1200" y="1441" type="line"/>
      <point x="0" y="1441" type="line"/>
    </contour>
    <contour>
      <point x="0" y="19" type="line"/>
      <point x="1200" y="19" type="line"/>
      <point x="1200" y="-10" type="line"/>
      <point x="0" y="-10" type="line"/>
    </contour>
    <contour>
      <point x="0" y="-454" type="line"/>
      <point x="1200" y="-454" type="line"/>
      <point x="1200" y="-483" type="line"/>
      <point x="0" y="-483" type="line"/>
    </contour>
  </outline>
</glyph>
<glyph name="one" format="1">
  <advance width="1200"/>
  <unicode hex="0031"/>
  <outline>
    <contour>
      <point x="1200" y="1077" type="move" name="Anchor-4"/>
    </contour>
    <contour>
      <point x="600" y="-100" type="move" name="Anchor-3"/>
    </contour>
    <contour>
      <point x="600" y="-100" type="move" name="Anchor-2"/>
    </contour>
    <contour>
      <point x="600" y="-100" type="move" name="Anchor-1"/>
    </contour>
    <contour>
      <point x="600" y="1530" type="move" name="Anchor-0"/>
    </contour>
    <contour>
      <point x="535" y="1260" type="line"/>
      <point x="235" y="1088" type="line"/>
      <point x="210" y="1268" type="line"/>
      <point x="555" y="1480" type="line"/>
      <point x="725" y="1480" type="line"/>
      <point x="725" y="170" type="line"/>
      <point x="1040" y="170" type="line"/>
      <point x="1040" y="0" type="line"/>
      <point x="220" y="0" type="line"/>
      <point x="220" y="170" type="line"/>
      <point x="535" y="170" type="line"/>
    </contour>
    <contour>
      <point x="0" y="949" type="line"/>
      <point x="1200" y="949" type="line"/>
      <point x="1200" y="933" type="line"/>
      <point x="0" y="933" type="line"/>
    </contour>
    <contour>
      <point x="0" y="1470" type="line"/>
      <point x="1200" y="1470" type="line"/>
      <point x="1200" y="1441" type="line"/>
      <point x="0" y="1441" type="line"/>
    </contour>
    <contour>
      <point x="0" y="19" type="line"/>
      <point x="1200" y="19" type="line"/>
      <point x="1200" y="-10" type="line"/>
      <point x="0" y="-10" type="line"/>
    </contour>
    <contour>
      <point x="0" y="-454" type="line"/>
      <point x="1200" y="-454" type="line"/>
      <point x="1200" y="-483" type="line"/>
      <point x="0" y="-483" type="line"/>
    </contour>
  </outline>
</glyph>
<glyph name="two" format="1">
  <advance width="1200"/>
  <unicode hex="0032"/>
  <outline>
    <contour>
      <point x="1200" y="1077" type="move" name="Anchor-4"/>
    </contour>
    <contour>
      <point x="600" y="-100" type="move" name="Anchor-3"/>
    </contour>
    <contour>
      <point x="600" y="-100" type="move" name="Anchor-2"/>
    </contour>
    <contour>
      <point x="600" y="-100" type="move" name="Anchor-1"/>
    </contour>
    <contour>
      <point x="560" y="1530" type="move" name="Anchor-0"/>
    </contour>
    <contour>
      <point x="1080" y="0" type="line"/>
      <point x="120" y="0" type="line"/>
      <point x="120" y="170" type="line"/>
      <point x="188" y="219"/>
      <point x="343" y="348"/>
      <point x="496" y="496"/>
      <point x="637" y="657"/>
      <point x="745" y="819"/>
      <point x="810" y="976"/>
      <point x="810" y="1045" type="qcurve" smooth="yes"/>
      <point x="810" y="1115"/>
      <point x="761" y="1214"/>
      <point x="681" y="1277"/>
      <point x="579" y="1305"/>
      <point x="525" y="1305" type="qcurve" smooth="yes"/>
      <point x="479" y="1305"/>
      <point x="381" y="1278"/>
      <point x="288" y="1228"/>
      <point x="203" y="1160"/>
      <point x="170" y="1120" type="qcurve"/>
      <point x="125" y="1290" type="line"/>
      <point x="155" y="1332"/>
      <point x="251" y="1403"/>
      <point x="368" y="1456"/>
      <point x="497" y="1485"/>
      <point x="560" y="1485" type="qcurve" smooth="yes"/>
      <point x="650" y="1485"/>
      <point x="813" y="1426"/>
      <point x="937" y="1317"/>
      <point x="1010" y="1162"/>
      <point x="1010" y="1065" type="qcurve" smooth="yes"/>
      <point x="1010" y="981"/>
      <point x="949" y="808"/>
      <point x="847" y="639"/>
      <point x="717" y="479"/>
      <point x="579" y="335"/>
      <point x="445" y="212"/>
      <point x="390" y="165" type="qcurve"/>
      <point x="645" y="165" type="line" smooth="yes"/>
      <point x="719" y="165"/>
      <point x="851" y="166"/>
      <point x="962" y="169"/>
      <point x="1050" y="175"/>
      <point x="1080" y="180" type="qcurve"/>
    </contour>
    <contour>
      <point x="0" y="949" type="line"/>
      <point x="1200" y="949" type="line"/>
      <point x="1200" y="933" type="line"/>
      <point x="0" y="933" type="line"/>
    </contour>
    <contour>
      <point x="0" y="1470" type="line"/>
      <point x="1200" y="1470" type="line"/>
      <point x="1200" y="1441" type="line"/>
      <point x="0" y="1441" type="line"/>
    </contour>
    <contour>
      <point x="0" y="19" type="line"/>
      <point x="1200" y="19" type="line"/>
      <point x="1200" y="-10" type="line"/>
      <point x="0" y="-10" type="line"/>
    </contour>
    <contour>
      <point x="0" y="-454" type="line"/>
      <point x="1200" y="-454" type="line"/>
      <point x="1200" y="-483" type="line"/>
      <point x="0" y="-483" type="line"/>
    </contour>
  </outline>
</glyph>
<glyph name="three" format="1">
  <advance width="1200"/>
  <unicode hex="0033"/>
  <outline>
    <contour>
      <point x="1200" y="1077" type="move" name="Anchor-4"/>
    </contour>
    <contour>
      <point x="600" y="-100" type="move" name="Anchor-3"/>
    </contour>
    <contour>
      <point x="600" y="-100" type="move" name="Anchor-2"/>
    </contour>
    <contour>
      <point x="600" y="-100" type="move" name="Anchor-1"/>
    </contour>
    <contour>
      <point x="600" y="1530" type="move" name="Anchor-0"/>
    </contour>
    <contour>
      <point x="480" y="870" type="line" smooth="yes"/>
      <point x="555" y="870"/>
      <point x="689" y="912"/>
      <point x="790" y="980"/>
      <point x="850" y="1068"/>
      <point x="850" y="1115" type="qcurve" smooth="yes"/>
      <point x="850" y="1166"/>
      <point x="803" y="1239"/>
      <point x="728" y="1287"/>
      <point x="635" y="1310"/>
      <point x="590" y="1310" type="qcurve" smooth="yes"/>
      <point x="532" y="1310"/>
      <point x="432" y="1294"/>
      <point x="342" y="1258"/>
      <point x="257" y="1198"/>
      <point x="215" y="1155" type="qcurve"/>
      <point x="180" y="1325" type="line"/>
      <point x="210" y="1359"/>
      <point x="296" y="1418"/>
      <point x="399" y="1461"/>
      <point x="517" y="1485"/>
      <point x="580" y="1485" type="qcurve" smooth="yes"/>
      <point x="673" y="1485"/>
      <point x="840" y="1437"/>
      <point x="966" y="1348"/>
      <point x="1040" y="1220"/>
      <point x="1040" y="1140" type="qcurve" smooth="yes"/>
      <point x="1040" y="1071"/>
      <point x="980" y="956"/>
      <point x="887" y="868"/>
      <point x="773" y="811"/>
      <point x="720" y="800" type="qcurve"/>
      <point x="755" y="794"/>
      <point x="838" y="768"/>
      <point x="920" y="725"/>
      <point x="996" y="663"/>
      <point x="1055" y="579"/>
      <point x="1090" y="472"/>
      <point x="1090" y="405" type="qcurve" smooth="yes"/>
      <point x="1090" y="317"/>
      <point x="1001" y="160"/>
      <point x="851" y="43"/>
      <point x="653" y="-25"/>
      <point x="545" y="-25" type="qcurve" smooth="yes"/>
      <point x="411" y="-25"/>
      <point x="189" y="66"/>
      <point x="110" y="140" type="qcurve"/>
      <point x="135" y="355" type="line"/>
      <point x="176" y="309"/>
      <point x="270" y="233"/>
      <point x="377" y="179"/>
      <point x="497" y="150"/>
      <point x="565" y="150" type="qcurve" smooth="yes"/>
      <point x="622" y="150"/>
      <point x="740" y="184"/>
      <point x="835" y="253"/>
      <point x="895" y="356"/>
      <point x="895" y="425" type="qcurve" smooth="yes"/>
      <point x="895" y="486"/>
      <point x="832" y="587"/>
      <point x="720" y="660"/>
      <point x="568" y="700"/>
      <point x="480" y="700" type="qcurve" smooth="yes"/>
      <point x="410" y="700" type="line"/>
      <point x="410" y="870" type="line"/>
    </contour>
    <contour>
      <point x="0" y="949" type="line"/>
      <point x="1200" y="949" type="line"/>
      <point x="1200" y="933" type="line"/>
      <point x="0" y="933" type="line"/>
    </contour>
    <contour>
      <point x="0" y="1470" type="line"/>
      <point x="1200" y="1470" type="line"/>
      <point x="1200" y="1441" type="line"/>
      <point x="0" y="1441" type="line"/>
    </contour>
    <contour>
      <point x="0" y="19" type="line"/>
      <point x="1200" y="19" type="line"/>
      <point x="1200" y="-10" type="line"/>
      <point x="0" y="-10" type="line"/>
    </contour>
    <contour>
      <point x="0" y="-454" type="line"/>
      <point x="1200" y="-454" type="line"/>
      <point x="1200" y="-483" type="line"/>
      <point x="0" y="-483" type="line"/>
    </contour>
  </outline>
</glyph>
<glyph name="four" format="1">
  <advance width="1200"/>
  <unicode hex="0034"/>
  <outline>
    <contour>
      <point x="1200" y="1077" type="move" name="Anchor-4"/>
    </contour>
    <contour>
      <point x="607" y="-100" type="move" name="Anchor-3"/>
    </contour>
    <contour>
      <point x="607" y="-100" type="move" name="Anchor-2"/>
    </contour>
    <contour>
      <point x="607" y="-100" type="move" name="Anchor-1"/>
    </contour>
    <contour>
      <point x="607" y="1530" type="move" name="Anchor-0"/>
    </contour>
    <contour>
      <point x="263" y="550" type="line"/>
      <point x="745" y="550" type="line"/>
      <point x="745" y="1230" type="line"/>
    </contour>
    <contour>
      <point x="935" y="395" type="line"/>
      <point x="935" y="0" type="line"/>
      <point x="745" y="0" type="line"/>
      <point x="745" y="395" type="line"/>
      <point x="90" y="395" type="line"/>
      <point x="90" y="550" type="line"/>
      <point x="745" y="1480" type="line"/>
      <point x="935" y="1480" type="line"/>
      <point x="935" y="550" type="line"/>
      <point x="1125" y="550" type="line"/>
      <point x="1125" y="395" type="line"/>
    </contour>
    <contour>
      <point x="0" y="949" type="line"/>
      <point x="1200" y="949" type="line"/>
      <point x="1200" y="933" type="line"/>
      <point x="0" y="933" type="line"/>
    </contour>
    <contour>
      <point x="0" y="1470" type="line"/>
      <point x="1200" y="1470" type="line"/>
      <point x="1200" y="1441" type="line"/>
      <point x="0" y="1441" type="line"/>
    </contour>
    <contour>
      <point x="0" y="19" type="line"/>
      <point x="1200" y="19" type="line"/>
      <point x="1200" y="-10" type="line"/>
      <point x="0" y="-10" type="line"/>
    </contour>
    <contour>
      <point x="0" y="-454" type="line"/>
      <point x="1200" y="-454" type="line"/>
      <point x="1200" y="-483" type="line"/>
      <point x="0" y="-483" type="line"/>
    </contour>
  </outline>
</glyph>
<glyph name="five" format="1">
  <advance width="1200"/>
  <unicode hex="0035"/>
  <outline>
    <contour>
      <point x="1200" y="1077" type="move" name="Anchor-4"/>
    </contour>
    <contour>
      <point x="600" y="-100" type="move" name="Anchor-3"/>
    </contour>
    <contour>
      <point x="600" y="-100" type="move" name="Anchor-2"/>
    </contour>
    <contour>
      <point x="600" y="-100" type="move" name="Anchor-1"/>
    </contour>
    <contour>
      <point x="600" y="1530" type="move" name="Anchor-0"/>
    </contour>
    <contour>
      <point x="195" y="1460" type="line"/>
      <point x="1000" y="1460" type="line"/>
      <point x="1000" y="1270" type="line"/>
      <point x="943" y="1282"/>
      <point x="828" y="1290"/>
      <point x="765" y="1290" type="qcurve" smooth="yes"/>
      <point x="380" y="1290" type="line"/>
      <point x="380" y="920" type="line"/>
      <point x="403" y="923"/>
      <point x="490" y="930"/>
      <point x="545" y="930" type="qcurve" smooth="yes"/>
      <point x="653" y="930"/>
      <point x="840" y="863"/>
      <point x="980" y="742"/>
      <point x="1060" y="575"/>
      <point x="1060" y="475" type="qcurve" smooth="yes"/>
      <point x="1060" y="358"/>
      <point x="979" y="172"/>
      <point x="834" y="43"/>
      <point x="635" y="-25"/>
      <point x="518" y="-25" type="qcurve" smooth="yes"/>
      <point x="460" y="-25"/>
      <point x="359" y="-14"/>
      <point x="266" y="11"/>
      <point x="177" y="51"/>
      <point x="130" y="80" type="qcurve"/>
      <point x="160" y="290" type="line"/>
      <point x="210" y="249"/>
      <point x="299" y="197"/>
      <point x="386" y="167"/>
      <point x="477" y="155"/>
      <point x="530" y="155" type="qcurve" smooth="yes"/>
      <point x="605" y="155"/>
      <point x="730" y="197"/>
      <point x="820" y="277"/>
      <point x="870" y="394"/>
      <point x="870" y="470" type="qcurve" smooth="yes"/>
      <point x="870" y="546"/>
      <point x="802" y="652"/>
      <point x="697" y="719"/>
      <point x="570" y="750"/>
      <point x="510" y="750" type="qcurve" smooth="yes"/>
      <point x="470" y="750"/>
      <point x="397" y="743"/>
      <point x="322" y="728"/>
      <point x="241" y="703"/>
      <point x="195" y="685" type="qcurve"/>
    </contour>
    <contour>
      <point x="0" y="949" type="line"/>
      <point x="1200" y="949" type="line"/>
      <point x="1200" y="933" type="line"/>
      <point x="0" y="933" type="line"/>
    </contour>
    <contour>
      <point x="0" y="1470" type="line"/>
      <point x="1200" y="1470" type="line"/>
      <point x="1200" y="1441" type="line"/>
      <point x="0" y="1441" type="line"/>
    </contour>
    <contour>
      <point x="0" y="19" type="line"/>
      <point x="1200" y="19" type="line"/>
      <point x="1200" y="-10" type="line"/>
      <point x="0" y="-10" type="line"/>
    </contour>
    <contour>
      <point x="0" y="-454" type="line"/>
      <point x="1200" y="-454" type="line"/>
      <point x="1200" y="-483" type="line"/>
      <point x="0" y="-483" type="line"/>
    </contour>
  </outline>
</glyph>
<glyph name="six" format="1">
  <advance width="1200"/>
  <unicode hex="0036"/>
  <outline>
    <contour>
      <point x="1200" y="1077" type="move" name="Anchor-4"/>
    </contour>
    <contour>
      <point x="600" y="-100" type="move" name="Anchor-3"/>
    </contour>
    <contour>
      <point x="600" y="-100" type="move" name="Anchor-2"/>
    </contour>
    <contour>
      <point x="600" y="-100" type="move" name="Anchor-1"/>
    </contour>
    <contour>
      <point x="600" y="1530" type="move" name="Anchor-0"/>
    </contour>
    <contour>
      <point x="645" y="720" type="qcurve" smooth="yes"/>
      <point x="540" y="720"/>
      <point x="369" y="645"/>
      <point x="307" y="581" type="qcurve"/>
      <point x="313" y="495"/>
      <point x="358" y="339"/>
      <point x="438" y="221"/>
      <point x="554" y="150"/>
      <point x="630" y="150" type="qcurve" smooth="yes"/>
      <point x="696" y="150"/>
      <point x="803" y="194"/>
      <point x="879" y="271"/>
      <point x="920" y="375"/>
      <point x="920" y="435" type="qcurve" smooth="yes"/>
      <point x="920" y="501"/>
      <point x="884" y="607"/>
      <point x="815" y="680"/>
      <point x="712" y="720"/>
    </contour>
    <contour>
      <point x="989" y="1200" type="line"/>
      <point x="924" y="1264"/>
      <point x="787" y="1310"/>
      <point x="715" y="1310" type="qcurve" smooth="yes"/>
      <point x="632" y="1310"/>
      <point x="489" y="1248"/>
      <point x="381" y="1110"/>
      <point x="314" y="890"/>
      <point x="307" y="733" type="qcurve"/>
      <point x="381" y="806"/>
      <point x="557" y="895"/>
      <point x="665" y="895" type="qcurve" smooth="yes"/>
      <point x="769" y="895"/>
      <point x="936" y="832"/>
      <point x="1053" y="720"/>
      <point x="1115" y="563"/>
      <point x="1115" y="470" type="qcurve" smooth="yes"/>
      <point x="1115" y="356"/>
      <point x="1040" y="173"/>
      <point x="905" y="44"/>
      <point x="715" y="-25"/>
      <point x="600" y="-25" type="qcurve" smooth="yes"/>
      <point x="484" y="-25"/>
      <point x="302" y="72"/>
      <point x="176" y="254"/>
      <point x="110" y="516"/>
      <point x="110" y="680" type="qcurve" smooth="yes"/>
      <point x="110" y="772"/>
      <point x="135" y="963"/>
      <point x="193" y="1142"/>
      <point x="286" y="1300"/>
      <point x="423" y="1417"/>
      <point x="606" y="1485"/>
      <point x="725" y="1485" type="qcurve" smooth="yes"/>
      <point x="769" y="1485"/>
      <point x="847" y="1477"/>
      <point x="921" y="1456"/>
      <point x="994" y="1421"/>
      <point x="1033" y="1395" type="qcurve"/>
    </contour>
    <contour>
      <point x="0" y="949" type="line"/>
      <point x="1200" y="949" type="line"/>
      <point x="1200" y="933" type="line"/>
      <point x="0" y="933" type="line"/>
    </contour>
    <contour>
      <point x="0" y="1470" type="line"/>
      <point x="1200" y="1470" type="line"/>
      <point x="1200" y="1441" type="line"/>
      <point x="0" y="1441" type="line"/>
    </contour>
    <contour>
      <point x="0" y="19" type="line"/>
      <point x="1200" y="19" type="line"/>
      <point x="1200" y="-10" type="line"/>
      <point x="0" y="-10" type="line"/>
    </contour>
    <contour>
      <point x="0" y="-454" type="line"/>
      <point x="1200" y="-454" type="line"/>
      <point x="1200" y="-483" type="line"/>
      <point x="0" y="-483" type="line"/>
    </contour>
  </outline>
</glyph>
<glyph name="seven" format="1">
  <advance width="1200"/>
  <unicode hex="0037"/>
  <outline>
    <contour>
      <point x="1200" y="1077" type="move" name="Anchor-4"/>
    </contour>
    <contour>
      <point x="600" y="-100" type="move" name="Anchor-3"/>
    </contour>
    <contour>
      <point x="600" y="-100" type="move" name="Anchor-2"/>
    </contour>
    <contour>
      <point x="600" y="-100" type="move" name="Anchor-1"/>
    </contour>
    <contour>
      <point x="600" y="1530" type="move" name="Anchor-0"/>
    </contour>
    <contour>
      <point x="275" y="0" type="line"/>
      <point x="316" y="141"/>
      <point x="400" y="390"/>
      <point x="489" y="614"/>
      <point x="585" y="818"/>
      <point x="690" y="1012"/>
      <point x="806" y="1199"/>
      <point x="870" y="1295" type="qcurve"/>
      <point x="480" y="1295" type="line" smooth="yes"/>
      <point x="339" y="1295"/>
      <point x="157" y="1287"/>
      <point x="100" y="1275" type="qcurve"/>
      <point x="100" y="1460" type="line"/>
      <point x="1090" y="1460" type="line"/>
      <point x="1090" y="1300" type="line"/>
      <point x="868" y="996"/>
      <point x="557" y="344"/>
      <point x="460" y="0" type="qcurve"/>
    </contour>
    <contour>
      <point x="0" y="949" type="line"/>
      <point x="1200" y="949" type="line"/>
      <point x="1200" y="933" type="line"/>
      <point x="0" y="933" type="line"/>
    </contour>
    <contour>
      <point x="0" y="1470" type="line"/>
      <point x="1200" y="1470" type="line"/>
      <point x="1200" y="1441" type="line"/>
      <point x="0" y="1441" type="line"/>
    </contour>
    <contour>
      <point x="0" y="19" type="line"/>
      <point x="1200" y="19" type="line"/>
      <point x="1200" y="-10" type="line"/>
      <point x="0" y="-10" type="line"/>
    </contour>
    <contour>
      <point x="0" y="-454" type="line"/>
      <point x="1200" y="-454" type="line"/>
      <point x="1200" y="-483" type="line"/>
      <point x="0" y="-483" type="line"/>
    </contour>
  </outline>
</glyph>
<glyph name="eight" format="1">
  <advance width="1200"/>
  <unicode hex="0038"/>
  <outline>
    <contour>
      <point x="1200" y="1077" type="move" name="Anchor-4"/>
    </contour>
    <contour>
      <point x="600" y="-100" type="move" name="Anchor-3"/>
    </contour>
    <contour>
      <point x="600" y="-100" type="move" name="Anchor-2"/>
    </contour>
    <contour>
      <point x="600" y="-100" type="move" name="Anchor-1"/>
    </contour>
    <contour>
      <point x="600" y="1530" type="move" name="Anchor-0"/>
    </contour>
    <contour>
      <point x="910" y="425" type="qcurve" smooth="yes"/>
      <point x="910" y="488"/>
      <point x="863" y="592"/>
      <point x="780" y="668"/>
      <point x="667" y="710"/>
      <point x="600" y="710" type="qcurve" smooth="yes"/>
      <point x="532" y="710"/>
      <point x="419" y="668"/>
      <point x="336" y="592"/>
      <point x="290" y="488"/>
      <point x="290" y="425" type="qcurve" smooth="yes"/>
      <point x="290" y="359"/>
      <point x="336" y="255"/>
      <point x="419" y="183"/>
      <point x="532" y="145"/>
      <point x="600" y="145" type="qcurve" smooth="yes"/>
      <point x="667" y="145"/>
      <point x="780" y="183"/>
      <point x="863" y="255"/>
      <point x="910" y="359"/>
    </contour>
    <contour>
      <point x="860" y="1105" type="qcurve" smooth="yes"/>
      <point x="860" y="1160"/>
      <point x="819" y="1243"/>
      <point x="748" y="1298"/>
      <point x="654" y="1325"/>
      <point x="600" y="1325" type="qcurve" smooth="yes"/>
      <point x="546" y="1325"/>
      <point x="452" y="1298"/>
      <point x="381" y="1243"/>
      <point x="340" y="1160"/>
      <point x="340" y="1105" type="qcurve" smooth="yes"/>
      <point x="340" y="1046"/>
      <point x="381" y="957"/>
      <point x="452" y="896"/>
      <point x="546" y="865"/>
      <point x="600" y="865" type="qcurve" smooth="yes"/>
      <point x="654" y="865"/>
      <point x="748" y="896"/>
      <point x="819" y="957"/>
      <point x="860" y="1046"/>
    </contour>
    <contour>
      <point x="600" y="-25" type="qcurve" smooth="yes"/>
      <point x="504" y="-25"/>
      <point x="321" y="33"/>
      <point x="177" y="144"/>
      <point x="90" y="303"/>
      <point x="90" y="405" type="qcurve" smooth="yes"/>
      <point x="90" y="482"/>
      <point x="135" y="604"/>
      <point x="208" y="698"/>
      <point x="302" y="769"/>
      <point x="350" y="795" type="qcurve"/>
      <point x="321" y="811"/>
      <point x="251" y="861"/>
      <point x="191" y="935"/>
      <point x="150" y="1037"/>
      <point x="150" y="1105" type="qcurve" smooth="yes"/>
      <point x="150" y="1197"/>
      <point x="229" y="1339"/>
      <point x="359" y="1435"/>
      <point x="524" y="1485"/>
      <point x="610" y="1485" type="qcurve" smooth="yes"/>
      <point x="696" y="1485"/>
      <point x="855" y="1435"/>
      <point x="977" y="1339"/>
      <point x="1050" y="1197"/>
      <point x="1050" y="1105" type="qcurve" smooth="yes"/>
      <point x="1050" y="1037"/>
      <point x="1011" y="937"/>
      <point x="952" y="864"/>
      <point x="884" y="813"/>
      <point x="855" y="795" type="qcurve"/>
      <point x="896" y="774"/>
      <point x="986" y="705"/>
      <point x="1061" y="608"/>
      <point x="1110" y="482"/>
      <point x="1110" y="405" type="qcurve" smooth="yes"/>
      <point x="1110" y="303"/>
      <point x="1023" y="144"/>
      <point x="880" y="33"/>
      <point x="696" y="-25"/>
    </contour>
    <contour>
      <point x="0" y="949" type="line"/>
      <point x="1200" y="949" type="line"/>
      <point x="1200" y="933" type="line"/>
      <point x="0" y="933" type="line"/>
    </contour>
    <contour>
      <point x="0" y="1470" type="line"/>
      <point x="1200" y="1470" type="line"/>
      <point x="1200" y="1441" type="line"/>
      <point x="0" y="1441" type="line"/>
    </contour>
    <contour>
      <point x="0" y="19" type="line"/>
      <point x="1200" y="19" type="line"/>
      <point x="1200" y="-10" type="line"/>
      <point x="0" y="-10" type="line"/>
    </contour>
    <contour>
      <point x="0" y="-454" type="line"/>
      <point x="1200" y="-454" type="line"/>
      <point x="1200" y="-483" type="line"/>
      <point x="0" y="-483" type="line"/>
    </contour>
  </outline>
</glyph>
<glyph name="nine" format="1">
  <advance width="1200"/>
  <unicode hex="0039"/>
  <outline>
    <contour>
      <point x="1200" y="1077" type="move" name="Anchor-4"/>
    </contour>
    <contour>
      <point x="600" y="-100" type="move" name="Anchor-3"/>
    </contour>
    <contour>
      <point x="600" y="-100" type="move" name="Anchor-2"/>
    </contour>
    <contour>
      <point x="600" y="-100" type="move" name="Anchor-1"/>
    </contour>
    <contour>
      <point x="600" y="1530" type="move" name="Anchor-0"/>
    </contour>
    <contour>
      <point x="583" y="760" type="qcurve" smooth="yes"/>
      <point x="633" y="760"/>
      <point x="727" y="783"/>
      <point x="811" y="824"/>
      <point x="885" y="881"/>
      <point x="914" y="915" type="qcurve"/>
      <point x="906" y="994"/>
      <point x="863" y="1138"/>
      <point x="787" y="1246"/>
      <point x="674" y="1310"/>
      <point x="596" y="1310" type="qcurve" smooth="yes"/>
      <point x="530" y="1310"/>
      <point x="423" y="1269"/>
      <point x="347" y="1197"/>
      <point x="306" y="1096"/>
      <point x="306" y="1036" type="qcurve" smooth="yes"/>
      <point x="306" y="970"/>
      <point x="348" y="867"/>
      <point x="422" y="797"/>
      <point x="523" y="760"/>
    </contour>
    <contour>
      <point x="237" y="260" type="line"/>
      <point x="269" y="228"/>
      <point x="336" y="185"/>
      <point x="405" y="160"/>
      <point x="475" y="150"/>
      <point x="511" y="150" type="qcurve" smooth="yes"/>
      <point x="596" y="150"/>
      <point x="740" y="214"/>
      <point x="847" y="356"/>
      <point x="912" y="584"/>
      <point x="917" y="748" type="qcurve"/>
      <point x="845" y="676"/>
      <point x="661" y="586"/>
      <point x="559" y="586" type="qcurve" smooth="yes"/>
      <point x="455" y="586"/>
      <point x="289" y="652"/>
      <point x="173" y="765"/>
      <point x="112" y="916"/>
      <point x="112" y="1002" type="qcurve" smooth="yes"/>
      <point x="112" y="1116"/>
      <point x="194" y="1295"/>
      <point x="333" y="1420"/>
      <point x="516" y="1485"/>
      <point x="616" y="1485" type="qcurve" smooth="yes"/>
      <point x="732" y="1485"/>
      <point x="917" y="1382"/>
      <point x="1046" y="1196"/>
      <point x="1114" y="937"/>
      <point x="1114" y="780" type="qcurve" smooth="yes"/>
      <point x="1114" y="688"/>
      <point x="1089" y="497"/>
      <point x="1032" y="318"/>
      <point x="939" y="160"/>
      <point x="803" y="43"/>
      <point x="620" y="-25"/>
      <point x="501" y="-25" type="qcurve" smooth="yes"/>
      <point x="457" y="-25"/>
      <point x="379" y="-17"/>
      <point x="305" y="4"/>
      <point x="232" y="39"/>
      <point x="193" y="65" type="qcurve"/>
    </contour>
    <contour>
      <point x="0" y="949" type="line"/>
      <point x="1200" y="949" type="line"/>
      <point x="1200" y="933" type="line"/>
      <point x="0" y="933" type="line"/>
    </contour>
    <contour>
      <point x="0" y="1470" type="line"/>
      <point x="1200" y="1470" type="line"/>
      <point x="1200" y="1441" type="line"/>
      <point x="0" y="1441" type="line"/>
    </contour>
    <contour>
      <point x="0" y="19" type="line"/>
      <point x="1200" y="19" type="line"/>
      <point x="1200" y="-10" type="line"/>
      <point x="0" y="-10" type="line"/>
    </contour>
    <contour>
      <point x="0" y="-454" type="line"/>
      <point x="1200" y="-454" type="line"/>
      <point x="1200" y="-483" type="line"/>
      <point x="0" y="-483" type="line"/>
    </contour>
  </outline>
</glyph>
<glyph name="colon" format="1">
  <advance width="640"/>
  <unicode hex="003A"/>
  <outline>
    <contour>
      <point x="185" y="110" type="qcurve" smooth="yes"/>
      <point x="185" y="138"/>
      <point x="206" y="187"/>
      <point x="243" y="224"/>
      <point x="292" y="245"/>
      <point x="320" y="245" type="qcurve" smooth="yes"/>
      <point x="348" y="245"/>
      <point x="397" y="224"/>
      <point x="434" y="187"/>
      <point x="455" y="138"/>
      <point x="455" y="110" type="qcurve" smooth="yes"/>
      <point x="455" y="82"/>
      <point x="434" y="33"/>
      <point x="397" y="-4"/>
      <point x="348" y="-25"/>
      <point x="320" y="-25" type="qcurve" smooth="yes"/>
      <point x="292" y="-25"/>
      <point x="243" y="-4"/>
      <point x="206" y="33"/>
      <point x="185" y="82"/>
    </contour>
    <contour>
      <point x="185" y="790" type="qcurve" smooth="yes"/>
      <point x="185" y="818"/>
      <point x="206" y="867"/>
      <point x="243" y="904"/>
      <point x="292" y="925"/>
      <point x="320" y="925" type="qcurve" smooth="yes"/>
      <point x="348" y="925"/>
      <point x="397" y="904"/>
      <point x="434" y="867"/>
      <point x="455" y="818"/>
      <point x="455" y="790" type="qcurve" smooth="yes"/>
      <point x="455" y="762"/>
      <point x="434" y="713"/>
      <point x="397" y="676"/>
      <point x="348" y="655"/>
      <point x="320" y="655" type="qcurve" smooth="yes"/>
      <point x="292" y="655"/>
      <point x="243" y="676"/>
      <point x="206" y="713"/>
      <point x="185" y="762"/>
    </contour>
    <contour>
      <point x="0" y="949" type="line"/>
      <point x="640" y="949" type="line"/>
      <point x="640" y="933" type="line"/>
      <point x="0" y="933" type="line"/>
    </contour>
    <contour>
      <point x="0" y="1470" type="line"/>
      <point x="640" y="1470" type="line"/>
      <point x="640" y="1441" type="line"/>
      <point x="0" y="1441" type="line"/>
    </contour>
    <contour>
      <point x="0" y="19" type="line"/>
      <point x="640" y="19" type="line"/>
      <point x="640" y="-10" type="line"/>
      <point x="0" y="-10" type="line"/>
    </contour>
    <contour>
      <point x="0" y="-454" type="line"/>
      <point x="640" y="-454" type="line"/>
      <point x="640" y="-483" type="line"/>
      <point x="0" y="-483" type="line"/>
    </contour>
  </outline>
</glyph>
<glyph name="less" format="1">
  <advance width="1200"/>
  <unicode hex="003C"/>
  <outline>
    <contour>
      <point x="1080" y="245" type="line"/>
      <point x="100" y="645" type="line"/>
      <point x="100" y="815" type="line"/>
      <point x="1080" y="1215" type="line"/>
      <point x="1080" y="1035" type="line"/>
      <point x="290" y="730" type="line"/>
      <point x="1080" y="425" type="line"/>
    </contour>
    <contour>
      <point x="0" y="949" type="line"/>
      <point x="1200" y="949" type="line"/>
      <point x="1200" y="933" type="line"/>
      <point x="0" y="933" type="line"/>
    </contour>
    <contour>
      <point x="0" y="1470" type="line"/>
      <point x="1200" y="1470" type="line"/>
      <point x="1200" y="1441" type="line"/>
      <point x="0" y="1441" type="line"/>
    </contour>
    <contour>
      <point x="0" y="19" type="line"/>
      <point x="1200" y="19" type="line"/>
      <point x="1200" y="-10" type="line"/>
      <point x="0" y="-10" type="line"/>
    </contour>
    <contour>
      <point x="0" y="-454" type="line"/>
      <point x="1200" y="-454" type="line"/>
      <point x="1200" y="-483" type="line"/>
      <point x="0" y="-483" type="line"/>
    </contour>
  </outline>
</glyph>
<glyph name="equal" format="1">
  <advance width="1200"/>
  <unicode hex="003D"/>
  <outline>
    <contour>
      <point x="120" y="980" type="line"/>
      <point x="1080" y="980" type="line"/>
      <point x="1080" y="830" type="line"/>
      <point x="120" y="830" type="line"/>
    </contour>
    <contour>
      <point x="120" y="630" type="line"/>
      <point x="1080" y="630" type="line"/>
      <point x="1080" y="480" type="line"/>
      <point x="120" y="480" type="line"/>
    </contour>
    <contour>
      <point x="0" y="949" type="line"/>
      <point x="1200" y="949" type="line"/>
      <point x="1200" y="933" type="line"/>
      <point x="0" y="933" type="line"/>
    </contour>
    <contour>
      <point x="0" y="1470" type="line"/>
      <point x="1200" y="1470" type="line"/>
      <point x="1200" y="1441" type="line"/>
      <point x="0" y="1441" type="line"/>
    </contour>
    <contour>
      <point x="0" y="19" type="line"/>
      <point x="1200" y="19" type="line"/>
      <point x="1200" y="-10" type="line"/>
      <point x="0" y="-10" type="line"/>
    </contour>
    <contour>
      <point x="0" y="-454" type="line"/>
      <point x="1200" y="-454" type="line"/>
      <point x="1200" y="-483" type="line"/>
      <point x="0" y="-483" type="line"/>
    </contour>
  </outline>
</glyph>
<glyph name="question" format="1">
  <advance width="1050"/>
  <unicode hex="003F"/>
  <outline>
    <contour>
      <point x="315" y="110" type="qcurve" smooth="yes"/>
      <point x="315" y="138"/>
      <point x="336" y="187"/>
      <point x="373" y="224"/>
      <point x="422" y="245"/>
      <point x="450" y="245" type="qcurve" smooth="yes"/>
      <point x="478" y="245"/>
      <point x="527" y="224"/>
      <point x="564" y="187"/>
      <point x="585" y="138"/>
      <point x="585" y="110" type="qcurve" smooth="yes"/>
      <point x="585" y="82"/>
      <point x="564" y="33"/>
      <point x="527" y="-4"/>
      <point x="478" y="-25"/>
      <point x="450" y="-25" type="qcurve" smooth="yes"/>
      <point x="422" y="-25"/>
      <point x="373" y="-4"/>
      <point x="336" y="33"/>
      <point x="315" y="82"/>
    </contour>
    <contour>
      <point x="460" y="1540" type="qcurve" smooth="yes"/>
      <point x="549" y="1540"/>
      <point x="687" y="1497"/>
      <point x="781" y="1419"/>
      <point x="830" y="1308"/>
      <point x="830" y="1240" type="qcurve" smooth="yes"/>
      <point x="830" y="1194"/>
      <point x="803" y="1113"/>
      <point x="758" y="1038"/>
      <point x="698" y="965"/>
      <point x="665" y="927" type="qcurve" smooth="yes"/>
      <point x="626" y="882"/>
      <point x="577" y="797"/>
      <point x="550" y="690"/>
      <point x="540" y="545"/>
      <point x="540" y="440" type="qcurve"/>
      <point x="355" y="440" type="line"/>
      <point x="355" y="549"/>
      <point x="371" y="713"/>
      <point x="403" y="840"/>
      <point x="452" y="938"/>
      <point x="485" y="980" type="qcurve" smooth="yes"/>
      <point x="518" y="1022"/>
      <point x="570" y="1091"/>
      <point x="606" y="1150"/>
      <point x="625" y="1203"/>
      <point x="625" y="1230" type="qcurve" smooth="yes"/>
      <point x="625" y="1252"/>
      <point x="606" y="1300"/>
      <point x="561" y="1339"/>
      <point x="487" y="1365"/>
      <point x="432" y="1365" type="qcurve" smooth="yes"/>
      <point x="372" y="1365"/>
      <point x="242" y="1311"/>
      <point x="185" y="1251" type="qcurve"/>
      <point x="140" y="1430" type="line"/>
      <point x="165" y="1454"/>
      <point x="236" y="1494"/>
      <point x="320" y="1523"/>
      <point x="413" y="1540"/>
    </contour>
    <contour>
      <point x="0" y="949" type="line"/>
      <point x="1050" y="949" type="line"/>
      <point x="1050" y="933" type="line"/>
      <point x="0" y="933" type="line"/>
    </contour>
    <contour>
      <point x="0" y="1470" type="line"/>
      <point x="1050" y="1470" type="line"/>
      <point x="1050" y="1441" type="line"/>
      <point x="0" y="1441" type="line"/>
    </contour>
    <contour>
      <point x="0" y="19" type="line"/>
      <point x="1050" y="19" type="line"/>
      <point x="1050" y="-10" type="line"/>
      <point x="0" y="-10" type="line"/>
    </contour>
    <contour>
      <point x="0" y="-454" type="line"/>
      <point x="1050" y="-454" type="line"/>
      <point x="1050" y="-483" type="line"/>
      <point x="0" y="-483" type="line"/>
    </contour>
  </outline>
</glyph>
<glyph name="at" format="1">
  <advance width="1702"/>
  <unicode hex="0040"/>
  <outline>
    <contour>
      <point x="850" y="905" type="qcurve" smooth="yes"/>
      <point x="824" y="905"/>
      <point x="771" y="893"/>
      <point x="720" y="864"/>
      <point x="671" y="816"/>
      <point x="650" y="780" type="qcurve" smooth="yes"/>
      <point x="628" y="743"/>
      <point x="605" y="633"/>
      <point x="605" y="575" type="qcurve" smooth="yes"/>
      <point x="605" y="509"/>
      <point x="629" y="412"/>
      <point x="670" y="350"/>
      <point x="721" y="320"/>
      <point x="748" y="320" type="qcurve" smooth="yes"/>
      <point x="770" y="320"/>
      <point x="825" y="360"/>
      <point x="881" y="426"/>
      <point x="936" y="511"/>
      <point x="982" y="599"/>
      <point x="1017" y="685"/>
      <point x="1025" y="720" type="qcurve"/>
      <point x="1025" y="870" type="line"/>
      <point x="1000" y="882"/>
      <point x="906" y="905"/>
    </contour>
    <contour>
      <point x="1605" y="700" type="qcurve" smooth="yes"/>
      <point x="1605" y="575"/>
      <point x="1543" y="382"/>
      <point x="1443" y="249"/>
      <point x="1316" y="180"/>
      <point x="1250" y="180" type="qcurve" smooth="yes"/>
      <point x="1204" y="180"/>
      <point x="1130" y="230"/>
      <point x="1076" y="314"/>
      <point x="1044" y="427"/>
      <point x="1040" y="490" type="qcurve"/>
      <point x="1020" y="443"/>
      <point x="953" y="336"/>
      <point x="871" y="244"/>
      <point x="779" y="183"/>
      <point x="735" y="183" type="qcurve" smooth="yes"/>
      <point x="685" y="183"/>
      <point x="585" y="225"/>
      <point x="505" y="311"/>
      <point x="455" y="441"/>
      <point x="455" y="530" type="qcurve" smooth="yes"/>
      <point x="455" y="623"/>
      <point x="495" y="775"/>
      <point x="530" y="835" type="qcurve" smooth="yes"/>
      <point x="592" y="937"/>
      <point x="757" y="1040"/>
      <point x="880" y="1040" type="qcurve" smooth="yes"/>
      <point x="910" y="1040"/>
      <point x="986" y="1031"/>
      <point x="1065" y="1015"/>
      <point x="1142" y="993"/>
      <point x="1175" y="980" type="qcurve"/>
      <point x="1175" y="630" type="line" smooth="yes"/>
      <point x="1175" y="547"/>
      <point x="1191" y="428"/>
      <point x="1220" y="352"/>
      <point x="1258" y="315"/>
      <point x="1280" y="315" type="qcurve" smooth="yes"/>
      <point x="1305" y="315"/>
      <point x="1370" y="359"/>
      <point x="1426" y="447"/>
      <point x="1465" y="581"/>
      <point x="1465" y="670" type="qcurve" smooth="yes"/>
      <point x="1465" y="794"/>
      <point x="1390" y="1013"/>
      <point x="1240" y="1176"/>
      <point x="1017" y="1270"/>
      <point x="870" y="1270" type="qcurve" smooth="yes"/>
      <point x="788" y="1270"/>
      <point x="631" y="1227"/>
      <point x="491" y="1145"/>
      <point x="373" y="1028"/>
      <point x="288" y="880"/>
      <point x="240" y="704"/>
      <point x="240" y="605" type="qcurve" smooth="yes"/>
      <point x="240" y="443"/>
      <point x="339" y="184"/>
      <point x="510" y="3"/>
      <point x="740" y="-95"/>
      <point x="870" y="-95" type="qcurve" smooth="yes"/>
      <point x="940" y="-95"/>
      <point x="1079" y="-55"/>
      <point x="1145" y="-10" type="qcurve"/>
      <point x="1250" y="-118" type="line"/>
      <point x="1212" y="-144"/>
      <point x="1118" y="-187"/>
      <point x="1014" y="-218"/>
      <point x="906" y="-235"/>
      <point x="855" y="-235" type="qcurve" smooth="yes"/>
      <point x="757" y="-235"/>
      <point x="569" y="-188"/>
      <point x="400" y="-96"/>
      <point x="257" y="41"/>
      <point x="153" y="221"/>
      <point x="95" y="443"/>
      <point x="95" y="575" type="qcurve" smooth="yes"/>
      <point x="95" y="713"/>
      <point x="154" y="943"/>
      <point x="259" y="1127"/>
      <point x="405" y="1266"/>
      <point x="579" y="1359"/>
      <point x="776" y="1405"/>
      <point x="880" y="1405" type="qcurve" smooth="yes"/>
      <point x="1040" y="1405"/>
      <point x="1307" y="1305"/>
      <point x="1499" y="1120"/>
      <point x="1605" y="860"/>
    </contour>
    <contour>
      <point x="0" y="949" type="line"/>
      <point x="1702" y="949" type="line"/>
      <point x="1702" y="933" type="line"/>
      <point x="0" y="933" type="line"/>
    </contour>
    <contour>
      <point x="0" y="1470" type="line"/>
      <point x="1702" y="1470" type="line"/>
      <point x="1702" y="1441" type="line"/>
      <point x="0" y="1441" type="line"/>
    </contour>
    <contour>
      <point x="0" y="19" type="line"/>
      <point x="1702" y="19" type="line"/>
      <point x="1702" y="-10" type="line"/>
      <point x="0" y="-10" type="line"/>
    </contour>
    <contour>
      <point x="0" y="-454" type="line"/>
      <point x="1702" y="-454" type="line"/>
      <point x="1702" y="-483" type="line"/>
      <point x="0" y="-483" type="line"/>
    </contour>
  </outline>
</glyph>
<glyph name="A" format="1">
  <advance width="1395"/>
  <unicode hex="0041"/>
  <outline>
    <contour>
      <point x="1395" y="1077" type="move" name="Anchor-4"/>
    </contour>
    <contour>
      <point x="1450" y="0" type="move" name="Anchor-3"/>
    </contour>
    <contour>
      <point x="707" y="0" type="move" name="Anchor-2"/>
    </contour>
    <contour>
      <point x="687" y="-100" type="move" name="Anchor-1"/>
    </contour>
    <contour>
      <point x="687" y="1530" type="move" name="Anchor-0"/>
    </contour>
    <contour>
      <point x="685" y="1265" type="line"/>
      <point x="433" y="540" type="line"/>
      <point x="940" y="540" type="line"/>
    </contour>
    <contour>
      <point x="40" y="0" type="line"/>
      <point x="53" y="30"/>
      <point x="81" y="96"/>
      <point x="114" y="179"/>
      <point x="154" y="285"/>
      <point x="180" y="355" type="qcurve" smooth="yes"/>
      <point x="580" y="1460" type="line"/>
      <point x="795" y="1460" type="line"/>
      <point x="1195" y="355" type="line" smooth="yes"/>
      <point x="1220" y="285"/>
      <point x="1260" y="179"/>
      <point x="1294" y="96"/>
      <point x="1322" y="30"/>
      <point x="1335" y="0" type="qcurve"/>
      <point x="1130" y="0" type="line"/>
      <point x="994" y="385" type="line"/>
      <point x="379" y="385" type="line"/>
      <point x="245" y="0" type="line"/>
    </contour>
    <contour>
      <point x="0" y="949" type="line"/>
      <point x="1395" y="949" type="line"/>
      <point x="1395" y="933" type="line"/>
      <point x="0" y="933" type="line"/>
    </contour>
    <contour>
      <point x="0" y="1470" type="line"/>
      <point x="1395" y="1470" type="line"/>
      <point x="1395" y="1441" type="line"/>
      <point x="0" y="1441" type="line"/>
    </contour>
    <contour>
      <point x="0" y="19" type="line"/>
      <point x="1395" y="19" type="line"/>
      <point x="1395" y="-10" type="line"/>
      <point x="0" y="-10" type="line"/>
    </contour>
    <contour>
      <point x="0" y="-454" type="line"/>
      <point x="1395" y="-454" type="line"/>
      <point x="1395" y="-483" type="line"/>
      <point x="0" y="-483" type="line"/>
    </contour>
  </outline>
</glyph>
<glyph name="B" format="1">
  <advance width="1285"/>
  <unicode hex="0042"/>
  <outline>
    <contour>
      <point x="1285" y="1077" type="move" name="Anchor-4"/>
    </contour>
    <contour>
      <point x="615" y="-100" type="move" name="Anchor-3"/>
    </contour>
    <contour>
      <point x="615" y="-100" type="move" name="Anchor-2"/>
    </contour>
    <contour>
      <point x="615" y="-100" type="move" name="Anchor-1"/>
    </contour>
    <contour>
      <point x="615" y="1530" type="move" name="Anchor-0"/>
    </contour>
    <contour>
      <point x="175" y="311" type="qcurve" smooth="yes"/>
      <point x="175" y="1143" type="line" smooth="yes"/>
      <point x="175" y="1213"/>
      <point x="172" y="1334"/>
      <point x="166" y="1430"/>
      <point x="160" y="1460" type="qcurve"/>
      <point x="193" y="1462"/>
      <point x="291" y="1466"/>
      <point x="408" y="1469"/>
      <point x="537" y="1470"/>
      <point x="600" y="1470" type="qcurve" smooth="yes"/>
      <point x="711" y="1470"/>
      <point x="885" y="1434"/>
      <point x="1003" y="1352"/>
      <point x="1065" y="1218"/>
      <point x="1065" y="1120" type="qcurve" smooth="yes"/>
      <point x="1065" y="1057"/>
      <point x="1027" y="956"/>
      <point x="960" y="877"/>
      <point x="871" y="819"/>
      <point x="820" y="800" type="qcurve"/>
      <point x="878" y="785"/>
      <point x="992" y="732"/>
      <point x="1083" y="644"/>
      <point x="1140" y="513"/>
      <point x="1140" y="420" type="qcurve" smooth="yes"/>
      <point x="1140" y="329"/>
      <point x="1081" y="172"/>
      <point x="952" y="56"/>
      <point x="749" y="-10"/>
      <point x="605" y="-10" type="qcurve" smooth="yes"/>
      <point x="529" y="-10"/>
      <point x="386" y="-8"/>
      <point x="267" y="-5"/>
      <point x="180" y="-2"/>
      <point x="160" y="0" type="qcurve"/>
      <point x="166" y="30"/>
      <point x="172" y="124"/>
      <point x="175" y="242"/>
    </contour>
    <contour>
      <point x="365" y="155" type="line"/>
      <point x="379" y="154"/>
      <point x="427" y="152"/>
      <point x="491" y="151"/>
      <point x="568" y="150"/>
      <point x="610" y="150" type="qcurve" smooth="yes"/>
      <point x="674" y="150"/>
      <point x="795" y="176"/>
      <point x="888" y="238"/>
      <point x="945" y="342"/>
      <point x="945" y="420" type="qcurve" smooth="yes"/>
      <point x="945" y="559"/>
      <point x="776" y="700"/>
      <point x="600" y="700" type="qcurve" smooth="yes"/>
      <point x="365" y="700" type="line"/>
    </contour>
    <contour>
      <point x="365" y="855" type="line"/>
      <point x="560" y="855" type="line" smooth="yes"/>
      <point x="640" y="855"/>
      <point x="757" y="889"/>
      <point x="833" y="951"/>
      <point x="870" y="1038"/>
      <point x="870" y="1090" type="qcurve" smooth="yes"/>
      <point x="870" y="1146"/>
      <point x="839" y="1230"/>
      <point x="772" y="1287"/>
      <point x="665" y="1315"/>
      <point x="590" y="1315" type="qcurve" smooth="yes"/>
      <point x="561" y="1315"/>
      <point x="495" y="1314"/>
      <point x="433" y="1312"/>
      <point x="381" y="1311"/>
      <point x="365" y="1310" type="qcurve"/>
    </contour>
    <contour>
      <point x="0" y="949" type="line"/>
      <point x="1285" y="949" type="line"/>
      <point x="1285" y="933" type="line"/>
      <point x="0" y="933" type="line"/>
    </contour>
    <contour>
      <point x="0" y="1470" type="line"/>
      <point x="1285" y="1470" type="line"/>
      <point x="1285" y="1441" type="line"/>
      <point x="0" y="1441" type="line"/>
    </contour>
    <contour>
      <point x="0" y="19" type="line"/>
      <point x="1285" y="19" type="line"/>
      <point x="1285" y="-10" type="line"/>
      <point x="0" y="-10" type="line"/>
    </contour>
    <contour>
      <point x="0" y="-454" type="line"/>
      <point x="1285" y="-454" type="line"/>
      <point x="1285" y="-483" type="line"/>
      <point x="0" y="-483" type="line"/>
    </contour>
  </outline>
</glyph>
<glyph name="E" format="1">
  <advance width="1160"/>
  <unicode hex="0045"/>
  <outline>
    <contour>
      <point x="1160" y="1200" type="move" name="Anchor-4"/>
    </contour>
    <contour>
      <point x="917" y="0" type="move" name="Anchor-3"/>
    </contour>
    <contour>
      <point x="600" y="0" type="move" name="Anchor-2"/>
    </contour>
    <contour>
      <point x="600" y="-100" type="move" name="Anchor-1"/>
    </contour>
    <contour>
      <point x="600" y="1530" type="move" name="Anchor-0"/>
    </contour>
    <contour>
      <point x="935" y="845" type="line"/>
      <point x="935" y="685" type="line"/>
      <point x="365" y="685" type="line"/>
      <point x="365" y="165" type="line"/>
      <point x="629" y="165" type="line" smooth="yes"/>
      <point x="778" y="165"/>
      <point x="980" y="169"/>
      <point x="1040" y="180" type="qcurve"/>
      <point x="1040" y="0" type="line"/>
      <point x="160" y="0" type="line"/>
      <point x="171" y="60"/>
      <point x="175" y="287"/>
      <point x="175" y="435" type="qcurve" smooth="yes"/>
      <point x="175" y="1025" type="line" smooth="yes"/>
      <point x="175" y="1173"/>
      <point x="171" y="1400"/>
      <point x="160" y="1460" type="qcurve"/>
      <point x="1010" y="1460" type="line"/>
      <point x="1010" y="1295" type="line"/>
      <point x="365" y="1295" type="line"/>
      <point x="365" y="845" type="line"/>
    </contour>
    <contour>
      <point x="0" y="949" type="line"/>
      <point x="1160" y="949" type="line"/>
      <point x="1160" y="933" type="line"/>
      <point x="0" y="933" type="line"/>
    </contour>
    <contour>
      <point x="0" y="1470" type="line"/>
      <point x="1160" y="1470" type="line"/>
      <point x="1160" y="1441" type="line"/>
      <point x="0" y="1441" type="line"/>
    </contour>
    <contour>
      <point x="0" y="19" type="line"/>
      <point x="1160" y="19" type="line"/>
      <point x="1160" y="-10" type="line"/>
      <point x="0" y="-10" type="line"/>
    </contour>
    <contour>
      <point x="0" y="-454" type="line"/>
      <point x="1160" y="-454" type="line"/>
      <point x="1160" y="-483" type="line"/>
      <point x="0" y="-483" type="line"/>
    </contour>
  </outline>
</glyph>
<glyph name="F" format="1">
  <advance width="1150"/>
  <unicode hex="0046"/>
  <outline>
    <contour>
      <point x="1150" y="1077" type="move" name="Anchor-4"/>
    </contour>
    <contour>
      <point x="595" y="-100" type="move" name="Anchor-3"/>
    </contour>
    <contour>
      <point x="595" y="-100" type="move" name="Anchor-2"/>
    </contour>
    <contour>
      <point x="595" y="-100" type="move" name="Anchor-1"/>
    </contour>
    <contour>
      <point x="595" y="1530" type="move" name="Anchor-0"/>
    </contour>
    <contour>
      <point x="945" y="835" type="line"/>
      <point x="945" y="675" type="line"/>
      <point x="365" y="675" type="line"/>
      <point x="365" y="435" type="line" smooth="yes"/>
      <point x="365" y="286"/>
      <point x="369" y="59"/>
      <point x="380" y="0" type="qcurve"/>
      <point x="160" y="0" type="line"/>
      <point x="171" y="60"/>
      <point x="175" y="287"/>
      <point x="175" y="435" type="qcurve" smooth="yes"/>
      <point x="175" y="1160" type="line" smooth="yes"/>
      <point x="175" y="1227"/>
      <point x="172" y="1340"/>
      <point x="166" y="1430"/>
      <point x="160" y="1460" type="qcurve"/>
      <point x="1030" y="1460" type="line"/>
      <point x="1030" y="1295" type="line"/>
      <point x="365" y="1295" type="line"/>
      <point x="365" y="835" type="line"/>
    </contour>
    <contour>
      <point x="0" y="949" type="line"/>
      <point x="1150" y="949" type="line"/>
      <point x="1150" y="933" type="line"/>
      <point x="0" y="933" type="line"/>
    </contour>
    <contour>
      <point x="0" y="1470" type="line"/>
      <point x="1150" y="1470" type="line"/>
      <point x="1150" y="1441" type="line"/>
      <point x="0" y="1441" type="line"/>
    </contour>
    <contour>
      <point x="0" y="19" type="line"/>
      <point x="1150" y="19" type="line"/>
      <point x="1150" y="-10" type="line"/>
      <point x="0" y="-10" type="line"/>
    </contour>
    <contour>
      <point x="0" y="-454" type="line"/>
      <point x="1150" y="-454" type="line"/>
      <point x="1150" y="-483" type="line"/>
      <point x="0" y="-483" type="line"/>
    </contour>
  </outline>
</glyph>
<glyph name="G" format="1">
  <advance width="1420"/>
  <unicode hex="0047"/>
  <outline>
    <contour>
      <point x="1420" y="1077" type="move" name="Anchor-4"/>
    </contour>
    <contour>
      <point x="745" y="-100" type="move" name="Anchor-3"/>
    </contour>
    <contour>
      <point x="745" y="0" type="move" name="Anchor-2"/>
    </contour>
    <contour>
      <point x="745" y="-100" type="move" name="Anchor-1"/>
    </contour>
    <contour>
      <point x="745" y="1530" type="move" name="Anchor-0"/>
    </contour>
    <contour>
      <point x="1275" y="155" type="line"/>
      <point x="1198" y="101"/>
      <point x="1062" y="31"/>
      <point x="934" y="-9"/>
      <point x="810" y="-25"/>
      <point x="745" y="-25" type="qcurve" smooth="yes"/>
      <point x="603" y="-25"/>
      <point x="365" y="73"/>
      <point x="192" y="263"/>
      <point x="95" y="540"/>
      <point x="95" y="720" type="qcurve" smooth="yes"/>
      <point x="95" y="900"/>
      <point x="203" y="1184"/>
      <point x="390" y="1381"/>
      <point x="641" y="1485"/>
      <point x="785" y="1485" type="qcurve" smooth="yes"/>
      <point x="846" y="1485"/>
      <point x="960" y="1474"/>
      <point x="1075" y="1444"/>
      <point x="1194" y="1389"/>
      <point x="1260" y="1345" type="qcurve"/>
      <point x="1195" y="1165" type="line"/>
      <point x="1139" y="1210"/>
      <point x="1034" y="1269"/>
      <point x="934" y="1302"/>
      <point x="835" y="1315"/>
      <point x="785" y="1315" type="qcurve" smooth="yes"/>
      <point x="671" y="1315"/>
      <point x="487" y="1235"/>
      <point x="359" y="1087"/>
      <point x="290" y="876"/>
      <point x="290" y="745" type="qcurve" smooth="yes"/>
      <point x="290" y="607"/>
      <point x="355" y="387"/>
      <point x="477" y="232"/>
      <point x="650" y="150"/>
      <point x="757" y="150" type="qcurve" smooth="yes"/>
      <point x="802" y="150"/>
      <point x="881" y="159"/>
      <point x="959" y="181"/>
      <point x="1039" y="217"/>
      <point x="1085" y="245" type="qcurve"/>
      <point x="1085" y="580" type="line"/>
      <point x="735" y="580" type="line"/>
      <point x="735" y="745" type="line"/>
      <point x="1275" y="745" type="line"/>
    </contour>
    <contour>
      <point x="0" y="949" type="line"/>
      <point x="1420" y="949" type="line"/>
      <point x="1420" y="933" type="line"/>
      <point x="0" y="933" type="line"/>
    </contour>
    <contour>
      <point x="0" y="1470" type="line"/>
      <point x="1420" y="1470" type="line"/>
      <point x="1420" y="1441" type="line"/>
      <point x="0" y="1441" type="line"/>
    </contour>
    <contour>
      <point x="0" y="19" type="line"/>
      <point x="1420" y="19" type="line"/>
      <point x="1420" y="-10" type="line"/>
      <point x="0" y="-10" type="line"/>
    </contour>
    <contour>
      <point x="0" y="-454" type="line"/>
      <point x="1420" y="-454" type="line"/>
      <point x="1420" y="-483" type="line"/>
      <point x="0" y="-483" type="line"/>
    </contour>
  </outline>
</glyph>
<glyph name="H" format="1">
  <advance width="1475"/>
  <unicode hex="0048"/>
  <outline>
    <contour>
      <point x="1475" y="1077" type="move" name="Anchor-4"/>
    </contour>
    <contour>
      <point x="725" y="-100" type="move" name="Anchor-3"/>
    </contour>
    <contour>
      <point x="285" y="0" type="move" name="Anchor-2"/>
    </contour>
    <contour>
      <point x="725" y="-100" type="move" name="Anchor-1"/>
    </contour>
    <contour>
      <point x="725" y="1530" type="move" name="Anchor-0"/>
    </contour>
    <contour>
      <point x="1085" y="0" type="line"/>
      <point x="1085" y="675" type="line"/>
      <point x="365" y="675" type="line"/>
      <point x="365" y="0" type="line"/>
      <point x="160" y="0" type="line"/>
      <point x="171" y="60"/>
      <point x="175" y="287"/>
      <point x="175" y="435" type="qcurve" smooth="yes"/>
      <point x="175" y="1025" type="line" smooth="yes"/>
      <point x="175" y="1173"/>
      <point x="171" y="1400"/>
      <point x="160" y="1460" type="qcurve"/>
      <point x="365" y="1460" type="line"/>
      <point x="365" y="835" type="line"/>
      <point x="1085" y="835" type="line"/>
      <point x="1085" y="1460" type="line"/>
      <point x="1290" y="1460" type="line"/>
      <point x="1279" y="1400"/>
      <point x="1275" y="1173"/>
      <point x="1275" y="1025" type="qcurve" smooth="yes"/>
      <point x="1275" y="435" type="line" smooth="yes"/>
      <point x="1275" y="287"/>
      <point x="1279" y="60"/>
      <point x="1290" y="0" type="qcurve"/>
    </contour>
    <contour>
      <point x="0" y="949" type="line"/>
      <point x="1475" y="949" type="line"/>
      <point x="1475" y="933" type="line"/>
      <point x="0" y="933" type="line"/>
    </contour>
    <contour>
      <point x="0" y="1470" type="line"/>
      <point x="1475" y="1470" type="line"/>
      <point x="1475" y="1441" type="line"/>
      <point x="0" y="1441" type="line"/>
    </contour>
    <contour>
      <point x="0" y="19" type="line"/>
      <point x="1475" y="19" type="line"/>
      <point x="1475" y="-10" type="line"/>
      <point x="0" y="-10" type="line"/>
    </contour>
    <contour>
      <point x="0" y="-454" type="line"/>
      <point x="1475" y="-454" type="line"/>
      <point x="1475" y="-483" type="line"/>
      <point x="0" y="-483" type="line"/>
    </contour>
  </outline>
</glyph>
<glyph name="I" format="1">
  <advance width="975"/>
  <unicode hex="0049"/>
  <outline>
    <contour>
      <point x="975" y="1200" type="move" name="Anchor-4"/>
    </contour>
    <contour>
      <point x="673" y="0" type="move" name="Anchor-3"/>
    </contour>
    <contour>
      <point x="477" y="0" type="move" name="Anchor-2"/>
    </contour>
    <contour>
      <point x="477" y="-100" type="move" name="Anchor-1"/>
    </contour>
    <contour>
      <point x="477" y="1530" type="move" name="Anchor-0"/>
    </contour>
    <contour>
      <point x="815" y="1460" type="line"/>
      <point x="815" y="1315" type="line"/>
      <point x="570" y="1315" type="line"/>
      <point x="570" y="145" type="line"/>
      <point x="815" y="145" type="line"/>
      <point x="815" y="0" type="line"/>
      <point x="140" y="0" type="line"/>
      <point x="140" y="145" type="line"/>
      <point x="380" y="145" type="line"/>
      <point x="380" y="1315" type="line"/>
      <point x="140" y="1315" type="line"/>
      <point x="140" y="1460" type="line"/>
    </contour>
    <contour>
      <point x="0" y="949" type="line"/>
      <point x="975" y="949" type="line"/>
      <point x="975" y="933" type="line"/>
      <point x="0" y="933" type="line"/>
    </contour>
    <contour>
      <point x="0" y="1470" type="line"/>
      <point x="975" y="1470" type="line"/>
      <point x="975" y="1441" type="line"/>
      <point x="0" y="1441" type="line"/>
    </contour>
    <contour>
      <point x="0" y="19" type="line"/>
      <point x="975" y="19" type="line"/>
      <point x="975" y="-10" type="line"/>
      <point x="0" y="-10" type="line"/>
    </contour>
    <contour>
      <point x="0" y="-454" type="line"/>
      <point x="975" y="-454" type="line"/>
      <point x="975" y="-483" type="line"/>
      <point x="0" y="-483" type="line"/>
    </contour>
  </outline>
</glyph>
<glyph name="L" format="1">
  <advance width="1080"/>
  <unicode hex="004C"/>
  <outline>
    <contour>
      <point x="540" y="1200" type="move" name="Anchor-4"/>
    </contour>
    <contour>
      <point x="592" y="-100" type="move" name="Anchor-3"/>
    </contour>
    <contour>
      <point x="592" y="0" type="move" name="Anchor-2"/>
    </contour>
    <contour>
      <point x="592" y="-100" type="move" name="Anchor-1"/>
    </contour>
    <contour>
      <point x="592" y="1530" type="move" name="Anchor-0"/>
    </contour>
    <contour>
      <point x="589" y="165" type="line" smooth="yes"/>
      <point x="663" y="165"/>
      <point x="795" y="166"/>
      <point x="907" y="169"/>
      <point x="995" y="175"/>
      <point x="1025" y="180" type="qcurve"/>
      <point x="1025" y="0" type="line"/>
      <point x="160" y="0" type="line"/>
      <point x="171" y="60"/>
      <point x="175" y="287"/>
      <point x="175" y="435" type="qcurve" smooth="yes"/>
      <point x="175" y="1025" type="line" smooth="yes"/>
      <point x="175" y="1173"/>
      <point x="171" y="1400"/>
      <point x="160" y="1460" type="qcurve"/>
      <point x="365" y="1460" type="line"/>
      <point x="365" y="165" type="line"/>
    </contour>
    <contour>
      <point x="0" y="949" type="line"/>
      <point x="1080" y="949" type="line"/>
      <point x="1080" y="933" type="line"/>
      <point x="0" y="933" type="line"/>
    </contour>
    <contour>
      <point x="0" y="1470" type="line"/>
      <point x="1080" y="1470" type="line"/>
      <point x="1080" y="1441" type="line"/>
      <point x="0" y="1441" type="line"/>
    </contour>
    <contour>
      <point x="0" y="19" type="line"/>
      <point x="1080" y="19" type="line"/>
      <point x="1080" y="-10" type="line"/>
      <point x="0" y="-10" type="line"/>
    </contour>
    <contour>
      <point x="0" y="-454" type="line"/>
      <point x="1080" y="-454" type="line"/>
      <point x="1080" y="-483" type="line"/>
      <point x="0" y="-483" type="line"/>
    </contour>
  </outline>
</glyph>
<glyph name="M" format="1">
  <advance width="1795"/>
  <unicode hex="004D"/>
  <outline>
    <contour>
      <point x="1795" y="1077" type="move" name="Anchor-4"/>
    </contour>
    <contour>
      <point x="885" y="-100" type="move" name="Anchor-3"/>
    </contour>
    <contour>
      <point x="1521" y="0" type="move" name="Anchor-2"/>
    </contour>
    <contour>
      <point x="885" y="-100" type="move" name="Anchor-1"/>
    </contour>
    <contour>
      <point x="885" y="1530" type="move" name="Anchor-0"/>
    </contour>
    <contour>
      <point x="455" y="1460" type="line"/>
      <point x="885" y="205" type="line"/>
      <point x="1320" y="1460" type="line"/>
      <point x="1540" y="1460" type="line"/>
      <point x="1552" y="1103"/>
      <point x="1564" y="804" type="qcurve" smooth="yes"/>
      <point x="1567" y="719"/>
      <point x="1575" y="548"/>
      <point x="1583" y="385"/>
      <point x="1591" y="238"/>
      <point x="1598" y="116"/>
      <point x="1606" y="25"/>
      <point x="1610" y="0" type="qcurve"/>
      <point x="1425" y="0" type="line"/>
      <point x="1397" y="1198" type="line"/>
      <point x="985" y="0" type="line"/>
      <point x="790" y="0" type="line"/>
      <point x="376" y="1195" type="line"/>
      <point x="345" y="0" type="line"/>
      <point x="160" y="0" type="line"/>
      <point x="163" y="25"/>
      <point x="171" y="116"/>
      <point x="178" y="238"/>
      <point x="186" y="385"/>
      <point x="194" y="548"/>
      <point x="201" y="719"/>
      <point x="205" y="804" type="qcurve" smooth="yes"/>
      <point x="217" y="1103"/>
      <point x="230" y="1460" type="qcurve"/>
    </contour>
    <contour>
      <point x="0" y="949" type="line"/>
      <point x="1795" y="949" type="line"/>
      <point x="1795" y="933" type="line"/>
      <point x="0" y="933" type="line"/>
    </contour>
    <contour>
      <point x="0" y="1470" type="line"/>
      <point x="1795" y="1470" type="line"/>
      <point x="1795" y="1441" type="line"/>
      <point x="0" y="1441" type="line"/>
    </contour>
    <contour>
      <point x="0" y="19" type="line"/>
      <point x="1795" y="19" type="line"/>
      <point x="1795" y="-10" type="line"/>
      <point x="0" y="-10" type="line"/>
    </contour>
    <contour>
      <point x="0" y="-454" type="line"/>
      <point x="1795" y="-454" type="line"/>
      <point x="1795" y="-483" type="line"/>
      <point x="0" y="-483" type="line"/>
    </contour>
  </outline>
</glyph>
<glyph name="O" format="1">
  <advance width="1460"/>
  <unicode hex="004F"/>
  <outline>
    <contour>
      <point x="1460" y="1200" type="move" name="Anchor-4"/>
    </contour>
    <contour>
      <point x="994" y="0" type="move" name="Anchor-3"/>
    </contour>
    <contour>
      <point x="717" y="0" type="move" name="Anchor-2"/>
    </contour>
    <contour>
      <point x="717" y="-100" type="move" name="Anchor-1"/>
    </contour>
    <contour>
      <point x="717" y="1530" type="move" name="Anchor-0"/>
    </contour>
    <contour>
      <point x="1340" y="740" type="qcurve" smooth="yes"/>
      <point x="1340" y="560"/>
      <point x="1233" y="276"/>
      <point x="1056" y="79"/>
      <point x="830" y="-25"/>
      <point x="710" y="-25" type="qcurve" smooth="yes"/>
      <point x="589" y="-25"/>
      <point x="367" y="73"/>
      <point x="197" y="263"/>
      <point x="95" y="540"/>
      <point x="95" y="720" type="qcurve" smooth="yes"/>
      <point x="95" y="840"/>
      <point x="144" y="1046"/>
      <point x="231" y="1216"/>
      <point x="351" y="1348"/>
      <point x="492" y="1438"/>
      <point x="649" y="1485"/>
      <point x="730" y="1485" type="qcurve" smooth="yes"/>
      <point x="849" y="1485"/>
      <point x="1070" y="1387"/>
      <point x="1239" y="1197"/>
      <point x="1340" y="920"/>
    </contour>
    <contour>
      <point x="1145" y="715" type="qcurve" smooth="yes"/>
      <point x="1145" y="853"/>
      <point x="1084" y="1074"/>
      <point x="972" y="1228"/>
      <point x="815" y="1310"/>
      <point x="720" y="1310" type="qcurve" smooth="yes"/>
      <point x="625" y="1310"/>
      <point x="467" y="1231"/>
      <point x="353" y="1084"/>
      <point x="290" y="875"/>
      <point x="290" y="745" type="qcurve" smooth="yes"/>
      <point x="290" y="608"/>
      <point x="351" y="388"/>
      <point x="464" y="233"/>
      <point x="622" y="150"/>
      <point x="720" y="150" type="qcurve" smooth="yes"/>
      <point x="812" y="150"/>
      <point x="968" y="227"/>
      <point x="1081" y="372"/>
      <point x="1145" y="582"/>
    </contour>
    <contour>
      <point x="0" y="949" type="line"/>
      <point x="1460" y="949" type="line"/>
      <point x="1460" y="933" type="line"/>
      <point x="0" y="933" type="line"/>
    </contour>
    <contour>
      <point x="0" y="1470" type="line"/>
      <point x="1460" y="1470" type="line"/>
      <point x="1460" y="1441" type="line"/>
      <point x="0" y="1441" type="line"/>
    </contour>
    <contour>
      <point x="0" y="19" type="line"/>
      <point x="1460" y="19" type="line"/>
      <point x="1460" y="-10" type="line"/>
      <point x="0" y="-10" type="line"/>
    </contour>
    <contour>
      <point x="0" y="-454" type="line"/>
      <point x="1460" y="-454" type="line"/>
      <point x="1460" y="-483" type="line"/>
      <point x="0" y="-483" type="line"/>
    </contour>
  </outline>
</glyph>
<glyph name="P" format="1">
  <advance width="1195"/>
  <unicode hex="0050"/>
  <outline>
    <contour>
      <point x="1195" y="1077" type="move" name="Anchor-4"/>
    </contour>
    <contour>
      <point x="637" y="-100" type="move" name="Anchor-3"/>
    </contour>
    <contour>
      <point x="637" y="-100" type="move" name="Anchor-2"/>
    </contour>
    <contour>
      <point x="637" y="-100" type="move" name="Anchor-1"/>
    </contour>
    <contour>
      <point x="637" y="1530" type="move" name="Anchor-0"/>
    </contour>
    <contour>
      <point x="365" y="435" type="line" smooth="yes"/>
      <point x="365" y="286"/>
      <point x="369" y="59"/>
      <point x="380" y="0" type="qcurve"/>
      <point x="160" y="0" type="line"/>
      <point x="171" y="60"/>
      <point x="175" y="287"/>
      <point x="175" y="435" type="qcurve" smooth="yes"/>
      <point x="175" y="1143" type="line" smooth="yes"/>
      <point x="175" y="1213"/>
      <point x="172" y="1334"/>
      <point x="166" y="1430"/>
      <point x="160" y="1460" type="qcurve"/>
      <point x="223" y="1462"/>
      <point x="293" y="1465" type="qcurve" smooth="yes"/>
      <point x="353" y="1467"/>
      <point x="504" y="1470"/>
      <point x="585" y="1470" type="qcurve" smooth="yes"/>
      <point x="706" y="1470"/>
      <point x="902" y="1415"/>
      <point x="1040" y="1304"/>
      <point x="1115" y="1139"/>
      <point x="1115" y="1030" type="qcurve" smooth="yes"/>
      <point x="1115" y="920"/>
      <point x="1042" y="744"/>
      <point x="905" y="621"/>
      <point x="708" y="555"/>
      <point x="585" y="555" type="qcurve" smooth="yes"/>
      <point x="530" y="555"/>
      <point x="414" y="560"/>
      <point x="365" y="565" type="qcurve"/>
    </contour>
    <contour>
      <point x="365" y="720" type="line"/>
      <point x="413" y="714"/>
      <point x="513" y="710"/>
      <point x="570" y="710" type="qcurve" smooth="yes"/>
      <point x="675" y="710"/>
      <point x="812" y="758"/>
      <point x="893" y="841"/>
      <point x="925" y="950"/>
      <point x="925" y="1010" type="qcurve" smooth="yes"/>
      <point x="925" y="1070"/>
      <point x="890" y="1179"/>
      <point x="809" y="1261"/>
      <point x="675" y="1310"/>
      <point x="575" y="1310" type="qcurve" smooth="yes"/>
      <point x="540" y="1310"/>
      <point x="484" y="1309"/>
      <point x="436" y="1308"/>
      <point x="390" y="1306"/>
      <point x="365" y="1305" type="qcurve"/>
    </contour>
    <contour>
      <point x="0" y="949" type="line"/>
      <point x="1195" y="949" type="line"/>
      <point x="1195" y="933" type="line"/>
      <point x="0" y="933" type="line"/>
    </contour>
    <contour>
      <point x="0" y="1470" type="line"/>
      <point x="1195" y="1470" type="line"/>
      <point x="1195" y="1441" type="line"/>
      <point x="0" y="1441" type="line"/>
    </contour>
    <contour>
      <point x="0" y="19" type="line"/>
      <point x="1195" y="19" type="line"/>
      <point x="1195" y="-10" type="line"/>
      <point x="0" y="-10" type="line"/>
    </contour>
    <contour>
      <point x="0" y="-454" type="line"/>
      <point x="1195" y="-454" type="line"/>
      <point x="1195" y="-483" type="line"/>
      <point x="0" y="-483" type="line"/>
    </contour>
  </outline>
</glyph>
<glyph name="Q" format="1">
  <advance width="1475"/>
  <unicode hex="0051"/>
  <outline>
    <contour>
      <point x="1475" y="1077" type="move" name="Anchor-4"/>
    </contour>
    <contour>
      <point x="717" y="-270" type="move" name="Anchor-3"/>
    </contour>
    <contour>
      <point x="717" y="-270" type="move" name="Anchor-2"/>
    </contour>
    <contour>
      <point x="717" y="-270" type="move" name="Anchor-1"/>
    </contour>
    <contour>
      <point x="717" y="1530" type="move" name="Anchor-0"/>
    </contour>
    <contour>
      <point x="1145" y="715" type="qcurve" smooth="yes"/>
      <point x="1145" y="853"/>
      <point x="1084" y="1074"/>
      <point x="972" y="1228"/>
      <point x="815" y="1310"/>
      <point x="720" y="1310" type="qcurve" smooth="yes"/>
      <point x="625" y="1310"/>
      <point x="467" y="1231"/>
      <point x="353" y="1084"/>
      <point x="290" y="875"/>
      <point x="290" y="745" type="qcurve" smooth="yes"/>
      <point x="290" y="608"/>
      <point x="351" y="388"/>
      <point x="464" y="233"/>
      <point x="622" y="150"/>
      <point x="720" y="150" type="qcurve" smooth="yes"/>
      <point x="812" y="150"/>
      <point x="968" y="227"/>
      <point x="1081" y="372"/>
      <point x="1145" y="582"/>
    </contour>
    <contour>
      <point x="1340" y="740" type="qcurve" smooth="yes"/>
      <point x="1340" y="642"/>
      <point x="1308" y="456"/>
      <point x="1244" y="291"/>
      <point x="1146" y="154"/>
      <point x="1080" y="105" type="qcurve"/>
      <point x="1174" y="47"/>
      <point x="1354" y="-32"/>
      <point x="1455" y="-45" type="qcurve"/>
      <point x="1446" y="-59"/>
      <point x="1417" y="-107"/>
      <point x="1381" y="-155"/>
      <point x="1340" y="-190"/>
      <point x="1320" y="-190" type="qcurve" smooth="yes"/>
      <point x="1299" y="-190"/>
      <point x="1226" y="-162"/>
      <point x="1139" y="-120"/>
      <point x="1045" y="-70"/>
      <point x="960" y="-28"/>
      <point x="892" y="0"/>
      <point x="875" y="0" type="qcurve"/>
      <point x="832" y="-14"/>
      <point x="752" y="-25"/>
      <point x="705" y="-25" type="qcurve" smooth="yes"/>
      <point x="584" y="-25"/>
      <point x="363" y="73"/>
      <point x="195" y="263"/>
      <point x="95" y="540"/>
      <point x="95" y="720" type="qcurve" smooth="yes"/>
      <point x="95" y="840"/>
      <point x="144" y="1046"/>
      <point x="231" y="1216"/>
      <point x="351" y="1348"/>
      <point x="492" y="1438"/>
      <point x="649" y="1485"/>
      <point x="730" y="1485" type="qcurve" smooth="yes"/>
      <point x="851" y="1485"/>
      <point x="1072" y="1387"/>
      <point x="1240" y="1197"/>
      <point x="1340" y="920"/>
    </contour>
    <contour>
      <point x="0" y="949" type="line"/>
      <point x="1475" y="949" type="line"/>
      <point x="1475" y="933" type="line"/>
      <point x="0" y="933" type="line"/>
    </contour>
    <contour>
      <point x="0" y="1470" type="line"/>
      <point x="1475" y="1470" type="line"/>
      <point x="1475" y="1441" type="line"/>
      <point x="0" y="1441" type="line"/>
    </contour>
    <contour>
      <point x="0" y="19" type="line"/>
      <point x="1475" y="19" type="line"/>
      <point x="1475" y="-10" type="line"/>
      <point x="0" y="-10" type="line"/>
    </contour>
    <contour>
      <point x="0" y="-454" type="line"/>
      <point x="1475" y="-454" type="line"/>
      <point x="1475" y="-483" type="line"/>
      <point x="0" y="-483" type="line"/>
    </contour>
  </outline>
</glyph>
<glyph name="R" format="1">
  <advance width="1305"/>
  <unicode hex="0052"/>
  <outline>
    <contour>
      <point x="1305" y="1077" type="move" name="Anchor-4"/>
    </contour>
    <contour>
      <point x="610" y="-100" type="move" name="Anchor-3"/>
    </contour>
    <contour>
      <point x="285" y="0" type="move" name="Anchor-2"/>
    </contour>
    <contour>
      <point x="610" y="-100" type="move" name="Anchor-1"/>
    </contour>
    <contour>
      <point x="610" y="1530" type="move" name="Anchor-0"/>
    </contour>
    <contour>
      <point x="365" y="435" type="line" smooth="yes"/>
      <point x="365" y="361"/>
      <point x="366" y="229"/>
      <point x="369" y="117"/>
      <point x="375" y="29"/>
      <point x="380" y="0" type="qcurve"/>
      <point x="160" y="0" type="line"/>
      <point x="171" y="60"/>
      <point x="175" y="287"/>
      <point x="175" y="435" type="qcurve" smooth="yes"/>
      <point x="175" y="1143" type="line" smooth="yes"/>
      <point x="175" y="1213"/>
      <point x="172" y="1334"/>
      <point x="166" y="1430"/>
      <point x="160" y="1460" type="qcurve"/>
      <point x="212" y="1462"/>
      <point x="275" y="1465" type="qcurve" smooth="yes"/>
      <point x="329" y="1467"/>
      <point x="477" y="1470"/>
      <point x="565" y="1470" type="qcurve" smooth="yes"/>
      <point x="682" y="1470"/>
      <point x="875" y="1423"/>
      <point x="1013" y="1324"/>
      <point x="1090" y="1168"/>
      <point x="1090" y="1060" type="qcurve" smooth="yes"/>
      <point x="1090" y="969"/>
      <point x="1033" y="829"/>
      <point x="940" y="728"/>
      <point x="822" y="662"/>
      <point x="761" y="645" type="qcurve"/>
      <point x="791" y="604"/>
      <point x="878" y="485"/>
      <point x="977" y="352"/>
      <point x="1078" y="215"/>
      <point x="1166" y="99"/>
      <point x="1232" y="15"/>
      <point x="1245" y="0" type="qcurve"/>
      <point x="990" y="0" type="line"/>
      <point x="568" y="625" type="line"/>
      <point x="365" y="625" type="line"/>
    </contour>
    <contour>
      <point x="365" y="780" type="line"/>
      <point x="555" y="780" type="line" smooth="yes"/>
      <point x="725" y="780"/>
      <point x="900" y="920"/>
      <point x="900" y="1045" type="qcurve" smooth="yes"/>
      <point x="900" y="1109"/>
      <point x="861" y="1208"/>
      <point x="778" y="1275"/>
      <point x="647" y="1310"/>
      <point x="555" y="1310" type="qcurve" smooth="yes"/>
      <point x="502" y="1310"/>
      <point x="405" y="1307"/>
      <point x="365" y="1305" type="qcurve"/>
    </contour>
    <contour>
      <point x="0" y="949" type="line"/>
      <point x="1305" y="949" type="line"/>
      <point x="1305" y="933" type="line"/>
      <point x="0" y="933" type="line"/>
    </contour>
    <contour>
      <point x="0" y="1470" type="line"/>
      <point x="1305" y="1470" type="line"/>
      <point x="1305" y="1441" type="line"/>
      <point x="0" y="1441" type="line"/>
    </contour>
    <contour>
      <point x="0" y="19" type="line"/>
      <point x="1305" y="19" type="line"/>
      <point x="1305" y="-10" type="line"/>
      <point x="0" y="-10" type="line"/>
    </contour>
    <contour>
      <point x="0" y="-454" type="line"/>
      <point x="1305" y="-454" type="line"/>
      <point x="1305" y="-483" type="line"/>
      <point x="0" y="-483" type="line"/>
    </contour>
  </outline>
</glyph>
<glyph name="U" format="1">
  <advance width="1440"/>
  <unicode hex="0055"/>
  <outline>
    <contour>
      <point x="1400" y="1200" type="move" name="Anchor-4"/>
    </contour>
    <contour>
      <point x="1026" y="-2" type="move" name="Anchor-3"/>
    </contour>
    <contour>
      <point x="707" y="-2" type="move" name="Anchor-2"/>
    </contour>
    <contour>
      <point x="707" y="-102" type="move" name="Anchor-1"/>
    </contour>
    <contour>
      <point x="707" y="1530" type="move" name="Anchor-0"/>
    </contour>
    <contour>
      <point x="1255" y="1460" type="line"/>
      <point x="1245" y="1400"/>
      <point x="1240" y="1181"/>
      <point x="1240" y="1025" type="qcurve" smooth="yes"/>
      <point x="1240" y="515" type="line" smooth="yes"/>
      <point x="1240" y="393"/>
      <point x="1176" y="194"/>
      <point x="1045" y="52"/>
      <point x="845" y="-25"/>
      <point x="710" y="-25" type="qcurve" smooth="yes"/>
      <point x="573" y="-25"/>
      <point x="372" y="52"/>
      <point x="240" y="194"/>
      <point x="175" y="393"/>
      <point x="175" y="515" type="qcurve" smooth="yes"/>
      <point x="175" y="1025" type="line" smooth="yes"/>
      <point x="175" y="1173"/>
      <point x="170" y="1400"/>
      <point x="160" y="1460" type="qcurve"/>
      <point x="365" y="1460" type="line"/>
      <point x="365" y="560" type="line" smooth="yes"/>
      <point x="365" y="462"/>
      <point x="399" y="305"/>
      <point x="479" y="194"/>
      <point x="611" y="135"/>
      <point x="710" y="135" type="qcurve" smooth="yes"/>
      <point x="807" y="135"/>
      <point x="937" y="194"/>
      <point x="1016" y="305"/>
      <point x="1050" y="462"/>
      <point x="1050" y="560" type="qcurve" smooth="yes"/>
      <point x="1050" y="1460" type="line"/>
    </contour>
    <contour>
      <point x="0" y="949" type="line"/>
      <point x="1440" y="949" type="line"/>
      <point x="1440" y="933" type="line"/>
      <point x="0" y="933" type="line"/>
    </contour>
    <contour>
      <point x="0" y="1470" type="line"/>
      <point x="1440" y="1470" type="line"/>
      <point x="1440" y="1441" type="line"/>
      <point x="0" y="1441" type="line"/>
    </contour>
    <contour>
      <point x="0" y="19" type="line"/>
      <point x="1440" y="19" type="line"/>
      <point x="1440" y="-10" type="line"/>
      <point x="0" y="-10" type="line"/>
    </contour>
    <contour>
      <point x="0" y="-454" type="line"/>
      <point x="1440" y="-454" type="line"/>
      <point x="1440" y="-483" type="line"/>
      <point x="0" y="-483" type="line"/>
    </contour>
  </outline>
</glyph>
<glyph name="V" format="1">
  <advance width="1365"/>
  <unicode hex="0056"/>
  <outline>
    <contour>
      <point x="1365" y="1077" type="move" name="Anchor-4"/>
    </contour>
    <contour>
      <point x="880" y="0" type="move" name="Anchor-3"/>
    </contour>
    <contour>
      <point x="680" y="0" type="move" name="Anchor-2"/>
    </contour>
    <contour>
      <point x="672" y="-100" type="move" name="Anchor-1"/>
    </contour>
    <contour>
      <point x="672" y="1530" type="move" name="Anchor-0"/>
    </contour>
    <contour>
      <point x="1310" y="1460" type="line"/>
      <point x="1296" y="1429"/>
      <point x="1268" y="1362"/>
      <point x="1235" y="1277"/>
      <point x="1195" y="1168"/>
      <point x="1170" y="1095" type="qcurve" smooth="yes"/>
      <point x="785" y="0" type="line"/>
      <point x="560" y="0" type="line"/>
      <point x="170" y="1095" type="line" smooth="yes"/>
      <point x="144" y="1167"/>
      <point x="105" y="1276"/>
      <point x="73" y="1362"/>
      <point x="47" y="1429"/>
      <point x="35" y="1460" type="qcurve"/>
      <point x="250" y="1460" type="line"/>
      <point x="672" y="195" type="line"/>
      <point x="1095" y="1460" type="line"/>
    </contour>
    <contour>
      <point x="0" y="949" type="line"/>
      <point x="1365" y="949" type="line"/>
      <point x="1365" y="933" type="line"/>
      <point x="0" y="933" type="line"/>
    </contour>
    <contour>
      <point x="0" y="1470" type="line"/>
      <point x="1365" y="1470" type="line"/>
      <point x="1365" y="1441" type="line"/>
      <point x="0" y="1441" type="line"/>
    </contour>
    <contour>
      <point x="0" y="19" type="line"/>
      <point x="1365" y="19" type="line"/>
      <point x="1365" y="-10" type="line"/>
      <point x="0" y="-10" type="line"/>
    </contour>
    <contour>
      <point x="0" y="-454" type="line"/>
      <point x="1365" y="-454" type="line"/>
      <point x="1365" y="-483" type="line"/>
      <point x="0" y="-483" type="line"/>
    </contour>
  </outline>
</glyph>
<glyph name="W" format="1">
  <advance width="2080"/>
  <unicode hex="0057"/>
  <outline>
    <contour>
      <point x="2080" y="1077" type="move" name="Anchor-4"/>
    </contour>
    <contour>
      <point x="1027" y="-100" type="move" name="Anchor-3"/>
    </contour>
    <contour>
      <point x="1027" y="-100" type="move" name="Anchor-2"/>
    </contour>
    <contour>
      <point x="1027" y="-100" type="move" name="Anchor-1"/>
    </contour>
    <contour>
      <point x="1027" y="1530" type="move" name="Anchor-0"/>
    </contour>
    <contour>
      <point x="1484" y="186" type="line"/>
      <point x="1795" y="1460" type="line"/>
      <point x="2015" y="1460" type="line"/>
      <point x="2003" y="1429"/>
      <point x="1979" y="1362"/>
      <point x="1952" y="1277"/>
      <point x="1920" y="1168"/>
      <point x="1900" y="1095" type="qcurve" smooth="yes"/>
      <point x="1595" y="0" type="line"/>
      <point x="1370" y="0" type="line"/>
      <point x="1027" y="1176" type="line"/>
      <point x="685" y="0" type="line"/>
      <point x="460" y="0" type="line"/>
      <point x="155" y="1095" type="line" smooth="yes"/>
      <point x="135" y="1167"/>
      <point x="103" y="1276"/>
      <point x="76" y="1363"/>
      <point x="52" y="1430"/>
      <point x="40" y="1460" type="qcurve"/>
      <point x="260" y="1460" type="line"/>
      <point x="576" y="186" type="line"/>
      <point x="935" y="1460" type="line"/>
      <point x="1120" y="1460" type="line"/>
    </contour>
    <contour>
      <point x="0" y="949" type="line"/>
      <point x="2080" y="949" type="line"/>
      <point x="2080" y="933" type="line"/>
      <point x="0" y="933" type="line"/>
    </contour>
    <contour>
      <point x="0" y="1470" type="line"/>
      <point x="2080" y="1470" type="line"/>
      <point x="2080" y="1441" type="line"/>
      <point x="0" y="1441" type="line"/>
    </contour>
    <contour>
      <point x="0" y="19" type="line"/>
      <point x="2080" y="19" type="line"/>
      <point x="2080" y="-10" type="line"/>
      <point x="0" y="-10" type="line"/>
    </contour>
    <contour>
      <point x="0" y="-454" type="line"/>
      <point x="2080" y="-454" type="line"/>
      <point x="2080" y="-483" type="line"/>
      <point x="0" y="-483" type="line"/>
    </contour>
  </outline>
</glyph>
<glyph name="Y" format="1">
  <advance width="1320"/>
  <unicode hex="0059"/>
  <outline>
    <contour>
      <point x="1320" y="1077" type="move" name="Anchor-4"/>
    </contour>
    <contour>
      <point x="650" y="-100" type="move" name="Anchor-3"/>
    </contour>
    <contour>
      <point x="650" y="-100" type="move" name="Anchor-2"/>
    </contour>
    <contour>
      <point x="650" y="-100" type="move" name="Anchor-1"/>
    </contour>
    <contour>
      <point x="650" y="1530" type="move" name="Anchor-0"/>
    </contour>
    <contour>
      <point x="265" y="1460" type="line"/>
      <point x="660" y="799" type="line"/>
      <point x="1035" y="1460" type="line"/>
      <point x="1265" y="1460" type="line"/>
      <point x="1221" y="1397"/>
      <point x="1153" y="1294"/>
      <point x="1096" y="1202"/>
      <point x="1043" y="1114"/>
      <point x="1015" y="1065" type="qcurve" smooth="yes"/>
      <point x="745" y="603" type="line"/>
      <point x="745" y="435" type="line" smooth="yes"/>
      <point x="745" y="287"/>
      <point x="749" y="60"/>
      <point x="760" y="0" type="qcurve"/>
      <point x="540" y="0" type="line"/>
      <point x="551" y="60"/>
      <point x="555" y="287"/>
      <point x="555" y="435" type="qcurve" smooth="yes"/>
      <point x="555" y="611" type="line"/>
      <point x="290" y="1065" type="line" smooth="yes"/>
      <point x="261" y="1114"/>
      <point x="206" y="1208"/>
      <point x="146" y="1304"/>
      <point x="77" y="1404"/>
      <point x="35" y="1460" type="qcurve"/>
    </contour>
    <contour>
      <point x="0" y="949" type="line"/>
      <point x="1320" y="949" type="line"/>
      <point x="1320" y="933" type="line"/>
      <point x="0" y="933" type="line"/>
    </contour>
    <contour>
      <point x="0" y="1470" type="line"/>
      <point x="1320" y="1470" type="line"/>
      <point x="1320" y="1441" type="line"/>
      <point x="0" y="1441" type="line"/>
    </contour>
    <contour>
      <point x="0" y="19" type="line"/>
      <point x="1320" y="19" type="line"/>
      <point x="1320" y="-10" type="line"/>
      <point x="0" y="-10" type="line"/>
    </contour>
    <contour>
      <point x="0" y="-454" type="line"/>
      <point x="1320" y="-454" type="line"/>
      <point x="1320" y="-483" type="line"/>
      <point x="0" y="-483" type="line"/>
    </contour>
  </outline>
</glyph>
<glyph name="Z" format="1">
  <advance width="1230"/>
  <unicode hex="005A"/>
  <outline>
    <contour>
      <point x="1230" y="1077" type="move" name="Anchor-4"/>
    </contour>
    <contour>
      <point x="605" y="-100" type="move" name="Anchor-3"/>
    </contour>
    <contour>
      <point x="605" y="-100" type="move" name="Anchor-2"/>
    </contour>
    <contour>
      <point x="605" y="-100" type="move" name="Anchor-1"/>
    </contour>
    <contour>
      <point x="605" y="1530" type="move" name="Anchor-0"/>
    </contour>
    <contour>
      <point x="1105" y="1330" type="line"/>
      <point x="310" y="165" type="line"/>
      <point x="700" y="165" type="line" smooth="yes"/>
      <point x="847" y="165"/>
      <point x="1075" y="174"/>
      <point x="1135" y="185" type="qcurve"/>
      <point x="1135" y="0" type="line"/>
      <point x="75" y="0" type="line"/>
      <point x="75" y="125" type="line"/>
      <point x="870" y="1295" type="line"/>
      <point x="530" y="1295" type="line" smooth="yes"/>
      <point x="456" y="1295"/>
      <point x="337" y="1294"/>
      <point x="241" y="1289"/>
      <point x="165" y="1281"/>
      <point x="135" y="1275" type="qcurve"/>
      <point x="135" y="1460" type="line"/>
      <point x="1105" y="1460" type="line"/>
    </contour>
    <contour>
      <point x="0" y="949" type="line"/>
      <point x="1230" y="949" type="line"/>
      <point x="1230" y="933" type="line"/>
      <point x="0" y="933" type="line"/>
    </contour>
    <contour>
      <point x="0" y="1470" type="line"/>
      <point x="1230" y="1470" type="line"/>
      <point x="1230" y="1441" type="line"/>
      <point x="0" y="1441" type="line"/>
    </contour>
    <contour>
      <point x="0" y="19" type="line"/>
      <point x="1230" y="19" type="line"/>
      <point x="1230" y="-10" type="line"/>
      <point x="0" y="-10" type="line"/>
    </contour>
    <contour>
      <point x="0" y="-454" type="line"/>
      <point x="1230" y="-454" type="line"/>
      <point x="1230" y="-483" type="line"/>
      <point x="0" y="-483" type="line"/>
    </contour>
  </outline>
</glyph>
<glyph name="bracketleft" format="1">
  <advance width="790"/>
  <unicode hex="005B"/>
  <outline>
    <contour>
      <point x="200" y="-410" type="line"/>
      <point x="200" y="1600" type="line"/>
      <point x="640" y="1600" type="line"/>
      <point x="640" y="1450" type="line"/>
      <point x="385" y="1450" type="line"/>
      <point x="385" y="-260" type="line"/>
      <point x="640" y="-260" type="line"/>
      <point x="640" y="-410" type="line"/>
    </contour>
    <contour>
      <point x="0" y="949" type="line"/>
      <point x="790" y="949" type="line"/>
      <point x="790" y="933" type="line"/>
      <point x="0" y="933" type="line"/>
    </contour>
    <contour>
      <point x="0" y="1470" type="line"/>
      <point x="790" y="1470" type="line"/>
      <point x="790" y="1441" type="line"/>
      <point x="0" y="1441" type="line"/>
    </contour>
    <contour>
      <point x="0" y="19" type="line"/>
      <point x="790" y="19" type="line"/>
      <point x="790" y="-10" type="line"/>
      <point x="0" y="-10" type="line"/>
    </contour>
    <contour>
      <point x="0" y="-454" type="line"/>
      <point x="790" y="-454" type="line"/>
      <point x="790" y="-483" type="line"/>
      <point x="0" y="-483" type="line"/>
    </contour>
  </outline>
</glyph>
<glyph name="bracketright" format="1">
  <advance width="790"/>
  <unicode hex="005D"/>
  <outline>
    <contour>
      <point x="150" y="-410" type="line"/>
      <point x="150" y="-260" type="line"/>
      <point x="405" y="-260" type="line"/>
      <point x="405" y="1450" type="line"/>
      <point x="150" y="1450" type="line"/>
      <point x="150" y="1600" type="line"/>
      <point x="590" y="1600" type="line"/>
      <point x="590" y="-410" type="line"/>
    </contour>
    <contour>
      <point x="0" y="949" type="line"/>
      <point x="790" y="949" type="line"/>
      <point x="790" y="933" type="line"/>
      <point x="0" y="933" type="line"/>
    </contour>
    <contour>
      <point x="0" y="1470" type="line"/>
      <point x="790" y="1470" type="line"/>
      <point x="790" y="1441" type="line"/>
      <point x="0" y="1441" type="line"/>
    </contour>
    <contour>
      <point x="0" y="19" type="line"/>
      <point x="790" y="19" type="line"/>
      <point x="790" y="-10" type="line"/>
      <point x="0" y="-10" type="line"/>
    </contour>
    <contour>
      <point x="0" y="-454" type="line"/>
      <point x="790" y="-454" type="line"/>
      <point x="790" y="-483" type="line"/>
      <point x="0" y="-483" type="line"/>
    </contour>
  </outline>
</glyph>
<glyph name="asciicircum" format="1">
  <advance width="850"/>
  <unicode hex="005E"/>
  <outline>
    <contour>
      <point x="0" y="949" type="line"/>
      <point x="850" y="949" type="line"/>
      <point x="850" y="933" type="line"/>
      <point x="0" y="933" type="line"/>
    </contour>
    <contour>
      <point x="0" y="1470" type="line"/>
      <point x="850" y="1470" type="line"/>
      <point x="850" y="1441" type="line"/>
      <point x="0" y="1441" type="line"/>
    </contour>
    <contour>
      <point x="0" y="19" type="line"/>
      <point x="850" y="19" type="line"/>
      <point x="850" y="-10" type="line"/>
      <point x="0" y="-10" type="line"/>
    </contour>
    <contour>
      <point x="0" y="-454" type="line"/>
      <point x="850" y="-454" type="line"/>
      <point x="850" y="-483" type="line"/>
      <point x="0" y="-483" type="line"/>
    </contour>
    <component base="uni0302" xOffset="995"/>
  </outline>
</glyph>
<glyph name="underscore" format="1">
  <advance width="1274"/>
  <unicode hex="005F"/>
  <outline>
    <contour>
      <point x="0" y="-170" type="line"/>
      <point x="1274" y="-170" type="line"/>
      <point x="1274" y="-320" type="line"/>
      <point x="0" y="-320" type="line"/>
    </contour>
    <contour>
      <point x="0" y="949" type="line"/>
      <point x="1274" y="949" type="line"/>
      <point x="1274" y="933" type="line"/>
      <point x="0" y="933" type="line"/>
    </contour>
    <contour>
      <point x="0" y="1470" type="line"/>
      <point x="1274" y="1470" type="line"/>
      <point x="1274" y="1441" type="line"/>
      <point x="0" y="1441" type="line"/>
    </contour>
    <contour>
      <point x="0" y="19" type="line"/>
      <point x="1274" y="19" type="line"/>
      <point x="1274" y="-10" type="line"/>
      <point x="0" y="-10" type="line"/>
    </contour>
    <contour>
      <point x="0" y="-454" type="line"/>
      <point x="1274" y="-454" type="line"/>
      <point x="1274" y="-483" type="line"/>
      <point x="0" y="-483" type="line"/>
    </contour>
  </outline>
</glyph>
<glyph name="grave" format="1">
  <advance width="580"/>
  <unicode hex="0060"/>
  <outline>
    <contour>
      <point x="0" y="949" type="line"/>
      <point x="580" y="949" type="line"/>
      <point x="580" y="933" type="line"/>
      <point x="0" y="933" type="line"/>
    </contour>
    <contour>
      <point x="0" y="1470" type="line"/>
      <point x="580" y="1470" type="line"/>
      <point x="580" y="1441" type="line"/>
      <point x="0" y="1441" type="line"/>
    </contour>
    <contour>
      <point x="0" y="19" type="line"/>
      <point x="580" y="19" type="line"/>
      <point x="580" y="-10" type="line"/>
      <point x="0" y="-10" type="line"/>
    </contour>
    <contour>
      <point x="0" y="-454" type="line"/>
      <point x="580" y="-454" type="line"/>
      <point x="580" y="-483" type="line"/>
      <point x="0" y="-483" type="line"/>
    </contour>
    <component base="gravecomb" xOffset="940"/>
  </outline>
</glyph>
<glyph name="b" format="1">
  <advance width="1155"/>
  <unicode hex="0062"/>
  <outline>
    <contour>
      <point x="1155" y="1000" type="move" name="Anchor-4"/>
    </contour>
    <contour>
      <point x="590" y="-100" type="move" name="Anchor-3"/>
    </contour>
    <contour>
      <point x="590" y="0" type="move" name="Anchor-2"/>
    </contour>
    <contour>
      <point x="590" y="-100" type="move" name="Anchor-1"/>
    </contour>
    <contour>
      <point x="590" y="1635" type="move" name="Anchor-0"/>
    </contour>
    <contour>
      <point x="330" y="1470" type="line"/>
      <point x="330" y="825" type="line"/>
      <point x="365" y="871"/>
      <point x="447" y="949"/>
      <point x="542" y="1007"/>
      <point x="652" y="1040"/>
      <point x="715" y="1040" type="qcurve" smooth="yes"/>
      <point x="791" y="1040"/>
      <point x="917" y="966"/>
      <point x="1009" y="833"/>
      <point x="1060" y="649"/>
      <point x="1060" y="540" type="qcurve" smooth="yes"/>
      <point x="1060" y="411"/>
      <point x="991" y="203"/>
      <point x="865" y="55"/>
      <point x="686" y="-25"/>
      <point x="575" y="-25" type="qcurve" smooth="yes"/>
      <point x="514" y="-25"/>
      <point x="400" y="-8"/>
      <point x="293" y="19"/>
      <point x="193" y="50"/>
      <point x="145" y="65" type="qcurve"/>
      <point x="145" y="1118" type="line" smooth="yes"/>
      <point x="145" y="1186"/>
      <point x="143.5" y="1246.5" type="qcurve" smooth="yes"/>
      <point x="142" y="1311"/>
      <point x="136" y="1428"/>
      <point x="130" y="1470" type="qcurve"/>
    </contour>
    <contour>
      <point x="330" y="185" type="line"/>
      <point x="367" y="170"/>
      <point x="428" y="149"/>
      <point x="486" y="136"/>
      <point x="543" y="130"/>
      <point x="575" y="130" type="qcurve" smooth="yes"/>
      <point x="641" y="130"/>
      <point x="753" y="184"/>
      <point x="834" y="282"/>
      <point x="880" y="421"/>
      <point x="880" y="505" type="qcurve" smooth="yes"/>
      <point x="880" y="588"/>
      <point x="850" y="722"/>
      <point x="793" y="815"/>
      <point x="709" y="865"/>
      <point x="655" y="865" type="qcurve" smooth="yes"/>
      <point x="608" y="865"/>
      <point x="514" y="824"/>
      <point x="429" y="750"/>
      <point x="355" y="647"/>
      <point x="330" y="585" type="qcurve"/>
    </contour>
    <contour>
      <point x="0" y="949" type="line"/>
      <point x="1155" y="949" type="line"/>
      <point x="1155" y="933" type="line"/>
      <point x="0" y="933" type="line"/>
    </contour>
    <contour>
      <point x="0" y="1470" type="line"/>
      <point x="1155" y="1470" type="line"/>
      <point x="1155" y="1441" type="line"/>
      <point x="0" y="1441" type="line"/>
    </contour>
    <contour>
      <point x="0" y="19" type="line"/>
      <point x="1155" y="19" type="line"/>
      <point x="1155" y="-10" type="line"/>
      <point x="0" y="-10" type="line"/>
    </contour>
    <contour>
      <point x="0" y="-454" type="line"/>
      <point x="1155" y="-454" type="line"/>
      <point x="1155" y="-483" type="line"/>
      <point x="0" y="-483" type="line"/>
    </contour>
  </outline>
</glyph>
<glyph name="c" format="1">
  <advance width="1020"/>
  <unicode hex="0063"/>
  <outline>
    <contour>
      <point x="1020" y="1000" type="move" name="Anchor-4"/>
    </contour>
    <contour>
      <point x="580" y="-100" type="move" name="Anchor-3"/>
    </contour>
    <contour>
      <point x="580" y="0" type="move" name="Anchor-2"/>
    </contour>
    <contour>
      <point x="580" y="-100" type="move" name="Anchor-1"/>
    </contour>
    <contour>
      <point x="570" y="1100" type="move" name="Anchor-0"/>
    </contour>
    <contour>
      <point x="925" y="85" type="line"/>
      <point x="887" y="56"/>
      <point x="812" y="15"/>
      <point x="730" y="-12"/>
      <point x="636" y="-25"/>
      <point x="580" y="-25" type="qcurve" smooth="yes"/>
      <point x="479" y="-25"/>
      <point x="303" y="46"/>
      <point x="171" y="180"/>
      <point x="95" y="370"/>
      <point x="95" y="490" type="qcurve" smooth="yes"/>
      <point x="95" y="603"/>
      <point x="168" y="803"/>
      <point x="303" y="953"/>
      <point x="496" y="1040"/>
      <point x="615" y="1040" type="qcurve" smooth="yes"/>
      <point x="715" y="1040"/>
      <point x="860" y="993"/>
      <point x="915" y="955" type="qcurve"/>
      <point x="880" y="775" type="line"/>
      <point x="812" y="825"/>
      <point x="678" y="875"/>
      <point x="600" y="875" type="qcurve" smooth="yes"/>
      <point x="533" y="875"/>
      <point x="418" y="824"/>
      <point x="333" y="728"/>
      <point x="285" y="588"/>
      <point x="285" y="500" type="qcurve" smooth="yes"/>
      <point x="285" y="419"/>
      <point x="329" y="287"/>
      <point x="411" y="192"/>
      <point x="527" y="140"/>
      <point x="600" y="140" type="qcurve" smooth="yes"/>
      <point x="691" y="140"/>
      <point x="839" y="202"/>
      <point x="905" y="260" type="qcurve"/>
    </contour>
    <contour>
      <point x="0" y="949" type="line"/>
      <point x="1020" y="949" type="line"/>
      <point x="1020" y="933" type="line"/>
      <point x="0" y="933" type="line"/>
    </contour>
    <contour>
      <point x="0" y="1470" type="line"/>
      <point x="1020" y="1470" type="line"/>
      <point x="1020" y="1441" type="line"/>
      <point x="0" y="1441" type="line"/>
    </contour>
    <contour>
      <point x="0" y="19" type="line"/>
      <point x="1020" y="19" type="line"/>
      <point x="1020" y="-10" type="line"/>
      <point x="0" y="-10" type="line"/>
    </contour>
    <contour>
      <point x="0" y="-454" type="line"/>
      <point x="1020" y="-454" type="line"/>
      <point x="1020" y="-483" type="line"/>
      <point x="0" y="-483" type="line"/>
    </contour>
  </outline>
</glyph>
<glyph name="f" format="1">
  <advance width="750"/>
  <unicode hex="0066"/>
  <outline>
    <contour>
      <point x="746" y="899" type="move" name="Anchor-4"/>
    </contour>
    <contour>
      <point x="335" y="-100" type="move" name="Anchor-3"/>
    </contour>
    <contour>
      <point x="370" y="0" type="move" name="Anchor-2"/>
    </contour>
    <contour>
      <point x="335" y="-100" type="move" name="Anchor-1"/>
    </contour>
    <contour>
      <point x="556" y="1457" type="move" name="Anchor-0"/>
    </contour>
    <contour>
      <point x="35" y="942" type="line"/>
      <point x="235" y="942" type="line"/>
      <point x="236" y="992" type="line" smooth="yes"/>
      <point x="240.569" y="1220.46"/>
      <point x="327.5" y="1329.5" type="qcurve" smooth="yes"/>
      <point x="419" y="1442"/>
      <point x="581" y="1442" type="qcurve" smooth="yes"/>
      <point x="640" y="1442"/>
      <point x="754" y="1405"/>
      <point x="801" y="1372" type="qcurve"/>
      <point x="756" y="1212" type="line"/>
      <point x="718" y="1240"/>
      <point x="625" y="1272"/>
      <point x="581" y="1272" type="qcurve" smooth="yes"/>
      <point x="488" y="1272"/>
      <point x="462" y="1216" type="qcurve" smooth="yes"/>
      <point x="422" y="1129"/>
      <point x="421" y="1032" type="qcurve" smooth="yes"/>
      <point x="420" y="942" type="line"/>
      <point x="690" y="942" type="line"/>
      <point x="690" y="797" type="line"/>
      <point x="420" y="797" type="line"/>
      <point x="425" y="494" type="line" smooth="yes"/>
      <point x="427.006" y="372.458"/>
      <point x="426.723" y="349.501" type="qcurve" smooth="yes"/>
      <point x="429.987" y="247.962"/>
      <point x="431.5" y="213.5" type="qcurve" smooth="yes"/>
      <point x="432" y="178"/>
      <point x="441" y="94" type="qcurve" smooth="yes"/>
      <point x="447" y="39"/>
      <point x="455" y="0" type="qcurve"/>
      <point x="240" y="0" type="line"/>
      <point x="235" y="797" type="line"/>
      <point x="35" y="797" type="line"/>
    </contour>
    <contour>
      <point x="0" y="949" type="line"/>
      <point x="852" y="949" type="line"/>
      <point x="852" y="933" type="line"/>
      <point x="0" y="933" type="line"/>
    </contour>
    <contour>
      <point x="0" y="1470" type="line"/>
      <point x="852" y="1470" type="line"/>
      <point x="852" y="1441" type="line"/>
      <point x="0" y="1441" type="line"/>
    </contour>
    <contour>
      <point x="0" y="19" type="line"/>
      <point x="852" y="19" type="line"/>
      <point x="852" y="-10" type="line"/>
      <point x="0" y="-10" type="line"/>
    </contour>
    <contour>
      <point x="0" y="-454" type="line"/>
      <point x="852" y="-454" type="line"/>
      <point x="852" y="-483" type="line"/>
      <point x="0" y="-483" type="line"/>
    </contour>
  </outline>
</glyph>
<glyph name="i" format="1">
  <advance width="565"/>
  <unicode hex="0069"/>
  <outline>
    <contour>
      <point x="555" y="1000" type="move" name="Anchor-4"/>
    </contour>
    <contour>
      <point x="500" y="0" type="move" name="Anchor-3"/>
    </contour>
    <contour>
      <point x="282" y="0" type="move" name="Anchor-2"/>
    </contour>
    <contour>
      <point x="285" y="-100" type="move" name="Anchor-1"/>
    </contour>
    <contour>
      <point x="282" y="1100" type="move" name="Anchor-0"/>
    </contour>
    <contour>
      <point x="155" y="1245" type="qcurve" smooth="yes"/>
      <point x="155" y="1273"/>
      <point x="173" y="1322"/>
      <point x="206" y="1359"/>
      <point x="252" y="1380"/>
      <point x="280" y="1380" type="qcurve" smooth="yes"/>
      <point x="308" y="1380"/>
      <point x="356" y="1359"/>
      <point x="390" y="1322"/>
      <point x="410" y="1273"/>
      <point x="410" y="1245" type="qcurve" smooth="yes"/>
      <point x="410" y="1217"/>
      <point x="390" y="1168"/>
      <point x="356" y="1131"/>
      <point x="308" y="1110"/>
      <point x="280" y="1110" type="qcurve" smooth="yes"/>
      <point x="252" y="1110"/>
      <point x="206" y="1131"/>
      <point x="173" y="1168"/>
      <point x="155" y="1217"/>
    </contour>
    <contour>
      <point x="375" y="475" type="line" smooth="yes"/>
      <point x="375" y="427"/>
      <point x="378" y="296"/>
      <point x="383" y="162"/>
      <point x="390" y="40"/>
      <point x="395" y="0" type="qcurve"/>
      <point x="190" y="0" type="line"/>
      <point x="190" y="458" type="line" smooth="yes"/>
      <point x="190" y="531"/>
      <point x="189" y="673"/>
      <point x="186" y="800"/>
      <point x="180" y="909"/>
      <point x="175" y="948" type="qcurve"/>
      <point x="375" y="948" type="line"/>
    </contour>
    <contour>
      <point x="0" y="949" type="line"/>
      <point x="565" y="949" type="line"/>
      <point x="565" y="933" type="line"/>
      <point x="0" y="933" type="line"/>
    </contour>
    <contour>
      <point x="0" y="1470" type="line"/>
      <point x="565" y="1470" type="line"/>
      <point x="565" y="1441" type="line"/>
      <point x="0" y="1441" type="line"/>
    </contour>
    <contour>
      <point x="0" y="19" type="line"/>
      <point x="565" y="19" type="line"/>
      <point x="565" y="-10" type="line"/>
      <point x="0" y="-10" type="line"/>
    </contour>
    <contour>
      <point x="0" y="-454" type="line"/>
      <point x="565" y="-454" type="line"/>
      <point x="565" y="-483" type="line"/>
      <point x="0" y="-483" type="line"/>
    </contour>
  </outline>
</glyph>
<glyph name="k" format="1">
  <advance width="1035"/>
  <unicode hex="006B"/>
  <outline>
    <contour>
      <point x="1035" y="1000" type="move" name="Anchor-4"/>
    </contour>
    <contour>
      <point x="572" y="-100" type="move" name="Anchor-3"/>
    </contour>
    <contour>
      <point x="243" y="0" type="move" name="Anchor-2"/>
    </contour>
    <contour>
      <point x="572" y="-100" type="move" name="Anchor-1"/>
    </contour>
    <contour>
      <point x="572" y="1635" type="move" name="Anchor-0"/>
    </contour>
    <contour>
      <point x="145" y="0" type="line"/>
      <point x="145" y="1000" type="line" smooth="yes"/>
      <point x="145" y="1162"/>
      <point x="141" y="1405"/>
      <point x="130" y="1470" type="qcurve"/>
      <point x="330" y="1470" type="line"/>
      <point x="330" y="601" type="line"/>
      <point x="735" y="950" type="line"/>
      <point x="985" y="950" type="line"/>
      <point x="490" y="573" type="line"/>
      <point x="1015" y="0" type="line"/>
      <point x="770" y="0" type="line"/>
      <point x="330" y="520" type="line"/>
      <point x="330" y="0" type="line"/>
    </contour>
    <contour>
      <point x="0" y="949" type="line"/>
      <point x="1080" y="949" type="line"/>
      <point x="1080" y="933" type="line"/>
      <point x="0" y="933" type="line"/>
    </contour>
    <contour>
      <point x="0" y="1470" type="line"/>
      <point x="1080" y="1470" type="line"/>
      <point x="1080" y="1441" type="line"/>
      <point x="0" y="1441" type="line"/>
    </contour>
    <contour>
      <point x="0" y="19" type="line"/>
      <point x="1080" y="19" type="line"/>
      <point x="1080" y="-10" type="line"/>
      <point x="0" y="-10" type="line"/>
    </contour>
    <contour>
      <point x="0" y="-454" type="line"/>
      <point x="1080" y="-454" type="line"/>
      <point x="1080" y="-483" type="line"/>
      <point x="0" y="-483" type="line"/>
    </contour>
  </outline>
</glyph>
<glyph name="l" format="1">
  <advance width="565"/>
  <unicode hex="006C"/>
  <outline>
    <contour>
      <point x="550" y="1000" type="move" name="Anchor-4"/>
    </contour>
    <contour>
      <point x="290" y="-100" type="move" name="Anchor-3"/>
    </contour>
    <contour>
      <point x="290" y="0" type="move" name="Anchor-2"/>
    </contour>
    <contour>
      <point x="290" y="-100" type="move" name="Anchor-1"/>
    </contour>
    <contour>
      <point x="282" y="1635" type="move" name="Anchor-0"/>
    </contour>
    <contour>
      <point x="375" y="475" type="line" smooth="yes"/>
      <point x="375" y="427"/>
      <point x="378" y="297"/>
      <point x="383" y="163"/>
      <point x="390" y="41"/>
      <point x="395" y="0" type="qcurve"/>
      <point x="190" y="0" type="line"/>
      <point x="190" y="1000" type="line" smooth="yes"/>
      <point x="190" y="1146"/>
      <point x="180" y="1383"/>
      <point x="170" y="1470" type="qcurve"/>
      <point x="375" y="1470" type="line"/>
    </contour>
    <contour>
      <point x="0" y="949" type="line"/>
      <point x="565" y="949" type="line"/>
      <point x="565" y="933" type="line"/>
      <point x="0" y="933" type="line"/>
    </contour>
    <contour>
      <point x="0" y="1470" type="line"/>
      <point x="565" y="1470" type="line"/>
      <point x="565" y="1441" type="line"/>
      <point x="0" y="1441" type="line"/>
    </contour>
    <contour>
      <point x="0" y="19" type="line"/>
      <point x="565" y="19" type="line"/>
      <point x="565" y="-10" type="line"/>
      <point x="0" y="-10" type="line"/>
    </contour>
    <contour>
      <point x="0" y="-454" type="line"/>
      <point x="565" y="-454" type="line"/>
      <point x="565" y="-483" type="line"/>
      <point x="0" y="-483" type="line"/>
    </contour>
  </outline>
</glyph>
<glyph name="o" format="1">
  <advance width="1140"/>
  <unicode hex="006F"/>
  <outline>
    <contour>
      <point x="1127" y="1000" type="move" name="Anchor-4"/>
    </contour>
    <contour>
      <point x="822" y="0" type="move" name="Anchor-3"/>
    </contour>
    <contour>
      <point x="557" y="0" type="move" name="Anchor-2"/>
    </contour>
    <contour>
      <point x="557" y="-100" type="move" name="Anchor-1"/>
    </contour>
    <contour>
      <point x="557" y="1100" type="move" name="Anchor-0"/>
    </contour>
    <contour>
      <point x="267" y="505" type="qcurve" smooth="yes"/>
      <point x="267" y="418"/>
      <point x="309" y="280"/>
      <point x="386" y="185"/>
      <point x="492" y="135"/>
      <point x="557" y="135" type="qcurve" smooth="yes"/>
      <point x="617" y="135"/>
      <point x="723" y="185"/>
      <point x="802" y="280"/>
      <point x="847" y="418"/>
      <point x="847" y="505" type="qcurve" smooth="yes"/>
      <point x="847" y="593"/>
      <point x="805" y="732"/>
      <point x="728" y="829"/>
      <point x="621" y="880"/>
      <point x="557" y="880" type="qcurve" smooth="yes"/>
      <point x="496" y="880"/>
      <point x="390" y="829"/>
      <point x="312" y="732"/>
      <point x="267" y="593"/>
    </contour>
    <contour>
      <point x="82" y="505" type="qcurve" smooth="yes"/>
      <point x="82" y="634"/>
      <point x="160" y="833"/>
      <point x="292" y="970"/>
      <point x="468" y="1040"/>
      <point x="567" y="1040" type="qcurve" smooth="yes"/>
      <point x="670" y="1040"/>
      <point x="841" y="970"/>
      <point x="964" y="833"/>
      <point x="1032" y="634"/>
      <point x="1032" y="505" type="qcurve" smooth="yes"/>
      <point x="1032" y="376"/>
      <point x="954" y="178"/>
      <point x="822" y="44"/>
      <point x="646" y="-25"/>
      <point x="547" y="-25" type="qcurve" smooth="yes"/>
      <point x="444" y="-25"/>
      <point x="273" y="44"/>
      <point x="150" y="178"/>
      <point x="82" y="376"/>
    </contour>
    <contour>
      <point x="0" y="949" type="line"/>
      <point x="1140" y="949" type="line"/>
      <point x="1140" y="933" type="line"/>
      <point x="0" y="933" type="line"/>
    </contour>
    <contour>
      <point x="0" y="1470" type="line"/>
      <point x="1140" y="1470" type="line"/>
      <point x="1140" y="1441" type="line"/>
      <point x="0" y="1441" type="line"/>
    </contour>
    <contour>
      <point x="0" y="19" type="line"/>
      <point x="1140" y="19" type="line"/>
      <point x="1140" y="-10" type="line"/>
      <point x="0" y="-10" type="line"/>
    </contour>
    <contour>
      <point x="0" y="-454" type="line"/>
      <point x="1140" y="-454" type="line"/>
      <point x="1140" y="-483" type="line"/>
      <point x="0" y="-483" type="line"/>
    </contour>
  </outline>
</glyph>
<glyph name="p" format="1">
  <advance width="1170"/>
  <unicode hex="0070"/>
  <outline>
    <contour>
      <point x="1170" y="1000" type="move" name="Anchor-4"/>
    </contour>
    <contour>
      <point x="590" y="-500" type="move" name="Anchor-3"/>
    </contour>
    <contour>
      <point x="265" y="-435" type="move" name="Anchor-2"/>
    </contour>
    <contour>
      <point x="590" y="-500" type="move" name="Anchor-1"/>
    </contour>
    <contour>
      <point x="590" y="1100" type="move" name="Anchor-0"/>
    </contour>
    <contour>
      <point x="340" y="260" type="line"/>
      <point x="391" y="224"/>
      <point x="466" y="177"/>
      <point x="528" y="150"/>
      <point x="585" y="140"/>
      <point x="620" y="140" type="qcurve" smooth="yes"/>
      <point x="673" y="140"/>
      <point x="770" y="190"/>
      <point x="845" y="285"/>
      <point x="890" y="420"/>
      <point x="890" y="505" type="qcurve" smooth="yes"/>
      <point x="890" y="588"/>
      <point x="859" y="723"/>
      <point x="799" y="818"/>
      <point x="714" y="870"/>
      <point x="660" y="870" type="qcurve" smooth="yes"/>
      <point x="617" y="870"/>
      <point x="527" y="832"/>
      <point x="442" y="758"/>
      <point x="368" y="647"/>
      <point x="340" y="575" type="qcurve"/>
    </contour>
    <contour>
      <point x="285" y="1020" type="line"/>
      <point x="296" y="994"/>
      <point x="318" y="899"/>
      <point x="325" y="830" type="qcurve"/>
      <point x="360" y="876"/>
      <point x="443" y="954"/>
      <point x="536" y="1009"/>
      <point x="639" y="1040"/>
      <point x="695" y="1040" type="qcurve" smooth="yes"/>
      <point x="780" y="1040"/>
      <point x="921" y="965"/>
      <point x="1020" y="830"/>
      <point x="1075" y="645"/>
      <point x="1075" y="535" type="qcurve" smooth="yes"/>
      <point x="1075" y="407"/>
      <point x="1003" y="200"/>
      <point x="880" y="54"/>
      <point x="714" y="-25"/>
      <point x="620" y="-25" type="qcurve" smooth="yes"/>
      <point x="580" y="-25"/>
      <point x="509" y="-9"/>
      <point x="442" y="19"/>
      <point x="376" y="60"/>
      <point x="340" y="85" type="qcurve"/>
      <point x="340" y="-150" type="line" smooth="yes"/>
      <point x="340" y="-210"/>
      <point x="343" y="-307"/>
      <point x="349" y="-389"/>
      <point x="359" y="-458"/>
      <point x="365" y="-490" type="qcurve"/>
      <point x="155" y="-490" type="line"/>
      <point x="155" y="485" type="line" smooth="yes"/>
      <point x="155" y="578"/>
      <point x="152" y="737"/>
      <point x="142" y="870"/>
      <point x="122" y="978"/>
      <point x="105" y="1020" type="qcurve"/>
    </contour>
    <contour>
      <point x="0" y="949" type="line"/>
      <point x="1170" y="949" type="line"/>
      <point x="1170" y="933" type="line"/>
      <point x="0" y="933" type="line"/>
    </contour>
    <contour>
      <point x="0" y="1470" type="line"/>
      <point x="1170" y="1470" type="line"/>
      <point x="1170" y="1441" type="line"/>
      <point x="0" y="1441" type="line"/>
    </contour>
    <contour>
      <point x="0" y="19" type="line"/>
      <point x="1170" y="19" type="line"/>
      <point x="1170" y="-10" type="line"/>
      <point x="0" y="-10" type="line"/>
    </contour>
    <contour>
      <point x="0" y="-454" type="line"/>
      <point x="1170" y="-454" type="line"/>
      <point x="1170" y="-483" type="line"/>
      <point x="0" y="-483" type="line"/>
    </contour>
  </outline>
</glyph>
<glyph name="t" format="1">
  <advance width="835"/>
  <unicode hex="0074"/>
  <outline>
    <contour>
      <point x="835" y="1000" type="move" name="Anchor-4"/>
    </contour>
    <contour>
      <point x="475" y="-100" type="move" name="Anchor-3"/>
    </contour>
    <contour>
      <point x="475" y="0" type="move" name="Anchor-2"/>
    </contour>
    <contour>
      <point x="475" y="-100" type="move" name="Anchor-1"/>
    </contour>
    <contour>
      <point x="325" y="1360" type="move" name="Anchor-0"/>
    </contour>
    <contour>
      <point x="30" y="995" type="line"/>
      <point x="230" y="995" type="line"/>
      <point x="230" y="1320" type="line"/>
      <point x="415" y="1320" type="line"/>
      <point x="415" y="995" type="line"/>
      <point x="740" y="995" type="line"/>
      <point x="740" y="850" type="line"/>
      <point x="415" y="850" type="line"/>
      <point x="415" y="390" type="line" smooth="yes"/>
      <point x="415" y="313"/>
      <point x="430" y="215"/>
      <point x="461" y="160"/>
      <point x="509" y="140"/>
      <point x="543" y="140" type="qcurve" smooth="yes"/>
      <point x="586" y="140"/>
      <point x="694" y="178"/>
      <point x="760" y="215" type="qcurve"/>
      <point x="760" y="55" type="line"/>
      <point x="691" y="10"/>
      <point x="565" y="-25"/>
      <point x="512" y="-25" type="qcurve" smooth="yes"/>
      <point x="453" y="-25"/>
      <point x="351" y="2"/>
      <point x="274" y="70"/>
      <point x="230" y="183"/>
      <point x="230" y="270" type="qcurve" smooth="yes"/>
      <point x="230" y="850" type="line"/>
      <point x="30" y="850" type="line"/>
    </contour>
    <contour>
      <point x="0" y="949" type="line"/>
      <point x="835" y="949" type="line"/>
      <point x="835" y="933" type="line"/>
      <point x="0" y="933" type="line"/>
    </contour>
    <contour>
      <point x="0" y="1470" type="line"/>
      <point x="835" y="1470" type="line"/>
      <point x="835" y="1441" type="line"/>
      <point x="0" y="1441" type="line"/>
    </contour>
    <contour>
      <point x="0" y="19" type="line"/>
      <point x="835" y="19" type="line"/>
      <point x="835" y="-10" type="line"/>
      <point x="0" y="-10" type="line"/>
    </contour>
    <contour>
      <point x="0" y="-454" type="line"/>
      <point x="835" y="-454" type="line"/>
      <point x="835" y="-483" type="line"/>
      <point x="0" y="-483" type="line"/>
    </contour>
  </outline>
</glyph>
<glyph name="u" format="1">
  <advance width="1185"/>
  <unicode hex="0075"/>
  <outline>
    <contour>
      <point x="1185" y="1000" type="move" name="Anchor-4"/>
    </contour>
    <contour>
      <point x="1192" y="0" type="move" name="Anchor-3"/>
    </contour>
    <contour>
      <point x="589" y="0" type="move" name="Anchor-2"/>
    </contour>
    <contour>
      <point x="589" y="-100" type="move" name="Anchor-1"/>
    </contour>
    <contour>
      <point x="589" y="1100" type="move" name="Anchor-0"/>
    </contour>
    <contour>
      <point x="920" y="0" type="line"/>
      <point x="913" y="17"/>
      <point x="897" y="63"/>
      <point x="882" y="115"/>
      <point x="869" y="172"/>
      <point x="865" y="200" type="qcurve"/>
      <point x="774" y="89"/>
      <point x="581" y="-25"/>
      <point x="475" y="-25" type="qcurve" smooth="yes"/>
      <point x="155" y="-25"/>
      <point x="155" y="405" type="qcurve" smooth="yes"/>
      <point x="155" y="700" type="line" smooth="yes"/>
      <point x="155" y="748"/>
      <point x="154" y="826"/>
      <point x="150" y="899"/>
      <point x="142" y="975"/>
      <point x="135" y="1020" type="qcurve"/>
      <point x="340" y="1020" type="line"/>
      <point x="340" y="465" type="line" smooth="yes"/>
      <point x="340" y="380"/>
      <point x="357" y="257"/>
      <point x="397" y="178"/>
      <point x="462" y="140"/>
      <point x="510" y="140" type="qcurve" smooth="yes"/>
      <point x="554" y="140"/>
      <point x="654" y="193"/>
      <point x="745" y="275"/>
      <point x="820" y="374"/>
      <point x="840" y="420" type="qcurve"/>
      <point x="840" y="700" type="line" smooth="yes"/>
      <point x="840" y="749"/>
      <point x="839" y="828"/>
      <point x="835" y="900"/>
      <point x="827" y="974"/>
      <point x="820" y="1020" type="qcurve"/>
      <point x="1025" y="1020" type="line"/>
      <point x="1025" y="450" type="line" smooth="yes"/>
      <point x="1025" y="304"/>
      <point x="1058" y="85"/>
      <point x="1090" y="0" type="qcurve"/>
    </contour>
    <contour>
      <point x="0" y="949" type="line"/>
      <point x="1185" y="949" type="line"/>
      <point x="1185" y="933" type="line"/>
      <point x="0" y="933" type="line"/>
    </contour>
    <contour>
      <point x="0" y="1470" type="line"/>
      <point x="1185" y="1470" type="line"/>
      <point x="1185" y="1441" type="line"/>
      <point x="0" y="1441" type="line"/>
    </contour>
    <contour>
      <point x="0" y="19" type="line"/>
      <point x="1185" y="19" type="line"/>
      <point x="1185" y="-10" type="line"/>
      <point x="0" y="-10" type="line"/>
    </contour>
    <contour>
      <point x="0" y="-454" type="line"/>
      <point x="1185" y="-454" type="line"/>
      <point x="1185" y="-483" type="line"/>
      <point x="0" y="-483" type="line"/>
    </contour>
  </outline>
</glyph>
<glyph name="w" format="1">
  <advance width="1550"/>
  <unicode hex="0077"/>
  <outline>
    <contour>
      <point x="1550" y="1077" type="move" name="Anchor-4"/>
    </contour>
    <contour>
      <point x="775" y="-100" type="move" name="Anchor-3"/>
    </contour>
    <contour>
      <point x="775" y="-100" type="move" name="Anchor-2"/>
    </contour>
    <contour>
      <point x="775" y="-100" type="move" name="Anchor-1"/>
    </contour>
    <contour>
      <point x="775" y="1100" type="move" name="Anchor-0"/>
    </contour>
    <contour>
      <point x="850" y="1020" type="line"/>
      <point x="1110" y="215" type="line"/>
      <point x="1320" y="1020" type="line"/>
      <point x="1505" y="1020" type="line"/>
      <point x="1487" y="963"/>
      <point x="1460" y="872"/>
      <point x="1436" y="789"/>
      <point x="1413" y="710"/>
      <point x="1400" y="665" type="qcurve" smooth="yes"/>
      <point x="1215" y="0" type="line"/>
      <point x="1025" y="0" type="line"/>
      <point x="775" y="785" type="line"/>
      <point x="525" y="0" type="line"/>
      <point x="335" y="0" type="line"/>
      <point x="150" y="665" type="line" smooth="yes"/>
      <point x="139" y="705"/>
      <point x="116" y="783"/>
      <point x="91" y="867"/>
      <point x="63" y="963"/>
      <point x="45" y="1020" type="qcurve"/>
      <point x="230" y="1020" type="line"/>
      <point x="440" y="215" type="line"/>
      <point x="700" y="1020" type="line"/>
    </contour>
    <contour>
      <point x="0" y="949" type="line"/>
      <point x="1550" y="949" type="line"/>
      <point x="1550" y="933" type="line"/>
      <point x="0" y="933" type="line"/>
    </contour>
    <contour>
      <point x="0" y="1470" type="line"/>
      <point x="1550" y="1470" type="line"/>
      <point x="1550" y="1441" type="line"/>
      <point x="0" y="1441" type="line"/>
    </contour>
    <contour>
      <point x="0" y="19" type="line"/>
      <point x="1550" y="19" type="line"/>
      <point x="1550" y="-10" type="line"/>
      <point x="0" y="-10" type="line"/>
    </contour>
    <contour>
      <point x="0" y="-454" type="line"/>
      <point x="1550" y="-454" type="line"/>
      <point x="1550" y="-483" type="line"/>
      <point x="0" y="-483" type="line"/>
    </contour>
  </outline>
</glyph>
<glyph name="x" format="1">
  <advance width="1085"/>
  <unicode hex="0078"/>
  <outline>
    <contour>
      <point x="1085" y="1077" type="move" name="Anchor-4"/>
    </contour>
    <contour>
      <point x="542" y="-100" type="move" name="Anchor-3"/>
    </contour>
    <contour>
      <point x="900" y="0" type="move" name="Anchor-2"/>
    </contour>
    <contour>
      <point x="542" y="-100" type="move" name="Anchor-1"/>
    </contour>
    <contour>
      <point x="542" y="1100" type="move" name="Anchor-0"/>
    </contour>
    <contour>
      <point x="536" y="376" type="line"/>
      <point x="275" y="0" type="line"/>
      <point x="50" y="0" type="line"/>
      <point x="91" y="54"/>
      <point x="147" y="127"/>
      <point x="190" y="185"/>
      <point x="227" y="237"/>
      <point x="250" y="270" type="qcurve" smooth="yes"/>
      <point x="428" y="528" type="line"/>
      <point x="270" y="750" type="line" smooth="yes"/>
      <point x="245" y="785"/>
      <point x="203" y="841"/>
      <point x="157" y="899"/>
      <point x="100" y="970"/>
      <point x="60" y="1020" type="qcurve"/>
      <point x="290" y="1020" type="line"/>
      <point x="550" y="659" type="line"/>
      <point x="795" y="1020" type="line"/>
      <point x="1020" y="1020" type="line"/>
      <point x="981" y="970"/>
      <point x="927" y="899"/>
      <point x="883" y="840"/>
      <point x="844" y="784"/>
      <point x="820" y="750" type="qcurve" smooth="yes"/>
      <point x="657" y="510" type="line"/>
      <point x="830" y="270" type="line" smooth="yes"/>
      <point x="857" y="232"/>
      <point x="897" y="179"/>
      <point x="941" y="123"/>
      <point x="994" y="53"/>
      <point x="1035" y="0" type="qcurve"/>
      <point x="805" y="0" type="line"/>
    </contour>
    <contour>
      <point x="0" y="949" type="line"/>
      <point x="1085" y="949" type="line"/>
      <point x="1085" y="933" type="line"/>
      <point x="0" y="933" type="line"/>
    </contour>
    <contour>
      <point x="0" y="1470" type="line"/>
      <point x="1085" y="1470" type="line"/>
      <point x="1085" y="1441" type="line"/>
      <point x="0" y="1441" type="line"/>
    </contour>
    <contour>
      <point x="0" y="19" type="line"/>
      <point x="1085" y="19" type="line"/>
      <point x="1085" y="-10" type="line"/>
      <point x="0" y="-10" type="line"/>
    </contour>
    <contour>
      <point x="0" y="-454" type="line"/>
      <point x="1085" y="-454" type="line"/>
      <point x="1085" y="-483" type="line"/>
      <point x="0" y="-483" type="line"/>
    </contour>
  </outline>
</glyph>
<glyph name="y" format="1">
  <advance width="1060"/>
  <unicode hex="0079"/>
  <outline>
    <contour>
      <point x="1120" y="1000" type="move" name="Anchor-4"/>
    </contour>
    <contour>
      <point x="795" y="-100" type="move" name="Anchor-3"/>
    </contour>
    <contour>
      <point x="795" y="-100" type="move" name="Anchor-2"/>
    </contour>
    <contour>
      <point x="795" y="-100" type="move" name="Anchor-1"/>
    </contour>
    <contour>
      <point x="535" y="1100" type="move" name="Anchor-0"/>
    </contour>
    <contour>
      <point x="655" y="0" type="line" smooth="yes"/>
      <point x="603" y="-144"/>
      <point x="503" y="-326"/>
      <point x="400" y="-431"/>
      <point x="289" y="-470"/>
      <point x="225" y="-470" type="qcurve" smooth="yes"/>
      <point x="156" y="-470"/>
      <point x="35" y="-426"/>
      <point x="-20" y="-385" type="qcurve"/>
      <point x="40" y="-225" type="line"/>
      <point x="56" y="-238"/>
      <point x="99" y="-265"/>
      <point x="148" y="-286"/>
      <point x="200" y="-300"/>
      <point x="225" y="-300" type="qcurve" smooth="yes"/>
      <point x="255" y="-300"/>
      <point x="313" y="-279"/>
      <point x="372" y="-220"/>
      <point x="434" y="-113"/>
      <point x="469" y="-26" type="qcurve"/>
      <point x="190" y="665" type="line" smooth="yes"/>
      <point x="162" y="733"/>
      <point x="88" y="903"/>
      <point x="30" y="1020" type="qcurve"/>
      <point x="230" y="1020" type="line"/>
      <point x="553" y="203" type="line"/>
      <point x="572" y="257"/>
      <point x="617" y="384"/>
      <point x="665" y="519"/>
      <point x="713" y="656"/>
      <point x="735" y="719" type="qcurve" smooth="yes"/>
      <point x="787" y="867"/>
      <point x="840" y="1020" type="qcurve"/>
      <point x="1040" y="1020" type="line"/>
      <point x="1014" y="962"/>
      <point x="972" y="863"/>
      <point x="936" y="776"/>
      <point x="907" y="700"/>
      <point x="895" y="665" type="qcurve" smooth="yes"/>
    </contour>
    <contour>
      <point x="0" y="949" type="line"/>
      <point x="1108" y="949" type="line"/>
      <point x="1108" y="933" type="line"/>
      <point x="0" y="933" type="line"/>
    </contour>
    <contour>
      <point x="0" y="1470" type="line"/>
      <point x="1108" y="1470" type="line"/>
      <point x="1108" y="1441" type="line"/>
      <point x="0" y="1441" type="line"/>
    </contour>
    <contour>
      <point x="0" y="19" type="line"/>
      <point x="1108" y="19" type="line"/>
      <point x="1108" y="-10" type="line"/>
      <point x="0" y="-10" type="line"/>
    </contour>
    <contour>
      <point x="0" y="-454" type="line"/>
      <point x="1108" y="-454" type="line"/>
      <point x="1108" y="-483" type="line"/>
      <point x="0" y="-483" type="line"/>
    </contour>
  </outline>
</glyph>
<glyph name="braceleft" format="1">
  <advance width="1000"/>
  <unicode hex="007B"/>
  <outline>
    <contour>
      <point x="210" y="615" type="qcurve" smooth="yes"/>
      <point x="210" y="627"/>
      <point x="265" y="671"/>
      <point x="335" y="721"/>
      <point x="400" y="766"/>
      <point x="410" y="780" type="qcurve" smooth="yes"/>
      <point x="416" y="788"/>
      <point x="423" y="892"/>
      <point x="430" y="1042"/>
      <point x="439" y="1217"/>
      <point x="454" y="1375"/>
      <point x="477" y="1495"/>
      <point x="495" y="1515" type="qcurve" smooth="yes"/>
      <point x="510" y="1532"/>
      <point x="580" y="1568"/>
      <point x="667" y="1601"/>
      <point x="761" y="1630"/>
      <point x="800" y="1640" type="qcurve"/>
      <point x="840" y="1500" type="line"/>
      <point x="815" y="1491"/>
      <point x="749" y="1466"/>
      <point x="686" y="1438"/>
      <point x="637" y="1410"/>
      <point x="630" y="1400" type="qcurve" smooth="yes"/>
      <point x="624" y="1391"/>
      <point x="615" y="1329"/>
      <point x="610" y="1238"/>
      <point x="606" y="1127"/>
      <point x="604" y="1012"/>
      <point x="602" y="901"/>
      <point x="598" y="812"/>
      <point x="594" y="752"/>
      <point x="590" y="745" type="qcurve" smooth="yes"/>
      <point x="583" y="731"/>
      <point x="532" y="694"/>
      <point x="477" y="656"/>
      <point x="431" y="623"/>
      <point x="430" y="615" type="qcurve" smooth="yes"/>
      <point x="431" y="607"/>
      <point x="477" y="574"/>
      <point x="532" y="536"/>
      <point x="583" y="498"/>
      <point x="590" y="485" type="qcurve" smooth="yes"/>
      <point x="594" y="478"/>
      <point x="598" y="418"/>
      <point x="602" y="329"/>
      <point x="604" y="218"/>
      <point x="606" y="103"/>
      <point x="610" y="-8"/>
      <point x="615" y="-99"/>
      <point x="624" y="-161"/>
      <point x="630" y="-170" type="qcurve" smooth="yes"/>
      <point x="637" y="-181"/>
      <point x="686" y="-208"/>
      <point x="749" y="-236"/>
      <point x="815" y="-261"/>
      <point x="840" y="-270" type="qcurve"/>
      <point x="800" y="-410" type="line"/>
      <point x="761" y="-400"/>
      <point x="667" y="-371"/>
      <point x="580" y="-338"/>
      <point x="510" y="-302"/>
      <point x="495" y="-285" type="qcurve" smooth="yes"/>
      <point x="477" y="-265"/>
      <point x="454" y="-145"/>
      <point x="439" y="13"/>
      <point x="430" y="188"/>
      <point x="423" y="338"/>
      <point x="416" y="442"/>
      <point x="410" y="450" type="qcurve" smooth="yes"/>
      <point x="403" y="459"/>
      <point x="368" y="486"/>
      <point x="324" y="517"/>
      <point x="276" y="551"/>
      <point x="236" y="581"/>
      <point x="210" y="607"/>
    </contour>
    <contour>
      <point x="0" y="949" type="line"/>
      <point x="1000" y="949" type="line"/>
      <point x="1000" y="933" type="line"/>
      <point x="0" y="933" type="line"/>
    </contour>
    <contour>
      <point x="0" y="1470" type="line"/>
      <point x="1000" y="1470" type="line"/>
      <point x="1000" y="1441" type="line"/>
      <point x="0" y="1441" type="line"/>
    </contour>
    <contour>
      <point x="0" y="19" type="line"/>
      <point x="1000" y="19" type="line"/>
      <point x="1000" y="-10" type="line"/>
      <point x="0" y="-10" type="line"/>
    </contour>
    <contour>
      <point x="0" y="-454" type="line"/>
      <point x="1000" y="-454" type="line"/>
      <point x="1000" y="-483" type="line"/>
      <point x="0" y="-483" type="line"/>
    </contour>
  </outline>
</glyph>
<glyph name="bar" format="1">
  <advance width="690"/>
  <unicode hex="007C"/>
  <outline>
    <contour>
      <point x="420" y="1600" type="line"/>
      <point x="420" y="-390" type="line"/>
      <point x="270" y="-390" type="line"/>
      <point x="270" y="1600" type="line"/>
    </contour>
    <contour>
      <point x="0" y="949" type="line"/>
      <point x="690" y="949" type="line"/>
      <point x="690" y="933" type="line"/>
      <point x="0" y="933" type="line"/>
    </contour>
    <contour>
      <point x="0" y="1470" type="line"/>
      <point x="690" y="1470" type="line"/>
      <point x="690" y="1441" type="line"/>
      <point x="0" y="1441" type="line"/>
    </contour>
    <contour>
      <point x="0" y="19" type="line"/>
      <point x="690" y="19" type="line"/>
      <point x="690" y="-10" type="line"/>
      <point x="0" y="-10" type="line"/>
    </contour>
    <contour>
      <point x="0" y="-454" type="line"/>
      <point x="690" y="-454" type="line"/>
      <point x="690" y="-483" type="line"/>
      <point x="0" y="-483" type="line"/>
    </contour>
  </outline>
</glyph>
<glyph name="braceright" format="1">
  <advance width="1000"/>
  <unicode hex="007D"/>
  <outline>
    <contour>
      <point x="790" y="615" type="qcurve" smooth="yes"/>
      <point x="790" y="607"/>
      <point x="764" y="581"/>
      <point x="724" y="551"/>
      <point x="676" y="517"/>
      <point x="632" y="486"/>
      <point x="597" y="459"/>
      <point x="590" y="450" type="qcurve" smooth="yes"/>
      <point x="584" y="442"/>
      <point x="577" y="338"/>
      <point x="570" y="188"/>
      <point x="561" y="13"/>
      <point x="546" y="-145"/>
      <point x="523" y="-265"/>
      <point x="505" y="-285" type="qcurve" smooth="yes"/>
      <point x="490" y="-302"/>
      <point x="420" y="-338"/>
      <point x="333" y="-371"/>
      <point x="239" y="-400"/>
      <point x="200" y="-410" type="qcurve"/>
      <point x="160" y="-270" type="line"/>
      <point x="185" y="-261"/>
      <point x="251" y="-236"/>
      <point x="314" y="-208"/>
      <point x="362" y="-181"/>
      <point x="370" y="-170" type="qcurve" smooth="yes"/>
      <point x="376" y="-161"/>
      <point x="385" y="-99"/>
      <point x="390" y="-8"/>
      <point x="394" y="103"/>
      <point x="396" y="218"/>
      <point x="398" y="329"/>
      <point x="402" y="418"/>
      <point x="406" y="478"/>
      <point x="410" y="485" type="qcurve" smooth="yes"/>
      <point x="415" y="494"/>
      <point x="442" y="517"/>
      <point x="476" y="542"/>
      <point x="515" y="568"/>
      <point x="547" y="591"/>
      <point x="569" y="609"/>
      <point x="570" y="615" type="qcurve" smooth="yes"/>
      <point x="569" y="620"/>
      <point x="547" y="639"/>
      <point x="515" y="662"/>
      <point x="476" y="688"/>
      <point x="442" y="713"/>
      <point x="415" y="736"/>
      <point x="410" y="745" type="qcurve" smooth="yes"/>
      <point x="406" y="752"/>
      <point x="402" y="812"/>
      <point x="398" y="901"/>
      <point x="396" y="1012"/>
      <point x="394" y="1127"/>
      <point x="390" y="1238"/>
      <point x="385" y="1329"/>
      <point x="376" y="1391"/>
      <point x="370" y="1400" type="qcurve" smooth="yes"/>
      <point x="362" y="1410"/>
      <point x="314" y="1438"/>
      <point x="251" y="1466"/>
      <point x="185" y="1491"/>
      <point x="160" y="1500" type="qcurve"/>
      <point x="200" y="1640" type="line"/>
      <point x="239" y="1630"/>
      <point x="333" y="1601"/>
      <point x="420" y="1568"/>
      <point x="490" y="1532"/>
      <point x="505" y="1515" type="qcurve" smooth="yes"/>
      <point x="523" y="1495"/>
      <point x="546" y="1375"/>
      <point x="561" y="1217"/>
      <point x="570" y="1042"/>
      <point x="577" y="892"/>
      <point x="584" y="788"/>
      <point x="590" y="780" type="qcurve" smooth="yes"/>
      <point x="600" y="766"/>
      <point x="665" y="721"/>
      <point x="735" y="671"/>
      <point x="790" y="627"/>
    </contour>
    <contour>
      <point x="0" y="949" type="line"/>
      <point x="1000" y="949" type="line"/>
      <point x="1000" y="933" type="line"/>
      <point x="0" y="933" type="line"/>
    </contour>
    <contour>
      <point x="0" y="1470" type="line"/>
      <point x="1000" y="1470" type="line"/>
      <point x="1000" y="1441" type="line"/>
      <point x="0" y="1441" type="line"/>
    </contour>
    <contour>
      <point x="0" y="19" type="line"/>
      <point x="1000" y="19" type="line"/>
      <point x="1000" y="-10" type="line"/>
      <point x="0" y="-10" type="line"/>
    </contour>
    <contour>
      <point x="0" y="-454" type="line"/>
      <point x="1000" y="-454" type="line"/>
      <point x="1000" y="-483" type="line"/>
      <point x="0" y="-483" type="line"/>
    </contour>
  </outline>
</glyph>
<glyph name="asciitilde" format="1">
  <advance width="1115"/>
  <unicode hex="007E"/>
  <outline>
    <contour>
      <point x="0" y="949" type="line"/>
      <point x="1115" y="949" type="line"/>
      <point x="1115" y="933" type="line"/>
      <point x="0" y="933" type="line"/>
    </contour>
    <contour>
      <point x="0" y="1470" type="line"/>
      <point x="1115" y="1470" type="line"/>
      <point x="1115" y="1441" type="line"/>
      <point x="0" y="1441" type="line"/>
    </contour>
    <contour>
      <point x="0" y="19" type="line"/>
      <point x="1115" y="19" type="line"/>
      <point x="1115" y="-10" type="line"/>
      <point x="0" y="-10" type="line"/>
    </contour>
    <contour>
      <point x="0" y="-454" type="line"/>
      <point x="1115" y="-454" type="line"/>
      <point x="1115" y="-483" type="line"/>
      <point x="0" y="-483" type="line"/>
    </contour>
    <component base="uni0334.Lrg"/>
  </outline>
</glyph>
<glyph name="uni00A0" format="1">
  <advance width="550"/>
  <unicode hex="00A0"/>
  <outline>
    <contour>
      <point x="1024" y="1000" type="move" name="Anchor-4"/>
    </contour>
    <contour>
      <point x="562" y="0" type="move" name="Anchor-3"/>
    </contour>
    <contour>
      <point x="512" y="0" type="move" name="Anchor-2"/>
    </contour>
    <contour>
      <point x="512" y="-100" type="move" name="Anchor-1"/>
    </contour>
    <contour>
      <point x="512" y="1500" type="move" name="Anchor-0"/>
    </contour>
    <contour>
      <point x="0" y="949" type="line"/>
      <point x="550" y="949" type="line"/>
      <point x="550" y="933" type="line"/>
      <point x="0" y="933" type="line"/>
    </contour>
    <contour>
      <point x="0" y="1470" type="line"/>
      <point x="550" y="1470" type="line"/>
      <point x="550" y="1441" type="line"/>
      <point x="0" y="1441" type="line"/>
    </contour>
    <contour>
      <point x="0" y="19" type="line"/>
      <point x="550" y="19" type="line"/>
      <point x="550" y="-10" type="line"/>
      <point x="0" y="-10" type="line"/>
    </contour>
    <contour>
      <point x="0" y="-454" type="line"/>
      <point x="550" y="-454" type="line"/>
      <point x="550" y="-483" type="line"/>
      <point x="0" y="-483" type="line"/>
    </contour>
  </outline>
</glyph>
<glyph name="exclamdown" format="1">
  <advance width="764"/>
  <unicode hex="00A1"/>
  <outline>
    <contour>
      <point x="0" y="949" type="line"/>
      <point x="764" y="949" type="line"/>
      <point x="764" y="933" type="line"/>
      <point x="0" y="933" type="line"/>
    </contour>
    <contour>
      <point x="0" y="1470" type="line"/>
      <point x="764" y="1470" type="line"/>
      <point x="764" y="1441" type="line"/>
      <point x="0" y="1441" type="line"/>
    </contour>
    <contour>
      <point x="0" y="19" type="line"/>
      <point x="764" y="19" type="line"/>
      <point x="764" y="-10" type="line"/>
      <point x="0" y="-10" type="line"/>
    </contour>
    <contour>
      <point x="0" y="-454" type="line"/>
      <point x="764" y="-454" type="line"/>
      <point x="764" y="-483" type="line"/>
      <point x="0" y="-483" type="line"/>
    </contour>
    <contour>
      <point x="227" y="978" type="qcurve" smooth="yes"/>
      <point x="227" y="1006"/>
      <point x="248" y="1055"/>
      <point x="284" y="1091"/>
      <point x="333" y="1112"/>
      <point x="361" y="1112" type="qcurve" smooth="yes"/>
      <point x="389" y="1112"/>
      <point x="438" y="1091"/>
      <point x="474" y="1055"/>
      <point x="495" y="1006"/>
      <point x="495" y="978" type="qcurve" smooth="yes"/>
      <point x="495" y="950"/>
      <point x="474" y="901"/>
      <point x="438" y="865"/>
      <point x="389" y="844"/>
      <point x="361" y="844" type="qcurve" smooth="yes"/>
      <point x="333" y="844"/>
      <point x="284" y="865"/>
      <point x="248" y="901"/>
      <point x="227" y="950"/>
    </contour>
    <contour>
      <point x="443" y="660" type="line"/>
      <point x="445" y="551"/>
      <point x="449" y="312"/>
      <point x="457" y="46"/>
      <point x="473" y="-247"/>
      <point x="488" y="-410" type="qcurve"/>
      <point x="233" y="-410" type="line"/>
      <point x="247" y="-247"/>
      <point x="263" y="46"/>
      <point x="271" y="312"/>
      <point x="275" y="551"/>
      <point x="278" y="660" type="qcurve"/>
    </contour>
  </outline>
</glyph>
<glyph name="cent" format="1">
  <advance width="1200"/>
  <unicode hex="00A2"/>
  <outline>
    <contour>
      <point x="0" y="949" type="line"/>
      <point x="1200" y="949" type="line"/>
      <point x="1200" y="933" type="line"/>
      <point x="0" y="933" type="line"/>
    </contour>
    <contour>
      <point x="0" y="1470" type="line"/>
      <point x="1200" y="1470" type="line"/>
      <point x="1200" y="1441" type="line"/>
      <point x="0" y="1441" type="line"/>
    </contour>
    <contour>
      <point x="0" y="19" type="line"/>
      <point x="1200" y="19" type="line"/>
      <point x="1200" y="-10" type="line"/>
      <point x="0" y="-10" type="line"/>
    </contour>
    <contour>
      <point x="0" y="-454" type="line"/>
      <point x="1200" y="-454" type="line"/>
      <point x="1200" y="-483" type="line"/>
      <point x="0" y="-483" type="line"/>
    </contour>
    <contour>
      <point x="386" y="549" type="qcurve" smooth="yes"/>
      <point x="386" y="484"/>
      <point x="416" y="374"/>
      <point x="472" y="288"/>
      <point x="554" y="229"/>
      <point x="605" y="216" type="qcurve"/>
      <point x="605" y="894" type="line"/>
      <point x="557" y="880"/>
      <point x="477" y="822"/>
      <point x="418" y="734"/>
      <point x="386" y="619"/>
    </contour>
    <contour>
      <point x="735" y="1320" type="line"/>
      <point x="735" y="1061" type="line"/>
      <point x="816" y="1056"/>
      <point x="936" y="1013"/>
      <point x="984" y="981" type="qcurve"/>
      <point x="951" y="810" type="line"/>
      <point x="897" y="849"/>
      <point x="792" y="895"/>
      <point x="735" y="902" type="qcurve"/>
      <point x="735" y="209" type="line"/>
      <point x="804" y="217"/>
      <point x="921" y="274"/>
      <point x="975" y="321" type="qcurve"/>
      <point x="994" y="155" type="line"/>
      <point x="934" y="110"/>
      <point x="813" y="60"/>
      <point x="735" y="53" type="qcurve"/>
      <point x="735" y="-210" type="line"/>
      <point x="605" y="-210" type="line"/>
      <point x="605" y="53" type="line"/>
      <point x="520" y="63"/>
      <point x="374" y="140"/>
      <point x="266" y="264"/>
      <point x="205" y="435"/>
      <point x="205" y="540" type="qcurve" smooth="yes"/>
      <point x="205" y="636"/>
      <point x="261" y="808"/>
      <point x="364" y="944"/>
      <point x="512" y="1037"/>
      <point x="605" y="1054" type="qcurve"/>
      <point x="605" y="1320" type="line"/>
    </contour>
  </outline>
</glyph>
<glyph name="sterling" format="1">
  <advance width="1200"/>
  <unicode hex="00A3"/>
  <outline>
    <contour>
      <point x="0" y="949" type="line"/>
      <point x="1200" y="949" type="line"/>
      <point x="1200" y="933" type="line"/>
      <point x="0" y="933" type="line"/>
    </contour>
    <contour>
      <point x="0" y="1470" type="line"/>
      <point x="1200" y="1470" type="line"/>
      <point x="1200" y="1441" type="line"/>
      <point x="0" y="1441" type="line"/>
    </contour>
    <contour>
      <point x="0" y="19" type="line"/>
      <point x="1200" y="19" type="line"/>
      <point x="1200" y="-10" type="line"/>
      <point x="0" y="-10" type="line"/>
    </contour>
    <contour>
      <point x="0" y="-454" type="line"/>
      <point x="1200" y="-454" type="line"/>
      <point x="1200" y="-483" type="line"/>
      <point x="0" y="-483" type="line"/>
    </contour>
    <contour>
      <point x="155" y="835" type="line"/>
      <point x="268" y="835" type="line"/>
      <point x="264" y="889"/>
      <point x="260" y="989"/>
      <point x="260" y="1035" type="qcurve" smooth="yes"/>
      <point x="260" y="1147"/>
      <point x="317" y="1316"/>
      <point x="421" y="1429"/>
      <point x="566" y="1485"/>
      <point x="655" y="1485" type="qcurve" smooth="yes"/>
      <point x="684" y="1485"/>
      <point x="752" y="1475"/>
      <point x="818" y="1457"/>
      <point x="880" y="1431"/>
      <point x="903" y="1415" type="qcurve"/>
      <point x="857" y="1265" type="line"/>
      <point x="838" y="1279"/>
      <point x="787" y="1301"/>
      <point x="731" y="1317"/>
      <point x="677" y="1325"/>
      <point x="655" y="1325" type="qcurve" smooth="yes"/>
      <point x="608" y="1325"/>
      <point x="531" y="1298"/>
      <point x="476" y="1238"/>
      <point x="445" y="1143"/>
      <point x="445" y="1075" type="qcurve" smooth="yes"/>
      <point x="445" y="1022"/>
      <point x="451" y="900"/>
      <point x="456" y="835" type="qcurve"/>
      <point x="765" y="835" type="line"/>
      <point x="765" y="690" type="line"/>
      <point x="468" y="690" type="line"/>
      <point x="473" y="628"/>
      <point x="479" y="514"/>
      <point x="479" y="465" type="qcurve" smooth="yes"/>
      <point x="479" y="371"/>
      <point x="434" y="224"/>
      <point x="376" y="165" type="qcurve"/>
      <point x="579" y="165" type="line" smooth="yes"/>
      <point x="653" y="165"/>
      <point x="785" y="166"/>
      <point x="897" y="169"/>
      <point x="985" y="175"/>
      <point x="1015" y="180" type="qcurve"/>
      <point x="1015" y="0" type="line"/>
      <point x="145" y="0" type="line"/>
      <point x="145" y="130" type="line"/>
      <point x="175" y="152"/>
      <point x="229" y="208"/>
      <point x="270" y="274"/>
      <point x="294" y="350"/>
      <point x="294" y="392" type="qcurve" smooth="yes"/>
      <point x="294" y="462"/>
      <point x="285" y="613"/>
      <point x="279" y="690" type="qcurve"/>
      <point x="155" y="690" type="line"/>
    </contour>
  </outline>
</glyph>
<glyph name="currency" format="1">
  <advance width="1200"/>
  <unicode hex="00A4"/>
  <outline>
    <contour>
      <point x="0" y="949" type="line"/>
      <point x="1200" y="949" type="line"/>
      <point x="1200" y="933" type="line"/>
      <point x="0" y="933" type="line"/>
    </contour>
    <contour>
      <point x="0" y="1470" type="line"/>
      <point x="1200" y="1470" type="line"/>
      <point x="1200" y="1441" type="line"/>
      <point x="0" y="1441" type="line"/>
    </contour>
    <contour>
      <point x="0" y="19" type="line"/>
      <point x="1200" y="19" type="line"/>
      <point x="1200" y="-10" type="line"/>
      <point x="0" y="-10" type="line"/>
    </contour>
    <contour>
      <point x="0" y="-454" type="line"/>
      <point x="1200" y="-454" type="line"/>
      <point x="1200" y="-483" type="line"/>
      <point x="0" y="-483" type="line"/>
    </contour>
    <contour>
      <point x="905" y="877" type="qcurve" smooth="yes"/>
      <point x="905" y="941"/>
      <point x="859" y="1052"/>
      <point x="779" y="1134"/>
      <point x="668" y="1182"/>
      <point x="604" y="1182" type="qcurve" smooth="yes"/>
      <point x="537" y="1182"/>
      <point x="424" y="1136"/>
      <point x="341" y="1054"/>
      <point x="294" y="941"/>
      <point x="294" y="874" type="qcurve" smooth="yes"/>
      <point x="294" y="808"/>
      <point x="341" y="696"/>
      <point x="425" y="615"/>
      <point x="538" y="569"/>
      <point x="604" y="569" type="qcurve" smooth="yes"/>
      <point x="669" y="569"/>
      <point x="780" y="617"/>
      <point x="860" y="700"/>
      <point x="905" y="812"/>
    </contour>
    <contour>
      <point x="1069" y="318" type="line"/>
      <point x="858" y="529" type="line"/>
      <point x="802" y="484"/>
      <point x="675" y="437"/>
      <point x="604" y="437" type="qcurve" smooth="yes"/>
      <point x="527" y="437"/>
      <point x="399" y="483"/>
      <point x="342" y="529" type="qcurve"/>
      <point x="131" y="318" type="line"/>
      <point x="37" y="411" type="line"/>
      <point x="248" y="622" type="line"/>
      <point x="206" y="678"/>
      <point x="163" y="802"/>
      <point x="163" y="874" type="qcurve" smooth="yes"/>
      <point x="163" y="946"/>
      <point x="206" y="1081"/>
      <point x="252" y="1135" type="qcurve"/>
      <point x="37" y="1350" type="line"/>
      <point x="131" y="1444" type="line"/>
      <point x="346" y="1229" type="line"/>
      <point x="401" y="1270"/>
      <point x="532" y="1314"/>
      <point x="604" y="1314" type="qcurve" smooth="yes"/>
      <point x="675" y="1314"/>
      <point x="799" y="1268"/>
      <point x="852" y="1227" type="qcurve"/>
      <point x="1069" y="1444" type="line"/>
      <point x="1163" y="1350" type="line"/>
      <point x="950" y="1137" type="line"/>
      <point x="989" y="1083"/>
      <point x="1037" y="949"/>
      <point x="1037" y="877" type="qcurve" smooth="yes"/>
      <point x="1037" y="734"/>
      <point x="952" y="622" type="qcurve"/>
      <point x="1163" y="411" type="line"/>
    </contour>
  </outline>
</glyph>
<glyph name="yen" format="1">
  <advance width="1200"/>
  <unicode hex="00A5"/>
  <outline>
    <contour>
      <point x="0" y="949" type="line"/>
      <point x="1200" y="959" type="line"/>
      <point x="1200" y="943" type="line"/>
      <point x="0" y="933" type="line"/>
    </contour>
    <contour>
      <point x="0" y="1470" type="line"/>
      <point x="1200" y="1480" type="line"/>
      <point x="1200" y="1451" type="line"/>
      <point x="0" y="1441" type="line"/>
    </contour>
    <contour>
      <point x="0" y="19" type="line"/>
      <point x="1200" y="29" type="line"/>
      <point x="1200" y="0" type="line"/>
      <point x="0" y="-10" type="line"/>
    </contour>
    <contour>
      <point x="0" y="-454" type="line"/>
      <point x="1200" y="-444" type="line"/>
      <point x="1200" y="-473" type="line"/>
      <point x="0" y="-483" type="line"/>
    </contour>
    <contour>
      <point x="200" y="715" type="line"/>
      <point x="445" y="715" type="line"/>
      <point x="286" y="1012" type="line" smooth="yes"/>
      <point x="261" y="1059"/>
      <point x="214" y="1148"/>
      <point x="161" y="1238"/>
      <point x="101" y="1334"/>
      <point x="64" y="1387" type="qcurve"/>
      <point x="265" y="1387" type="line"/>
      <point x="608" y="759" type="line"/>
      <point x="934" y="1387" type="line"/>
      <point x="1135" y="1387" type="line"/>
      <point x="1096" y="1327"/>
      <point x="1037" y="1229"/>
      <point x="987" y="1142"/>
      <point x="942" y="1058"/>
      <point x="917" y="1012" type="qcurve" smooth="yes"/>
      <point x="758" y="715" type="line"/>
      <point x="1008" y="715" type="line"/>
      <point x="1008" y="570" type="line"/>
      <point x="682" y="570" type="line"/>
      <point x="682" y="465" type="line"/>
      <point x="1008" y="465" type="line"/>
      <point x="1008" y="320" type="line"/>
      <point x="682" y="320" type="line"/>
      <point x="682" y="212"/>
      <point x="687" y="47"/>
      <point x="695" y="0" type="qcurve"/>
      <point x="504" y="0" type="line"/>
      <point x="512" y="47"/>
      <point x="516" y="212"/>
      <point x="517" y="320" type="qcurve"/>
      <point x="200" y="320" type="line"/>
      <point x="200" y="465" type="line"/>
      <point x="517" y="465" type="line"/>
      <point x="517" y="570" type="line"/>
      <point x="200" y="570" type="line"/>
    </contour>
  </outline>
</glyph>
<glyph name="brokenbar" format="1">
  <advance width="1024"/>
  <unicode hex="00A6"/>
  <outline>
    <contour>
      <point x="0" y="949" type="line"/>
      <point x="1040" y="949" type="line"/>
      <point x="1040" y="933" type="line"/>
      <point x="0" y="933" type="line"/>
    </contour>
    <contour>
      <point x="0" y="1470" type="line"/>
      <point x="1040" y="1470" type="line"/>
      <point x="1040" y="1441" type="line"/>
      <point x="0" y="1441" type="line"/>
    </contour>
    <contour>
      <point x="0" y="19" type="line"/>
      <point x="1040" y="19" type="line"/>
      <point x="1040" y="-10" type="line"/>
      <point x="0" y="-10" type="line"/>
    </contour>
    <contour>
      <point x="0" y="-454" type="line"/>
      <point x="1040" y="-454" type="line"/>
      <point x="1040" y="-483" type="line"/>
      <point x="0" y="-483" type="line"/>
    </contour>
    <contour>
      <point x="440" y="775" type="line"/>
      <point x="440" y="1600" type="line"/>
      <point x="590" y="1600" type="line"/>
      <point x="590" y="775" type="line"/>
    </contour>
    <contour>
      <point x="590" y="445" type="line"/>
      <point x="590" y="-390" type="line"/>
      <point x="440" y="-390" type="line"/>
      <point x="440" y="445" type="line"/>
    </contour>
  </outline>
</glyph>
<glyph name="section" format="1">
  <advance width="1024"/>
  <unicode hex="00A7"/>
  <outline>
    <contour>
      <point x="0" y="949" type="line"/>
      <point x="1040" y="949" type="line"/>
      <point x="1040" y="933" type="line"/>
      <point x="0" y="933" type="line"/>
    </contour>
    <contour>
      <point x="0" y="1470" type="line"/>
      <point x="1040" y="1470" type="line"/>
      <point x="1040" y="1441" type="line"/>
      <point x="0" y="1441" type="line"/>
    </contour>
    <contour>
      <point x="0" y="19" type="line"/>
      <point x="1040" y="19" type="line"/>
      <point x="1040" y="-10" type="line"/>
      <point x="0" y="-10" type="line"/>
    </contour>
    <contour>
      <point x="0" y="-454" type="line"/>
      <point x="1040" y="-454" type="line"/>
      <point x="1040" y="-483" type="line"/>
      <point x="0" y="-483" type="line"/>
    </contour>
    <contour>
      <point x="700" y="480" type="qcurve" smooth="yes"/>
      <point x="700" y="508"/>
      <point x="681" y="565"/>
      <point x="635" y="627"/>
      <point x="558" y="695"/>
      <point x="501" y="735" type="qcurve"/>
      <point x="459" y="734"/>
      <point x="389" y="710"/>
      <point x="338" y="669"/>
      <point x="310" y="611"/>
      <point x="310" y="575" type="qcurve" smooth="yes"/>
      <point x="310" y="544"/>
      <point x="330" y="485"/>
      <point x="379" y="422"/>
      <point x="460" y="352"/>
      <point x="522" y="311" type="qcurve"/>
      <point x="561" y="314"/>
      <point x="627" y="344"/>
      <point x="674" y="389"/>
      <point x="700" y="447"/>
    </contour>
    <contour>
      <point x="880" y="512" type="qcurve" smooth="yes"/>
      <point x="880" y="405"/>
      <point x="778" y="240"/>
      <point x="690" y="195" type="qcurve"/>
      <point x="788" y="115"/>
      <point x="880" y="-49"/>
      <point x="880" y="-140" type="qcurve" smooth="yes"/>
      <point x="880" y="-208"/>
      <point x="820" y="-328"/>
      <point x="716" y="-418"/>
      <point x="576" y="-470"/>
      <point x="495" y="-470" type="qcurve" smooth="yes"/>
      <point x="434" y="-470"/>
      <point x="321" y="-452"/>
      <point x="222" y="-420"/>
      <point x="140" y="-378"/>
      <point x="110" y="-355" type="qcurve"/>
      <point x="160" y="-175" type="line"/>
      <point x="194" y="-205"/>
      <point x="279" y="-255"/>
      <point x="369" y="-291"/>
      <point x="460" y="-310"/>
      <point x="500" y="-310" type="qcurve" smooth="yes"/>
      <point x="544" y="-310"/>
      <point x="617" y="-284"/>
      <point x="670" y="-243"/>
      <point x="700" y="-191"/>
      <point x="700" y="-165" type="qcurve" smooth="yes"/>
      <point x="700" y="-117"/>
      <point x="658" y="-35"/>
      <point x="580" y="44"/>
      <point x="471" y="124"/>
      <point x="405" y="170" type="qcurve" smooth="yes"/>
      <point x="337" y="217"/>
      <point x="235" y="304"/>
      <point x="165" y="398"/>
      <point x="130" y="505"/>
      <point x="130" y="571" type="qcurve" smooth="yes"/>
      <point x="130" y="674"/>
      <point x="234" y="818"/>
      <point x="320" y="856" type="qcurve"/>
      <point x="222" y="931"/>
      <point x="130" y="1071"/>
      <point x="130" y="1145" type="qcurve" smooth="yes"/>
      <point x="130" y="1206"/>
      <point x="170" y="1327"/>
      <point x="262" y="1424"/>
      <point x="408" y="1485"/>
      <point x="515" y="1485" type="qcurve" smooth="yes"/>
      <point x="569" y="1485"/>
      <point x="664" y="1471"/>
      <point x="743" y="1448"/>
      <point x="809" y="1419"/>
      <point x="835" y="1405" type="qcurve"/>
      <point x="800" y="1230" type="line"/>
      <point x="775" y="1245"/>
      <point x="711" y="1278"/>
      <point x="636" y="1306"/>
      <point x="551" y="1325"/>
      <point x="505" y="1325" type="qcurve" smooth="yes"/>
      <point x="454" y="1325"/>
      <point x="380" y="1301"/>
      <point x="332" y="1262"/>
      <point x="310" y="1212"/>
      <point x="310" y="1187" type="qcurve" smooth="yes"/>
      <point x="310" y="1149"/>
      <point x="352" y="1081"/>
      <point x="430" y="1011"/>
      <point x="539" y="933"/>
      <point x="605" y="885" type="qcurve" smooth="yes"/>
      <point x="672" y="836"/>
      <point x="775" y="750"/>
      <point x="845" y="662"/>
      <point x="880" y="568"/>
    </contour>
  </outline>
</glyph>
<glyph name="copyright" format="1">
  <advance width="1515"/>
  <unicode hex="00A9"/>
  <outline>
    <contour>
      <point x="1035" y="375" type="line"/>
      <point x="1007" y="349"/>
      <point x="939" y="310"/>
      <point x="864" y="283"/>
      <point x="786" y="270"/>
      <point x="750" y="270" type="qcurve" smooth="yes"/>
      <point x="661" y="270"/>
      <point x="515" y="335"/>
      <point x="412" y="454"/>
      <point x="355" y="619"/>
      <point x="355" y="720" type="qcurve" smooth="yes"/>
      <point x="355" y="835"/>
      <point x="426" y="1013"/>
      <point x="541" y="1133"/>
      <point x="688" y="1195"/>
      <point x="765" y="1195" type="qcurve" smooth="yes"/>
      <point x="834" y="1195"/>
      <point x="961" y="1156"/>
      <point x="1030" y="1105" type="qcurve"/>
      <point x="990" y="985" type="line"/>
      <point x="930" y="1040"/>
      <point x="823" y="1085"/>
      <point x="765" y="1085" type="qcurve" smooth="yes"/>
      <point x="707" y="1085"/>
      <point x="603" y="1039"/>
      <point x="525" y="950"/>
      <point x="480" y="820"/>
      <point x="480" y="735" type="qcurve" smooth="yes"/>
      <point x="480" y="669"/>
      <point x="520" y="543"/>
      <point x="593" y="445"/>
      <point x="696" y="385"/>
      <point x="760" y="385" type="qcurve" smooth="yes"/>
      <point x="830" y="385"/>
      <point x="957" y="451"/>
      <point x="1010" y="505" type="qcurve"/>
    </contour>
    <contour>
      <point x="755" y="1485" type="qcurve" smooth="yes"/>
      <point x="842" y="1485"/>
      <point x="1015" y="1443"/>
      <point x="1173" y="1358"/>
      <point x="1308" y="1232"/>
      <point x="1408" y="1064"/>
      <point x="1465" y="855"/>
      <point x="1465" y="730" type="qcurve" smooth="yes"/>
      <point x="1465" y="602"/>
      <point x="1408" y="391"/>
      <point x="1308" y="224"/>
      <point x="1173" y="99"/>
      <point x="1015" y="16"/>
      <point x="842" y="-25"/>
      <point x="755" y="-25" type="qcurve" smooth="yes"/>
      <point x="665" y="-25"/>
      <point x="491" y="16"/>
      <point x="335" y="99"/>
      <point x="202" y="224"/>
      <point x="105" y="391"/>
      <point x="50" y="603"/>
      <point x="50" y="730" type="qcurve" smooth="yes"/>
      <point x="50" y="855"/>
      <point x="105" y="1064"/>
      <point x="202" y="1232"/>
      <point x="335" y="1358"/>
      <point x="491" y="1443"/>
      <point x="666" y="1485"/>
    </contour>
    <contour>
      <point x="755" y="1365" type="qcurve" smooth="yes"/>
      <point x="643" y="1365"/>
      <point x="434" y="1283"/>
      <point x="272" y="1123"/>
      <point x="175" y="886"/>
      <point x="175" y="730" type="qcurve" smooth="yes"/>
      <point x="175" y="574"/>
      <point x="272" y="337"/>
      <point x="434" y="177"/>
      <point x="643" y="95"/>
      <point x="755" y="95" type="qcurve" smooth="yes"/>
      <point x="867" y="95"/>
      <point x="1078" y="177"/>
      <point x="1241" y="337"/>
      <point x="1340" y="574"/>
      <point x="1340" y="730" type="qcurve" smooth="yes"/>
      <point x="1340" y="886"/>
      <point x="1241" y="1123"/>
      <point x="1078" y="1283"/>
      <point x="867" y="1365"/>
    </contour>
    <contour>
      <point x="0" y="949" type="line"/>
      <point x="1515" y="949" type="line"/>
      <point x="1515" y="933" type="line"/>
      <point x="0" y="933" type="line"/>
    </contour>
    <contour>
      <point x="0" y="1470" type="line"/>
      <point x="1515" y="1470" type="line"/>
      <point x="1515" y="1441" type="line"/>
      <point x="0" y="1441" type="line"/>
    </contour>
    <contour>
      <point x="0" y="19" type="line"/>
      <point x="1515" y="19" type="line"/>
      <point x="1515" y="-10" type="line"/>
      <point x="0" y="-10" type="line"/>
    </contour>
    <contour>
      <point x="0" y="-454" type="line"/>
      <point x="1515" y="-454" type="line"/>
      <point x="1515" y="-483" type="line"/>
      <point x="0" y="-483" type="line"/>
    </contour>
  </outline>
</glyph>
<glyph name="ordfeminine" format="1">
  <advance width="808"/>
  <unicode hex="00AA"/>
  <outline>
    <contour>
      <point x="449" y="1252" type="qcurve" smooth="yes"/>
      <point x="380" y="1252"/>
      <point x="289" y="1201"/>
      <point x="234" y="1115"/>
      <point x="211" y="1005"/>
      <point x="211" y="946" type="qcurve" smooth="yes"/>
      <point x="211" y="908"/>
      <point x="227" y="845"/>
      <point x="255" y="800"/>
      <point x="291" y="774"/>
      <point x="312" y="774" type="qcurve" smooth="yes"/>
      <point x="343" y="774"/>
      <point x="408" y="824"/>
      <point x="468" y="902"/>
      <point x="522" y="999"/>
      <point x="562" y="1093"/>
      <point x="585" y="1174"/>
      <point x="585" y="1197" type="qcurve" smooth="yes"/>
      <point x="585" y="1239" type="line"/>
      <point x="568" y="1243"/>
      <point x="502" y="1252"/>
    </contour>
    <contour>
      <point x="606" y="985" type="line"/>
      <point x="584" y="930"/>
      <point x="522" y="816"/>
      <point x="442" y="723"/>
      <point x="346" y="664"/>
      <point x="291" y="664" type="qcurve" smooth="yes"/>
      <point x="247" y="664"/>
      <point x="171" y="701"/>
      <point x="114" y="772"/>
      <point x="81" y="877"/>
      <point x="81" y="946" type="qcurve" smooth="yes"/>
      <point x="81" y="1024"/>
      <point x="126" y="1171"/>
      <point x="219" y="1286"/>
      <point x="361" y="1356"/>
      <point x="459" y="1356" type="qcurve" smooth="yes"/>
      <point x="528" y="1356"/>
      <point x="661" y="1340"/>
      <point x="715" y="1327" type="qcurve"/>
      <point x="715" y="1024" type="line" smooth="yes"/>
      <point x="715" y="901"/>
      <point x="740" y="735"/>
      <point x="760" y="680" type="qcurve"/>
      <point x="638" y="680" type="line"/>
      <point x="630" y="695"/>
      <point x="619" y="758"/>
      <point x="610" y="830"/>
      <point x="606" y="899"/>
      <point x="606" y="920" type="qcurve" smooth="yes"/>
    </contour>
    <contour>
      <point x="78" y="600" type="line"/>
      <point x="770" y="600" type="line"/>
      <point x="770" y="500" type="line"/>
      <point x="78" y="500" type="line"/>
    </contour>
  </outline>
</glyph>
<glyph name="guillemotleft" format="1">
  <advance width="1300"/>
  <unicode hex="00AB"/>
  <outline>
    <contour>
      <point x="0" y="949" type="line"/>
      <point x="1300" y="949" type="line"/>
      <point x="1300" y="933" type="line"/>
      <point x="0" y="933" type="line"/>
    </contour>
    <contour>
      <point x="0" y="1470" type="line"/>
      <point x="1300" y="1470" type="line"/>
      <point x="1300" y="1441" type="line"/>
      <point x="0" y="1441" type="line"/>
    </contour>
    <contour>
      <point x="0" y="19" type="line"/>
      <point x="1300" y="19" type="line"/>
      <point x="1300" y="-10" type="line"/>
      <point x="0" y="-10" type="line"/>
    </contour>
    <contour>
      <point x="0" y="-454" type="line"/>
      <point x="1300" y="-454" type="line"/>
      <point x="1300" y="-483" type="line"/>
      <point x="0" y="-483" type="line"/>
    </contour>
    <contour>
      <point x="1003" y="0" type="line"/>
      <point x="565" y="512" type="line"/>
      <point x="1000" y="1020" type="line"/>
      <point x="1185" y="1020" type="line"/>
      <point x="795" y="512" type="line"/>
      <point x="1185" y="0" type="line"/>
    </contour>
    <contour>
      <point x="513" y="0" type="line"/>
      <point x="75" y="512" type="line"/>
      <point x="510" y="1020" type="line"/>
      <point x="695" y="1020" type="line"/>
      <point x="305" y="512" type="line"/>
      <point x="695" y="0" type="line"/>
    </contour>
  </outline>
</glyph>
